G04 EAGLE Gerber RS-274X export*
G75*
%MOMM*%
%FSLAX34Y34*%
%LPD*%
%INSilkscreen Top*%
%IPPOS*%
%AMOC8*
5,1,8,0,0,1.08239X$1,22.5*%
G01*
%ADD10C,0.152400*%
%ADD11C,0.127000*%
%ADD12C,0.304800*%
%ADD13R,0.381000X0.508000*%
%ADD14C,0.101600*%
%ADD15C,0.050800*%
%ADD16C,0.177800*%


D10*
X203200Y-34290D02*
X25400Y-34290D01*
X25400Y-92710D02*
X203200Y-92710D01*
X203200Y-34290D01*
X25400Y-34290D02*
X25400Y-53340D01*
X25400Y-73660D02*
X25400Y-92710D01*
X25400Y-73660D02*
X25647Y-73657D01*
X25895Y-73648D01*
X26142Y-73633D01*
X26388Y-73612D01*
X26634Y-73585D01*
X26879Y-73552D01*
X27124Y-73513D01*
X27367Y-73468D01*
X27609Y-73417D01*
X27850Y-73360D01*
X28089Y-73298D01*
X28327Y-73229D01*
X28563Y-73155D01*
X28797Y-73075D01*
X29029Y-72990D01*
X29259Y-72898D01*
X29487Y-72802D01*
X29712Y-72699D01*
X29935Y-72592D01*
X30155Y-72478D01*
X30372Y-72360D01*
X30587Y-72236D01*
X30798Y-72107D01*
X31006Y-71973D01*
X31211Y-71834D01*
X31412Y-71690D01*
X31610Y-71542D01*
X31804Y-71388D01*
X31994Y-71230D01*
X32180Y-71067D01*
X32362Y-70900D01*
X32540Y-70728D01*
X32714Y-70552D01*
X32884Y-70372D01*
X33049Y-70187D01*
X33209Y-69999D01*
X33365Y-69807D01*
X33517Y-69611D01*
X33663Y-69412D01*
X33805Y-69209D01*
X33941Y-69002D01*
X34073Y-68793D01*
X34199Y-68580D01*
X34320Y-68364D01*
X34436Y-68146D01*
X34546Y-67924D01*
X34651Y-67700D01*
X34751Y-67474D01*
X34845Y-67245D01*
X34933Y-67014D01*
X35016Y-66780D01*
X35093Y-66545D01*
X35164Y-66308D01*
X35230Y-66070D01*
X35289Y-65830D01*
X35343Y-65588D01*
X35391Y-65345D01*
X35433Y-65102D01*
X35469Y-64857D01*
X35499Y-64611D01*
X35523Y-64365D01*
X35541Y-64118D01*
X35553Y-63871D01*
X35559Y-63624D01*
X35559Y-63376D01*
X35553Y-63129D01*
X35541Y-62882D01*
X35523Y-62635D01*
X35499Y-62389D01*
X35469Y-62143D01*
X35433Y-61898D01*
X35391Y-61655D01*
X35343Y-61412D01*
X35289Y-61170D01*
X35230Y-60930D01*
X35164Y-60692D01*
X35093Y-60455D01*
X35016Y-60220D01*
X34933Y-59986D01*
X34845Y-59755D01*
X34751Y-59526D01*
X34651Y-59300D01*
X34546Y-59076D01*
X34436Y-58854D01*
X34320Y-58636D01*
X34199Y-58420D01*
X34073Y-58207D01*
X33941Y-57998D01*
X33805Y-57791D01*
X33663Y-57588D01*
X33517Y-57389D01*
X33365Y-57193D01*
X33209Y-57001D01*
X33049Y-56813D01*
X32884Y-56628D01*
X32714Y-56448D01*
X32540Y-56272D01*
X32362Y-56100D01*
X32180Y-55933D01*
X31994Y-55770D01*
X31804Y-55612D01*
X31610Y-55458D01*
X31412Y-55310D01*
X31211Y-55166D01*
X31006Y-55027D01*
X30798Y-54893D01*
X30587Y-54764D01*
X30372Y-54640D01*
X30155Y-54522D01*
X29935Y-54408D01*
X29712Y-54301D01*
X29487Y-54198D01*
X29259Y-54102D01*
X29029Y-54010D01*
X28797Y-53925D01*
X28563Y-53845D01*
X28327Y-53771D01*
X28089Y-53702D01*
X27850Y-53640D01*
X27609Y-53583D01*
X27367Y-53532D01*
X27124Y-53487D01*
X26879Y-53448D01*
X26634Y-53415D01*
X26388Y-53388D01*
X26142Y-53367D01*
X25895Y-53352D01*
X25647Y-53343D01*
X25400Y-53340D01*
D11*
X20955Y-92075D02*
X9525Y-92075D01*
X20955Y-93345D02*
X20955Y-90805D01*
X9525Y-90805D02*
X9525Y-93345D01*
X20955Y-83603D02*
X20955Y-81063D01*
X20955Y-83603D02*
X20953Y-83703D01*
X20947Y-83802D01*
X20937Y-83902D01*
X20924Y-84000D01*
X20906Y-84099D01*
X20885Y-84196D01*
X20860Y-84292D01*
X20831Y-84388D01*
X20798Y-84482D01*
X20762Y-84575D01*
X20722Y-84666D01*
X20678Y-84756D01*
X20631Y-84844D01*
X20581Y-84930D01*
X20527Y-85014D01*
X20470Y-85096D01*
X20410Y-85175D01*
X20346Y-85253D01*
X20280Y-85327D01*
X20211Y-85399D01*
X20139Y-85468D01*
X20065Y-85534D01*
X19987Y-85598D01*
X19908Y-85658D01*
X19826Y-85715D01*
X19742Y-85769D01*
X19656Y-85819D01*
X19568Y-85866D01*
X19478Y-85910D01*
X19387Y-85950D01*
X19294Y-85986D01*
X19200Y-86019D01*
X19104Y-86048D01*
X19008Y-86073D01*
X18911Y-86094D01*
X18812Y-86112D01*
X18714Y-86125D01*
X18614Y-86135D01*
X18515Y-86141D01*
X18415Y-86143D01*
X12065Y-86143D01*
X11965Y-86141D01*
X11866Y-86135D01*
X11766Y-86125D01*
X11668Y-86112D01*
X11569Y-86094D01*
X11472Y-86073D01*
X11376Y-86048D01*
X11280Y-86019D01*
X11186Y-85986D01*
X11093Y-85950D01*
X11002Y-85910D01*
X10912Y-85866D01*
X10824Y-85819D01*
X10738Y-85769D01*
X10654Y-85715D01*
X10572Y-85658D01*
X10493Y-85598D01*
X10415Y-85534D01*
X10341Y-85468D01*
X10269Y-85399D01*
X10200Y-85327D01*
X10134Y-85253D01*
X10070Y-85175D01*
X10010Y-85096D01*
X9953Y-85014D01*
X9899Y-84930D01*
X9849Y-84844D01*
X9802Y-84756D01*
X9758Y-84666D01*
X9718Y-84575D01*
X9682Y-84482D01*
X9649Y-84388D01*
X9620Y-84292D01*
X9595Y-84196D01*
X9574Y-84099D01*
X9556Y-84000D01*
X9543Y-83902D01*
X9533Y-83802D01*
X9527Y-83703D01*
X9525Y-83603D01*
X9525Y-81063D01*
X9525Y-73089D02*
X9527Y-72985D01*
X9533Y-72880D01*
X9542Y-72776D01*
X9555Y-72673D01*
X9573Y-72570D01*
X9593Y-72468D01*
X9618Y-72366D01*
X9646Y-72266D01*
X9678Y-72166D01*
X9714Y-72068D01*
X9753Y-71971D01*
X9795Y-71876D01*
X9841Y-71782D01*
X9891Y-71690D01*
X9943Y-71600D01*
X9999Y-71512D01*
X10059Y-71426D01*
X10121Y-71342D01*
X10186Y-71261D01*
X10254Y-71182D01*
X10326Y-71105D01*
X10399Y-71032D01*
X10476Y-70960D01*
X10555Y-70892D01*
X10636Y-70827D01*
X10720Y-70765D01*
X10806Y-70705D01*
X10894Y-70649D01*
X10984Y-70597D01*
X11076Y-70547D01*
X11170Y-70501D01*
X11265Y-70459D01*
X11362Y-70420D01*
X11460Y-70384D01*
X11560Y-70352D01*
X11660Y-70324D01*
X11762Y-70299D01*
X11864Y-70279D01*
X11967Y-70261D01*
X12070Y-70248D01*
X12174Y-70239D01*
X12279Y-70233D01*
X12383Y-70231D01*
X9525Y-73089D02*
X9527Y-73207D01*
X9533Y-73326D01*
X9542Y-73444D01*
X9555Y-73561D01*
X9573Y-73678D01*
X9593Y-73795D01*
X9618Y-73911D01*
X9646Y-74026D01*
X9679Y-74139D01*
X9714Y-74252D01*
X9754Y-74364D01*
X9796Y-74474D01*
X9843Y-74583D01*
X9893Y-74691D01*
X9946Y-74796D01*
X10003Y-74900D01*
X10063Y-75002D01*
X10126Y-75102D01*
X10193Y-75200D01*
X10262Y-75296D01*
X10335Y-75389D01*
X10411Y-75480D01*
X10489Y-75569D01*
X10571Y-75655D01*
X10655Y-75738D01*
X10741Y-75819D01*
X10831Y-75896D01*
X10922Y-75971D01*
X11016Y-76043D01*
X11113Y-76112D01*
X11211Y-76177D01*
X11312Y-76240D01*
X11415Y-76299D01*
X11519Y-76355D01*
X11625Y-76407D01*
X11733Y-76456D01*
X11842Y-76501D01*
X11953Y-76543D01*
X12065Y-76581D01*
X14605Y-71183D02*
X14530Y-71107D01*
X14451Y-71032D01*
X14370Y-70961D01*
X14286Y-70892D01*
X14200Y-70827D01*
X14112Y-70765D01*
X14022Y-70705D01*
X13930Y-70649D01*
X13835Y-70596D01*
X13739Y-70547D01*
X13641Y-70501D01*
X13542Y-70458D01*
X13441Y-70419D01*
X13339Y-70384D01*
X13236Y-70352D01*
X13132Y-70324D01*
X13027Y-70299D01*
X12920Y-70278D01*
X12814Y-70261D01*
X12707Y-70248D01*
X12599Y-70239D01*
X12491Y-70233D01*
X12383Y-70231D01*
X14605Y-71184D02*
X20955Y-76581D01*
X20955Y-70231D01*
D10*
X21590Y-229870D02*
X21450Y-229872D01*
X21310Y-229878D01*
X21170Y-229887D01*
X21031Y-229901D01*
X20892Y-229918D01*
X20754Y-229939D01*
X20616Y-229964D01*
X20479Y-229993D01*
X20343Y-230025D01*
X20208Y-230062D01*
X20074Y-230102D01*
X19941Y-230145D01*
X19809Y-230193D01*
X19678Y-230243D01*
X19549Y-230298D01*
X19422Y-230356D01*
X19296Y-230417D01*
X19172Y-230482D01*
X19050Y-230551D01*
X18930Y-230622D01*
X18812Y-230697D01*
X18695Y-230775D01*
X18581Y-230857D01*
X18470Y-230941D01*
X18361Y-231029D01*
X18254Y-231119D01*
X18149Y-231213D01*
X18048Y-231309D01*
X17949Y-231408D01*
X17853Y-231509D01*
X17759Y-231614D01*
X17669Y-231721D01*
X17581Y-231830D01*
X17497Y-231941D01*
X17415Y-232055D01*
X17337Y-232172D01*
X17262Y-232290D01*
X17191Y-232410D01*
X17122Y-232532D01*
X17057Y-232656D01*
X16996Y-232782D01*
X16938Y-232909D01*
X16883Y-233038D01*
X16833Y-233169D01*
X16785Y-233301D01*
X16742Y-233434D01*
X16702Y-233568D01*
X16665Y-233703D01*
X16633Y-233839D01*
X16604Y-233976D01*
X16579Y-234114D01*
X16558Y-234252D01*
X16541Y-234391D01*
X16527Y-234530D01*
X16518Y-234670D01*
X16512Y-234810D01*
X16510Y-234950D01*
X16510Y-247650D02*
X16512Y-247790D01*
X16518Y-247930D01*
X16527Y-248070D01*
X16541Y-248209D01*
X16558Y-248348D01*
X16579Y-248486D01*
X16604Y-248624D01*
X16633Y-248761D01*
X16665Y-248897D01*
X16702Y-249032D01*
X16742Y-249166D01*
X16785Y-249299D01*
X16833Y-249431D01*
X16883Y-249562D01*
X16938Y-249691D01*
X16996Y-249818D01*
X17057Y-249944D01*
X17122Y-250068D01*
X17191Y-250190D01*
X17262Y-250310D01*
X17337Y-250428D01*
X17415Y-250545D01*
X17497Y-250659D01*
X17581Y-250770D01*
X17669Y-250879D01*
X17759Y-250986D01*
X17853Y-251091D01*
X17949Y-251192D01*
X18048Y-251291D01*
X18149Y-251387D01*
X18254Y-251481D01*
X18361Y-251571D01*
X18470Y-251659D01*
X18581Y-251743D01*
X18695Y-251825D01*
X18812Y-251903D01*
X18930Y-251978D01*
X19050Y-252049D01*
X19172Y-252118D01*
X19296Y-252183D01*
X19422Y-252244D01*
X19549Y-252302D01*
X19678Y-252357D01*
X19809Y-252407D01*
X19941Y-252455D01*
X20074Y-252498D01*
X20208Y-252538D01*
X20343Y-252575D01*
X20479Y-252607D01*
X20616Y-252636D01*
X20754Y-252661D01*
X20892Y-252682D01*
X21031Y-252699D01*
X21170Y-252713D01*
X21310Y-252722D01*
X21450Y-252728D01*
X21590Y-252730D01*
X21590Y-229870D02*
X54610Y-229870D01*
X54610Y-252730D02*
X21590Y-252730D01*
X54610Y-229870D02*
X54750Y-229872D01*
X54890Y-229878D01*
X55030Y-229887D01*
X55169Y-229901D01*
X55308Y-229918D01*
X55446Y-229939D01*
X55584Y-229964D01*
X55721Y-229993D01*
X55857Y-230025D01*
X55992Y-230062D01*
X56126Y-230102D01*
X56259Y-230145D01*
X56391Y-230193D01*
X56522Y-230243D01*
X56651Y-230298D01*
X56778Y-230356D01*
X56904Y-230417D01*
X57028Y-230482D01*
X57150Y-230551D01*
X57270Y-230622D01*
X57388Y-230697D01*
X57505Y-230775D01*
X57619Y-230857D01*
X57730Y-230941D01*
X57839Y-231029D01*
X57946Y-231119D01*
X58051Y-231213D01*
X58152Y-231309D01*
X58251Y-231408D01*
X58347Y-231509D01*
X58441Y-231614D01*
X58531Y-231721D01*
X58619Y-231830D01*
X58703Y-231941D01*
X58785Y-232055D01*
X58863Y-232172D01*
X58938Y-232290D01*
X59009Y-232410D01*
X59078Y-232532D01*
X59143Y-232656D01*
X59204Y-232782D01*
X59262Y-232909D01*
X59317Y-233038D01*
X59367Y-233169D01*
X59415Y-233301D01*
X59458Y-233434D01*
X59498Y-233568D01*
X59535Y-233703D01*
X59567Y-233839D01*
X59596Y-233976D01*
X59621Y-234114D01*
X59642Y-234252D01*
X59659Y-234391D01*
X59673Y-234530D01*
X59682Y-234670D01*
X59688Y-234810D01*
X59690Y-234950D01*
X59690Y-247650D02*
X59688Y-247790D01*
X59682Y-247930D01*
X59673Y-248070D01*
X59659Y-248209D01*
X59642Y-248348D01*
X59621Y-248486D01*
X59596Y-248624D01*
X59567Y-248761D01*
X59535Y-248897D01*
X59498Y-249032D01*
X59458Y-249166D01*
X59415Y-249299D01*
X59367Y-249431D01*
X59317Y-249562D01*
X59262Y-249691D01*
X59204Y-249818D01*
X59143Y-249944D01*
X59078Y-250068D01*
X59009Y-250190D01*
X58938Y-250310D01*
X58863Y-250428D01*
X58785Y-250545D01*
X58703Y-250659D01*
X58619Y-250770D01*
X58531Y-250879D01*
X58441Y-250986D01*
X58347Y-251091D01*
X58251Y-251192D01*
X58152Y-251291D01*
X58051Y-251387D01*
X57946Y-251481D01*
X57839Y-251571D01*
X57730Y-251659D01*
X57619Y-251743D01*
X57505Y-251825D01*
X57388Y-251903D01*
X57270Y-251978D01*
X57150Y-252049D01*
X57028Y-252118D01*
X56904Y-252183D01*
X56778Y-252244D01*
X56651Y-252302D01*
X56522Y-252357D01*
X56391Y-252407D01*
X56259Y-252455D01*
X56126Y-252498D01*
X55992Y-252538D01*
X55857Y-252575D01*
X55721Y-252607D01*
X55584Y-252636D01*
X55446Y-252661D01*
X55308Y-252682D01*
X55169Y-252699D01*
X55030Y-252713D01*
X54890Y-252722D01*
X54750Y-252728D01*
X54610Y-252730D01*
D12*
X35052Y-241300D02*
X35052Y-233680D01*
X35052Y-241300D02*
X35052Y-248920D01*
X41402Y-241300D02*
X41402Y-233680D01*
X41402Y-241300D02*
X41402Y-248920D01*
D10*
X41402Y-241300D02*
X50800Y-241300D01*
X35052Y-241300D02*
X25400Y-241300D01*
D11*
X22225Y-226695D02*
X19685Y-226695D01*
X19585Y-226693D01*
X19486Y-226687D01*
X19386Y-226677D01*
X19288Y-226664D01*
X19189Y-226646D01*
X19092Y-226625D01*
X18996Y-226600D01*
X18900Y-226571D01*
X18806Y-226538D01*
X18713Y-226502D01*
X18622Y-226462D01*
X18532Y-226418D01*
X18444Y-226371D01*
X18358Y-226321D01*
X18274Y-226267D01*
X18192Y-226210D01*
X18113Y-226150D01*
X18035Y-226086D01*
X17961Y-226020D01*
X17889Y-225951D01*
X17820Y-225879D01*
X17754Y-225805D01*
X17690Y-225727D01*
X17630Y-225648D01*
X17573Y-225566D01*
X17519Y-225482D01*
X17469Y-225396D01*
X17422Y-225308D01*
X17378Y-225218D01*
X17338Y-225127D01*
X17302Y-225034D01*
X17269Y-224940D01*
X17240Y-224844D01*
X17215Y-224748D01*
X17194Y-224651D01*
X17176Y-224552D01*
X17163Y-224454D01*
X17153Y-224354D01*
X17147Y-224255D01*
X17145Y-224155D01*
X17145Y-217805D01*
X17147Y-217705D01*
X17153Y-217606D01*
X17163Y-217506D01*
X17176Y-217408D01*
X17194Y-217309D01*
X17215Y-217212D01*
X17240Y-217116D01*
X17269Y-217020D01*
X17302Y-216926D01*
X17338Y-216833D01*
X17378Y-216742D01*
X17422Y-216652D01*
X17469Y-216564D01*
X17519Y-216478D01*
X17573Y-216394D01*
X17630Y-216312D01*
X17690Y-216233D01*
X17754Y-216155D01*
X17820Y-216081D01*
X17889Y-216009D01*
X17961Y-215940D01*
X18035Y-215874D01*
X18113Y-215810D01*
X18192Y-215750D01*
X18274Y-215693D01*
X18358Y-215639D01*
X18444Y-215589D01*
X18532Y-215542D01*
X18622Y-215498D01*
X18713Y-215458D01*
X18806Y-215422D01*
X18900Y-215389D01*
X18996Y-215360D01*
X19092Y-215335D01*
X19189Y-215314D01*
X19288Y-215296D01*
X19386Y-215283D01*
X19486Y-215273D01*
X19585Y-215267D01*
X19685Y-215265D01*
X22225Y-215265D01*
X26707Y-217805D02*
X29882Y-215265D01*
X29882Y-226695D01*
X26707Y-226695D02*
X33057Y-226695D01*
D10*
X127000Y-196850D02*
X133350Y-203200D01*
X146050Y-203200D02*
X152400Y-196850D01*
X158750Y-203200D01*
X171450Y-203200D02*
X177800Y-196850D01*
X127000Y-196850D02*
X127000Y-158750D01*
X133350Y-152400D01*
X146050Y-152400D01*
X152400Y-158750D01*
X158750Y-152400D01*
X171450Y-152400D01*
X177800Y-158750D01*
X152400Y-158750D02*
X152400Y-196850D01*
X177800Y-196850D02*
X177800Y-158750D01*
X171450Y-203200D02*
X158750Y-203200D01*
X146050Y-203200D02*
X133350Y-203200D01*
X177800Y-196850D02*
X184150Y-203200D01*
X196850Y-203200D02*
X203200Y-196850D01*
X177800Y-158750D02*
X184150Y-152400D01*
X196850Y-152400D01*
X203200Y-158750D01*
X203200Y-196850D01*
X196850Y-203200D02*
X184150Y-203200D01*
D11*
X128905Y-145415D02*
X128905Y-133985D01*
X127635Y-145415D02*
X130175Y-145415D01*
X130175Y-133985D02*
X127635Y-133985D01*
X137377Y-145415D02*
X139917Y-145415D01*
X137377Y-145415D02*
X137277Y-145413D01*
X137178Y-145407D01*
X137078Y-145397D01*
X136980Y-145384D01*
X136881Y-145366D01*
X136784Y-145345D01*
X136688Y-145320D01*
X136592Y-145291D01*
X136498Y-145258D01*
X136405Y-145222D01*
X136314Y-145182D01*
X136224Y-145138D01*
X136136Y-145091D01*
X136050Y-145041D01*
X135966Y-144987D01*
X135884Y-144930D01*
X135805Y-144870D01*
X135727Y-144806D01*
X135653Y-144740D01*
X135581Y-144671D01*
X135512Y-144599D01*
X135446Y-144525D01*
X135382Y-144447D01*
X135322Y-144368D01*
X135265Y-144286D01*
X135211Y-144202D01*
X135161Y-144116D01*
X135114Y-144028D01*
X135070Y-143938D01*
X135030Y-143847D01*
X134994Y-143754D01*
X134961Y-143660D01*
X134932Y-143564D01*
X134907Y-143468D01*
X134886Y-143371D01*
X134868Y-143272D01*
X134855Y-143174D01*
X134845Y-143074D01*
X134839Y-142975D01*
X134837Y-142875D01*
X134837Y-136525D01*
X134839Y-136425D01*
X134845Y-136326D01*
X134855Y-136226D01*
X134868Y-136128D01*
X134886Y-136029D01*
X134907Y-135932D01*
X134932Y-135836D01*
X134961Y-135740D01*
X134994Y-135646D01*
X135030Y-135553D01*
X135070Y-135462D01*
X135114Y-135372D01*
X135161Y-135284D01*
X135211Y-135198D01*
X135265Y-135114D01*
X135322Y-135032D01*
X135382Y-134953D01*
X135446Y-134875D01*
X135512Y-134801D01*
X135581Y-134729D01*
X135653Y-134660D01*
X135727Y-134594D01*
X135805Y-134530D01*
X135884Y-134470D01*
X135966Y-134413D01*
X136050Y-134359D01*
X136136Y-134309D01*
X136224Y-134262D01*
X136314Y-134218D01*
X136405Y-134178D01*
X136498Y-134142D01*
X136592Y-134109D01*
X136688Y-134080D01*
X136784Y-134055D01*
X136881Y-134034D01*
X136980Y-134016D01*
X137078Y-134003D01*
X137178Y-133993D01*
X137277Y-133987D01*
X137377Y-133985D01*
X139917Y-133985D01*
X150368Y-142875D02*
X150366Y-142975D01*
X150360Y-143074D01*
X150350Y-143174D01*
X150337Y-143272D01*
X150319Y-143371D01*
X150298Y-143468D01*
X150273Y-143564D01*
X150244Y-143660D01*
X150211Y-143754D01*
X150175Y-143847D01*
X150135Y-143938D01*
X150091Y-144028D01*
X150044Y-144116D01*
X149994Y-144202D01*
X149940Y-144286D01*
X149883Y-144368D01*
X149823Y-144447D01*
X149759Y-144525D01*
X149693Y-144599D01*
X149624Y-144671D01*
X149552Y-144740D01*
X149478Y-144806D01*
X149400Y-144870D01*
X149321Y-144930D01*
X149239Y-144987D01*
X149155Y-145041D01*
X149069Y-145091D01*
X148981Y-145138D01*
X148891Y-145182D01*
X148800Y-145222D01*
X148707Y-145258D01*
X148613Y-145291D01*
X148517Y-145320D01*
X148421Y-145345D01*
X148324Y-145366D01*
X148225Y-145384D01*
X148127Y-145397D01*
X148027Y-145407D01*
X147928Y-145413D01*
X147828Y-145415D01*
X147687Y-145413D01*
X147546Y-145408D01*
X147405Y-145398D01*
X147264Y-145385D01*
X147124Y-145369D01*
X146984Y-145348D01*
X146845Y-145324D01*
X146706Y-145296D01*
X146569Y-145265D01*
X146432Y-145230D01*
X146296Y-145192D01*
X146161Y-145150D01*
X146028Y-145104D01*
X145895Y-145055D01*
X145764Y-145002D01*
X145635Y-144946D01*
X145506Y-144887D01*
X145380Y-144824D01*
X145255Y-144758D01*
X145132Y-144689D01*
X145011Y-144616D01*
X144892Y-144540D01*
X144774Y-144461D01*
X144659Y-144380D01*
X144547Y-144295D01*
X144436Y-144207D01*
X144328Y-144116D01*
X144222Y-144023D01*
X144119Y-143926D01*
X144018Y-143827D01*
X144335Y-136525D02*
X144337Y-136425D01*
X144343Y-136326D01*
X144353Y-136226D01*
X144366Y-136128D01*
X144384Y-136029D01*
X144405Y-135932D01*
X144430Y-135836D01*
X144459Y-135740D01*
X144492Y-135646D01*
X144528Y-135553D01*
X144568Y-135462D01*
X144612Y-135372D01*
X144659Y-135284D01*
X144709Y-135198D01*
X144763Y-135114D01*
X144820Y-135032D01*
X144880Y-134953D01*
X144944Y-134875D01*
X145010Y-134801D01*
X145079Y-134729D01*
X145151Y-134660D01*
X145225Y-134594D01*
X145303Y-134530D01*
X145382Y-134470D01*
X145464Y-134413D01*
X145548Y-134359D01*
X145634Y-134309D01*
X145722Y-134262D01*
X145812Y-134218D01*
X145903Y-134178D01*
X145996Y-134142D01*
X146090Y-134109D01*
X146186Y-134080D01*
X146282Y-134055D01*
X146379Y-134034D01*
X146478Y-134016D01*
X146576Y-134003D01*
X146676Y-133993D01*
X146775Y-133987D01*
X146875Y-133985D01*
X147008Y-133987D01*
X147141Y-133992D01*
X147274Y-134002D01*
X147407Y-134015D01*
X147539Y-134032D01*
X147671Y-134052D01*
X147802Y-134076D01*
X147932Y-134104D01*
X148062Y-134135D01*
X148190Y-134170D01*
X148318Y-134209D01*
X148444Y-134251D01*
X148569Y-134297D01*
X148693Y-134346D01*
X148816Y-134398D01*
X148937Y-134454D01*
X149056Y-134514D01*
X149174Y-134576D01*
X149289Y-134642D01*
X149403Y-134711D01*
X149515Y-134784D01*
X149625Y-134859D01*
X149733Y-134938D01*
X145605Y-138748D02*
X145521Y-138696D01*
X145438Y-138641D01*
X145358Y-138582D01*
X145280Y-138521D01*
X145205Y-138457D01*
X145132Y-138389D01*
X145061Y-138319D01*
X144994Y-138247D01*
X144929Y-138172D01*
X144867Y-138094D01*
X144808Y-138014D01*
X144752Y-137932D01*
X144700Y-137848D01*
X144651Y-137762D01*
X144605Y-137674D01*
X144562Y-137584D01*
X144523Y-137493D01*
X144488Y-137400D01*
X144456Y-137306D01*
X144428Y-137211D01*
X144403Y-137115D01*
X144383Y-137018D01*
X144365Y-136920D01*
X144352Y-136822D01*
X144343Y-136723D01*
X144337Y-136624D01*
X144335Y-136525D01*
X149098Y-140652D02*
X149182Y-140704D01*
X149265Y-140759D01*
X149345Y-140818D01*
X149423Y-140879D01*
X149498Y-140943D01*
X149571Y-141011D01*
X149642Y-141081D01*
X149709Y-141153D01*
X149774Y-141228D01*
X149836Y-141306D01*
X149895Y-141386D01*
X149951Y-141468D01*
X150003Y-141552D01*
X150052Y-141638D01*
X150098Y-141726D01*
X150141Y-141816D01*
X150180Y-141907D01*
X150215Y-142000D01*
X150247Y-142094D01*
X150275Y-142189D01*
X150300Y-142285D01*
X150320Y-142382D01*
X150338Y-142480D01*
X150351Y-142578D01*
X150360Y-142677D01*
X150366Y-142776D01*
X150368Y-142875D01*
X149098Y-140653D02*
X145605Y-138748D01*
X155638Y-133985D02*
X155638Y-145415D01*
X155638Y-133985D02*
X158813Y-133985D01*
X158924Y-133987D01*
X159034Y-133993D01*
X159145Y-134002D01*
X159255Y-134016D01*
X159364Y-134033D01*
X159473Y-134054D01*
X159581Y-134079D01*
X159688Y-134108D01*
X159794Y-134140D01*
X159899Y-134176D01*
X160002Y-134216D01*
X160104Y-134259D01*
X160205Y-134306D01*
X160304Y-134357D01*
X160401Y-134410D01*
X160495Y-134467D01*
X160588Y-134528D01*
X160679Y-134591D01*
X160768Y-134658D01*
X160854Y-134728D01*
X160937Y-134801D01*
X161019Y-134876D01*
X161097Y-134954D01*
X161172Y-135036D01*
X161245Y-135119D01*
X161315Y-135205D01*
X161382Y-135294D01*
X161445Y-135385D01*
X161506Y-135478D01*
X161563Y-135573D01*
X161616Y-135669D01*
X161667Y-135768D01*
X161714Y-135869D01*
X161757Y-135971D01*
X161797Y-136074D01*
X161833Y-136179D01*
X161865Y-136285D01*
X161894Y-136392D01*
X161919Y-136500D01*
X161940Y-136609D01*
X161957Y-136718D01*
X161971Y-136828D01*
X161980Y-136939D01*
X161986Y-137049D01*
X161988Y-137160D01*
X161986Y-137271D01*
X161980Y-137381D01*
X161971Y-137492D01*
X161957Y-137602D01*
X161940Y-137711D01*
X161919Y-137820D01*
X161894Y-137928D01*
X161865Y-138035D01*
X161833Y-138141D01*
X161797Y-138246D01*
X161757Y-138349D01*
X161714Y-138451D01*
X161667Y-138552D01*
X161616Y-138651D01*
X161563Y-138748D01*
X161506Y-138842D01*
X161445Y-138935D01*
X161382Y-139026D01*
X161315Y-139115D01*
X161245Y-139201D01*
X161172Y-139284D01*
X161097Y-139366D01*
X161019Y-139444D01*
X160937Y-139519D01*
X160854Y-139592D01*
X160768Y-139662D01*
X160679Y-139729D01*
X160588Y-139792D01*
X160495Y-139853D01*
X160400Y-139910D01*
X160304Y-139963D01*
X160205Y-140014D01*
X160104Y-140061D01*
X160002Y-140104D01*
X159899Y-140144D01*
X159794Y-140180D01*
X159688Y-140212D01*
X159581Y-140241D01*
X159473Y-140266D01*
X159364Y-140287D01*
X159255Y-140304D01*
X159145Y-140318D01*
X159034Y-140327D01*
X158924Y-140333D01*
X158813Y-140335D01*
X155638Y-140335D01*
D10*
X27940Y-294640D02*
X27840Y-294642D01*
X27741Y-294648D01*
X27641Y-294658D01*
X27543Y-294671D01*
X27444Y-294689D01*
X27347Y-294710D01*
X27251Y-294735D01*
X27155Y-294764D01*
X27061Y-294797D01*
X26968Y-294833D01*
X26877Y-294873D01*
X26787Y-294917D01*
X26699Y-294964D01*
X26613Y-295014D01*
X26529Y-295068D01*
X26447Y-295125D01*
X26368Y-295185D01*
X26290Y-295249D01*
X26216Y-295315D01*
X26144Y-295384D01*
X26075Y-295456D01*
X26009Y-295530D01*
X25945Y-295608D01*
X25885Y-295687D01*
X25828Y-295769D01*
X25774Y-295853D01*
X25724Y-295939D01*
X25677Y-296027D01*
X25633Y-296117D01*
X25593Y-296208D01*
X25557Y-296301D01*
X25524Y-296395D01*
X25495Y-296491D01*
X25470Y-296587D01*
X25449Y-296684D01*
X25431Y-296783D01*
X25418Y-296881D01*
X25408Y-296981D01*
X25402Y-297080D01*
X25400Y-297180D01*
X25400Y-312420D02*
X25402Y-312520D01*
X25408Y-312619D01*
X25418Y-312719D01*
X25431Y-312817D01*
X25449Y-312916D01*
X25470Y-313013D01*
X25495Y-313109D01*
X25524Y-313205D01*
X25557Y-313299D01*
X25593Y-313392D01*
X25633Y-313483D01*
X25677Y-313573D01*
X25724Y-313661D01*
X25774Y-313747D01*
X25828Y-313831D01*
X25885Y-313913D01*
X25945Y-313992D01*
X26009Y-314070D01*
X26075Y-314144D01*
X26144Y-314216D01*
X26216Y-314285D01*
X26290Y-314351D01*
X26368Y-314415D01*
X26447Y-314475D01*
X26529Y-314532D01*
X26613Y-314586D01*
X26699Y-314636D01*
X26787Y-314683D01*
X26877Y-314727D01*
X26968Y-314767D01*
X27061Y-314803D01*
X27155Y-314836D01*
X27251Y-314865D01*
X27347Y-314890D01*
X27444Y-314911D01*
X27543Y-314929D01*
X27641Y-314942D01*
X27741Y-314952D01*
X27840Y-314958D01*
X27940Y-314960D01*
X73660Y-314960D02*
X73760Y-314958D01*
X73859Y-314952D01*
X73959Y-314942D01*
X74057Y-314929D01*
X74156Y-314911D01*
X74253Y-314890D01*
X74349Y-314865D01*
X74445Y-314836D01*
X74539Y-314803D01*
X74632Y-314767D01*
X74723Y-314727D01*
X74813Y-314683D01*
X74901Y-314636D01*
X74987Y-314586D01*
X75071Y-314532D01*
X75153Y-314475D01*
X75232Y-314415D01*
X75310Y-314351D01*
X75384Y-314285D01*
X75456Y-314216D01*
X75525Y-314144D01*
X75591Y-314070D01*
X75655Y-313992D01*
X75715Y-313913D01*
X75772Y-313831D01*
X75826Y-313747D01*
X75876Y-313661D01*
X75923Y-313573D01*
X75967Y-313483D01*
X76007Y-313392D01*
X76043Y-313299D01*
X76076Y-313205D01*
X76105Y-313109D01*
X76130Y-313013D01*
X76151Y-312916D01*
X76169Y-312817D01*
X76182Y-312719D01*
X76192Y-312619D01*
X76198Y-312520D01*
X76200Y-312420D01*
X76200Y-297180D02*
X76198Y-297080D01*
X76192Y-296981D01*
X76182Y-296881D01*
X76169Y-296783D01*
X76151Y-296684D01*
X76130Y-296587D01*
X76105Y-296491D01*
X76076Y-296395D01*
X76043Y-296301D01*
X76007Y-296208D01*
X75967Y-296117D01*
X75923Y-296027D01*
X75876Y-295939D01*
X75826Y-295853D01*
X75772Y-295769D01*
X75715Y-295687D01*
X75655Y-295608D01*
X75591Y-295530D01*
X75525Y-295456D01*
X75456Y-295384D01*
X75384Y-295315D01*
X75310Y-295249D01*
X75232Y-295185D01*
X75153Y-295125D01*
X75071Y-295068D01*
X74987Y-295014D01*
X74901Y-294964D01*
X74813Y-294917D01*
X74723Y-294873D01*
X74632Y-294833D01*
X74539Y-294797D01*
X74445Y-294764D01*
X74349Y-294735D01*
X74253Y-294710D01*
X74156Y-294689D01*
X74057Y-294671D01*
X73959Y-294658D01*
X73859Y-294648D01*
X73760Y-294642D01*
X73660Y-294640D01*
X25400Y-297180D02*
X25400Y-312420D01*
X27940Y-294640D02*
X31750Y-294640D01*
X33020Y-295910D01*
X31750Y-314960D02*
X27940Y-314960D01*
X31750Y-314960D02*
X33020Y-313690D01*
X68580Y-295910D02*
X69850Y-294640D01*
X68580Y-295910D02*
X33020Y-295910D01*
X68580Y-313690D02*
X69850Y-314960D01*
X68580Y-313690D02*
X33020Y-313690D01*
X69850Y-294640D02*
X73660Y-294640D01*
X73660Y-314960D02*
X69850Y-314960D01*
X76200Y-312420D02*
X76200Y-297180D01*
D13*
X78105Y-304800D03*
X23495Y-304800D03*
D14*
X25908Y-291338D02*
X25908Y-282448D01*
X28377Y-282448D01*
X28475Y-282450D01*
X28573Y-282456D01*
X28671Y-282466D01*
X28768Y-282479D01*
X28865Y-282497D01*
X28961Y-282518D01*
X29055Y-282543D01*
X29149Y-282572D01*
X29242Y-282604D01*
X29333Y-282641D01*
X29423Y-282680D01*
X29511Y-282724D01*
X29597Y-282771D01*
X29682Y-282821D01*
X29764Y-282874D01*
X29844Y-282931D01*
X29922Y-282991D01*
X29997Y-283054D01*
X30070Y-283120D01*
X30140Y-283189D01*
X30207Y-283260D01*
X30272Y-283334D01*
X30333Y-283411D01*
X30392Y-283490D01*
X30447Y-283571D01*
X30499Y-283654D01*
X30547Y-283740D01*
X30592Y-283827D01*
X30634Y-283916D01*
X30672Y-284006D01*
X30706Y-284098D01*
X30737Y-284191D01*
X30764Y-284286D01*
X30787Y-284381D01*
X30807Y-284478D01*
X30822Y-284574D01*
X30834Y-284672D01*
X30842Y-284770D01*
X30846Y-284868D01*
X30846Y-284966D01*
X30842Y-285064D01*
X30834Y-285162D01*
X30822Y-285260D01*
X30807Y-285356D01*
X30787Y-285453D01*
X30764Y-285548D01*
X30737Y-285643D01*
X30706Y-285736D01*
X30672Y-285828D01*
X30634Y-285918D01*
X30592Y-286007D01*
X30547Y-286094D01*
X30499Y-286180D01*
X30447Y-286263D01*
X30392Y-286344D01*
X30333Y-286423D01*
X30272Y-286500D01*
X30207Y-286574D01*
X30140Y-286645D01*
X30070Y-286714D01*
X29997Y-286780D01*
X29922Y-286843D01*
X29844Y-286903D01*
X29764Y-286960D01*
X29682Y-287013D01*
X29597Y-287063D01*
X29511Y-287110D01*
X29423Y-287154D01*
X29333Y-287193D01*
X29242Y-287230D01*
X29149Y-287262D01*
X29055Y-287291D01*
X28961Y-287316D01*
X28865Y-287337D01*
X28768Y-287355D01*
X28671Y-287368D01*
X28573Y-287378D01*
X28475Y-287384D01*
X28377Y-287386D01*
X28377Y-287387D02*
X25908Y-287387D01*
X28871Y-287387D02*
X30847Y-291338D01*
X34758Y-284424D02*
X37227Y-282448D01*
X37227Y-291338D01*
X34758Y-291338D02*
X39697Y-291338D01*
X43673Y-289362D02*
X45649Y-282448D01*
X43673Y-289362D02*
X48612Y-289362D01*
X47130Y-287387D02*
X47130Y-291338D01*
D10*
X19050Y-203200D02*
X12700Y-196850D01*
X31750Y-203200D02*
X38100Y-196850D01*
X44450Y-203200D01*
X57150Y-203200D02*
X63500Y-196850D01*
X69850Y-203200D01*
X82550Y-203200D02*
X88900Y-196850D01*
X12700Y-196850D02*
X12700Y-158750D01*
X19050Y-152400D01*
X31750Y-152400D01*
X38100Y-158750D01*
X44450Y-152400D01*
X57150Y-152400D01*
X63500Y-158750D01*
X69850Y-152400D01*
X82550Y-152400D01*
X88900Y-158750D01*
X38100Y-158750D02*
X38100Y-196850D01*
X63500Y-196850D02*
X63500Y-158750D01*
X88900Y-158750D02*
X88900Y-196850D01*
X82550Y-203200D02*
X69850Y-203200D01*
X57150Y-203200D02*
X44450Y-203200D01*
X31750Y-203200D02*
X19050Y-203200D01*
X88900Y-196850D02*
X95250Y-203200D01*
X107950Y-203200D02*
X114300Y-196850D01*
X88900Y-158750D02*
X95250Y-152400D01*
X107950Y-152400D01*
X114300Y-158750D01*
X114300Y-196850D01*
X107950Y-203200D02*
X95250Y-203200D01*
D11*
X14605Y-145415D02*
X14605Y-133985D01*
X13335Y-145415D02*
X15875Y-145415D01*
X15875Y-133985D02*
X13335Y-133985D01*
X20955Y-133985D02*
X20955Y-145415D01*
X27305Y-145415D02*
X20955Y-133985D01*
X27305Y-133985D02*
X27305Y-145415D01*
X33338Y-145415D02*
X33338Y-133985D01*
X36513Y-133985D01*
X36624Y-133987D01*
X36734Y-133993D01*
X36845Y-134002D01*
X36955Y-134016D01*
X37064Y-134033D01*
X37173Y-134054D01*
X37281Y-134079D01*
X37388Y-134108D01*
X37494Y-134140D01*
X37599Y-134176D01*
X37702Y-134216D01*
X37804Y-134259D01*
X37905Y-134306D01*
X38004Y-134357D01*
X38101Y-134410D01*
X38195Y-134467D01*
X38288Y-134528D01*
X38379Y-134591D01*
X38468Y-134658D01*
X38554Y-134728D01*
X38637Y-134801D01*
X38719Y-134876D01*
X38797Y-134954D01*
X38872Y-135036D01*
X38945Y-135119D01*
X39015Y-135205D01*
X39082Y-135294D01*
X39145Y-135385D01*
X39206Y-135478D01*
X39263Y-135573D01*
X39316Y-135669D01*
X39367Y-135768D01*
X39414Y-135869D01*
X39457Y-135971D01*
X39497Y-136074D01*
X39533Y-136179D01*
X39565Y-136285D01*
X39594Y-136392D01*
X39619Y-136500D01*
X39640Y-136609D01*
X39657Y-136718D01*
X39671Y-136828D01*
X39680Y-136939D01*
X39686Y-137049D01*
X39688Y-137160D01*
X39686Y-137271D01*
X39680Y-137381D01*
X39671Y-137492D01*
X39657Y-137602D01*
X39640Y-137711D01*
X39619Y-137820D01*
X39594Y-137928D01*
X39565Y-138035D01*
X39533Y-138141D01*
X39497Y-138246D01*
X39457Y-138349D01*
X39414Y-138451D01*
X39367Y-138552D01*
X39316Y-138651D01*
X39263Y-138748D01*
X39206Y-138842D01*
X39145Y-138935D01*
X39082Y-139026D01*
X39015Y-139115D01*
X38945Y-139201D01*
X38872Y-139284D01*
X38797Y-139366D01*
X38719Y-139444D01*
X38637Y-139519D01*
X38554Y-139592D01*
X38468Y-139662D01*
X38379Y-139729D01*
X38288Y-139792D01*
X38195Y-139853D01*
X38100Y-139910D01*
X38004Y-139963D01*
X37905Y-140014D01*
X37804Y-140061D01*
X37702Y-140104D01*
X37599Y-140144D01*
X37494Y-140180D01*
X37388Y-140212D01*
X37281Y-140241D01*
X37173Y-140266D01*
X37064Y-140287D01*
X36955Y-140304D01*
X36845Y-140318D01*
X36734Y-140327D01*
X36624Y-140333D01*
X36513Y-140335D01*
X33338Y-140335D01*
X44577Y-142240D02*
X44577Y-133985D01*
X44577Y-142240D02*
X44579Y-142351D01*
X44585Y-142461D01*
X44594Y-142572D01*
X44608Y-142682D01*
X44625Y-142791D01*
X44646Y-142900D01*
X44671Y-143008D01*
X44700Y-143115D01*
X44732Y-143221D01*
X44768Y-143326D01*
X44808Y-143429D01*
X44851Y-143531D01*
X44898Y-143632D01*
X44949Y-143731D01*
X45002Y-143828D01*
X45059Y-143922D01*
X45120Y-144015D01*
X45183Y-144106D01*
X45250Y-144195D01*
X45320Y-144281D01*
X45393Y-144364D01*
X45468Y-144446D01*
X45546Y-144524D01*
X45628Y-144599D01*
X45711Y-144672D01*
X45797Y-144742D01*
X45886Y-144809D01*
X45977Y-144872D01*
X46070Y-144933D01*
X46164Y-144990D01*
X46261Y-145043D01*
X46360Y-145094D01*
X46461Y-145141D01*
X46563Y-145184D01*
X46666Y-145224D01*
X46771Y-145260D01*
X46877Y-145292D01*
X46984Y-145321D01*
X47092Y-145346D01*
X47201Y-145367D01*
X47310Y-145384D01*
X47420Y-145398D01*
X47531Y-145407D01*
X47641Y-145413D01*
X47752Y-145415D01*
X47863Y-145413D01*
X47973Y-145407D01*
X48084Y-145398D01*
X48194Y-145384D01*
X48303Y-145367D01*
X48412Y-145346D01*
X48520Y-145321D01*
X48627Y-145292D01*
X48733Y-145260D01*
X48838Y-145224D01*
X48941Y-145184D01*
X49043Y-145141D01*
X49144Y-145094D01*
X49243Y-145043D01*
X49339Y-144990D01*
X49434Y-144933D01*
X49527Y-144872D01*
X49618Y-144809D01*
X49707Y-144742D01*
X49793Y-144672D01*
X49876Y-144599D01*
X49958Y-144524D01*
X50036Y-144446D01*
X50111Y-144364D01*
X50184Y-144281D01*
X50254Y-144195D01*
X50321Y-144106D01*
X50384Y-144015D01*
X50445Y-143922D01*
X50502Y-143828D01*
X50555Y-143731D01*
X50606Y-143632D01*
X50653Y-143531D01*
X50696Y-143429D01*
X50736Y-143326D01*
X50772Y-143221D01*
X50804Y-143115D01*
X50833Y-143008D01*
X50858Y-142900D01*
X50879Y-142791D01*
X50896Y-142682D01*
X50910Y-142572D01*
X50919Y-142461D01*
X50925Y-142351D01*
X50927Y-142240D01*
X50927Y-133985D01*
X58801Y-133985D02*
X58801Y-145415D01*
X55626Y-133985D02*
X61976Y-133985D01*
D10*
X95250Y-228600D02*
X107950Y-228600D01*
X114300Y-234950D01*
X114300Y-247650D01*
X107950Y-254000D01*
X88900Y-247650D02*
X88900Y-234950D01*
X95250Y-228600D01*
X88900Y-247650D02*
X95250Y-254000D01*
X107950Y-254000D01*
X114300Y-234950D02*
X120650Y-228600D01*
X133350Y-228600D01*
X139700Y-234950D01*
X139700Y-247650D01*
X133350Y-254000D01*
X120650Y-254000D01*
X114300Y-247650D01*
D11*
X92583Y-219837D02*
X92583Y-210947D01*
X92583Y-219837D02*
X92581Y-219937D01*
X92575Y-220036D01*
X92565Y-220136D01*
X92552Y-220234D01*
X92534Y-220333D01*
X92513Y-220430D01*
X92488Y-220526D01*
X92459Y-220622D01*
X92426Y-220716D01*
X92390Y-220809D01*
X92350Y-220900D01*
X92306Y-220990D01*
X92259Y-221078D01*
X92209Y-221164D01*
X92155Y-221248D01*
X92098Y-221330D01*
X92038Y-221409D01*
X91974Y-221487D01*
X91908Y-221561D01*
X91839Y-221633D01*
X91767Y-221702D01*
X91693Y-221768D01*
X91615Y-221832D01*
X91536Y-221892D01*
X91454Y-221949D01*
X91370Y-222003D01*
X91284Y-222053D01*
X91196Y-222100D01*
X91106Y-222144D01*
X91015Y-222184D01*
X90922Y-222220D01*
X90828Y-222253D01*
X90732Y-222282D01*
X90636Y-222307D01*
X90539Y-222328D01*
X90440Y-222346D01*
X90342Y-222359D01*
X90242Y-222369D01*
X90143Y-222375D01*
X90043Y-222377D01*
X88773Y-222377D01*
X98563Y-222377D02*
X98563Y-210947D01*
X101738Y-210947D01*
X101849Y-210949D01*
X101959Y-210955D01*
X102070Y-210964D01*
X102180Y-210978D01*
X102289Y-210995D01*
X102398Y-211016D01*
X102506Y-211041D01*
X102613Y-211070D01*
X102719Y-211102D01*
X102824Y-211138D01*
X102927Y-211178D01*
X103029Y-211221D01*
X103130Y-211268D01*
X103229Y-211319D01*
X103326Y-211372D01*
X103420Y-211429D01*
X103513Y-211490D01*
X103604Y-211553D01*
X103693Y-211620D01*
X103779Y-211690D01*
X103862Y-211763D01*
X103944Y-211838D01*
X104022Y-211916D01*
X104097Y-211998D01*
X104170Y-212081D01*
X104240Y-212167D01*
X104307Y-212256D01*
X104370Y-212347D01*
X104431Y-212440D01*
X104488Y-212535D01*
X104541Y-212631D01*
X104592Y-212730D01*
X104639Y-212831D01*
X104682Y-212933D01*
X104722Y-213036D01*
X104758Y-213141D01*
X104790Y-213247D01*
X104819Y-213354D01*
X104844Y-213462D01*
X104865Y-213571D01*
X104882Y-213680D01*
X104896Y-213790D01*
X104905Y-213901D01*
X104911Y-214011D01*
X104913Y-214122D01*
X104911Y-214233D01*
X104905Y-214343D01*
X104896Y-214454D01*
X104882Y-214564D01*
X104865Y-214673D01*
X104844Y-214782D01*
X104819Y-214890D01*
X104790Y-214997D01*
X104758Y-215103D01*
X104722Y-215208D01*
X104682Y-215311D01*
X104639Y-215413D01*
X104592Y-215514D01*
X104541Y-215613D01*
X104488Y-215710D01*
X104431Y-215804D01*
X104370Y-215897D01*
X104307Y-215988D01*
X104240Y-216077D01*
X104170Y-216163D01*
X104097Y-216246D01*
X104022Y-216328D01*
X103944Y-216406D01*
X103862Y-216481D01*
X103779Y-216554D01*
X103693Y-216624D01*
X103604Y-216691D01*
X103513Y-216754D01*
X103420Y-216815D01*
X103325Y-216872D01*
X103229Y-216925D01*
X103130Y-216976D01*
X103029Y-217023D01*
X102927Y-217066D01*
X102824Y-217106D01*
X102719Y-217142D01*
X102613Y-217174D01*
X102506Y-217203D01*
X102398Y-217228D01*
X102289Y-217249D01*
X102180Y-217266D01*
X102070Y-217280D01*
X101959Y-217289D01*
X101849Y-217295D01*
X101738Y-217297D01*
X98563Y-217297D01*
X112914Y-210947D02*
X113018Y-210949D01*
X113123Y-210955D01*
X113227Y-210964D01*
X113330Y-210977D01*
X113433Y-210995D01*
X113535Y-211015D01*
X113637Y-211040D01*
X113737Y-211068D01*
X113837Y-211100D01*
X113935Y-211136D01*
X114032Y-211175D01*
X114127Y-211217D01*
X114221Y-211263D01*
X114313Y-211313D01*
X114403Y-211365D01*
X114491Y-211421D01*
X114577Y-211481D01*
X114661Y-211543D01*
X114742Y-211608D01*
X114821Y-211676D01*
X114898Y-211748D01*
X114971Y-211821D01*
X115043Y-211898D01*
X115111Y-211977D01*
X115176Y-212058D01*
X115238Y-212142D01*
X115298Y-212228D01*
X115354Y-212316D01*
X115406Y-212406D01*
X115456Y-212498D01*
X115502Y-212592D01*
X115544Y-212687D01*
X115583Y-212784D01*
X115619Y-212882D01*
X115651Y-212982D01*
X115679Y-213082D01*
X115704Y-213184D01*
X115724Y-213286D01*
X115742Y-213389D01*
X115755Y-213492D01*
X115764Y-213596D01*
X115770Y-213701D01*
X115772Y-213805D01*
X112914Y-210947D02*
X112796Y-210949D01*
X112677Y-210955D01*
X112559Y-210964D01*
X112442Y-210977D01*
X112325Y-210995D01*
X112208Y-211015D01*
X112092Y-211040D01*
X111977Y-211068D01*
X111864Y-211101D01*
X111751Y-211136D01*
X111639Y-211176D01*
X111529Y-211218D01*
X111420Y-211265D01*
X111312Y-211315D01*
X111207Y-211368D01*
X111103Y-211425D01*
X111001Y-211485D01*
X110901Y-211548D01*
X110803Y-211615D01*
X110707Y-211684D01*
X110614Y-211757D01*
X110523Y-211833D01*
X110434Y-211911D01*
X110348Y-211993D01*
X110265Y-212077D01*
X110184Y-212163D01*
X110107Y-212253D01*
X110032Y-212344D01*
X109960Y-212438D01*
X109891Y-212535D01*
X109826Y-212633D01*
X109763Y-212734D01*
X109704Y-212837D01*
X109648Y-212941D01*
X109596Y-213047D01*
X109547Y-213155D01*
X109502Y-213264D01*
X109460Y-213375D01*
X109422Y-213487D01*
X114820Y-216027D02*
X114896Y-215952D01*
X114971Y-215873D01*
X115042Y-215792D01*
X115111Y-215708D01*
X115176Y-215622D01*
X115238Y-215534D01*
X115298Y-215444D01*
X115354Y-215352D01*
X115407Y-215257D01*
X115456Y-215161D01*
X115502Y-215063D01*
X115545Y-214964D01*
X115584Y-214863D01*
X115619Y-214761D01*
X115651Y-214658D01*
X115679Y-214554D01*
X115704Y-214449D01*
X115725Y-214342D01*
X115742Y-214236D01*
X115755Y-214129D01*
X115764Y-214021D01*
X115770Y-213913D01*
X115772Y-213805D01*
X114819Y-216027D02*
X109422Y-222377D01*
X115772Y-222377D01*
X203200Y-361950D02*
X25400Y-361950D01*
X203200Y-361950D02*
X203200Y-425450D01*
X25400Y-425450D02*
X25400Y-361950D01*
X25400Y-349250D02*
X12700Y-349250D01*
X168910Y-438150D02*
X215900Y-438150D01*
X215900Y-349250D01*
X12700Y-349250D02*
X12700Y-438150D01*
X160020Y-425450D02*
X203200Y-425450D01*
X134620Y-417830D02*
X93980Y-417830D01*
X93980Y-425450D01*
X25400Y-425450D01*
X93980Y-425450D02*
X93980Y-427990D01*
X134620Y-425450D02*
X134620Y-417830D01*
X134620Y-425450D02*
X134620Y-427990D01*
X203200Y-349250D02*
X203200Y-346710D01*
X190500Y-346710D01*
X190500Y-349250D01*
X203200Y-349250D02*
X215900Y-349250D01*
X120650Y-346710D02*
X107950Y-346710D01*
X120650Y-346710D02*
X120650Y-349250D01*
X190500Y-349250D01*
X107950Y-349250D02*
X107950Y-346710D01*
X38100Y-346710D02*
X25400Y-346710D01*
X25400Y-349250D01*
X38100Y-349250D02*
X38100Y-346710D01*
X38100Y-349250D02*
X107950Y-349250D01*
X134620Y-438150D02*
X135890Y-438150D01*
X134620Y-438150D02*
X93980Y-438150D01*
X144780Y-427990D02*
X144780Y-425450D01*
X134620Y-425450D01*
X160020Y-425450D02*
X160020Y-427990D01*
X160020Y-425450D02*
X144780Y-425450D01*
X139700Y-433070D02*
X135890Y-438150D01*
X165100Y-433070D02*
X168910Y-438150D01*
X165100Y-433070D02*
X160020Y-433070D01*
D15*
X144780Y-427990D02*
X134620Y-427990D01*
D11*
X134620Y-438150D01*
D15*
X160020Y-427990D02*
X205740Y-427990D01*
X205740Y-359410D01*
X22860Y-359410D01*
X22860Y-427990D01*
X93980Y-427990D01*
D11*
X93980Y-438150D01*
X144780Y-433070D02*
X144780Y-427990D01*
X144780Y-433070D02*
X139700Y-433070D01*
X160020Y-433070D02*
X160020Y-427990D01*
X160020Y-433070D02*
X144780Y-433070D01*
X93980Y-438150D02*
X69850Y-438150D01*
X69850Y-436880D01*
X57150Y-436880D01*
X57150Y-438150D01*
X12700Y-438150D01*
X104775Y-424815D02*
X107950Y-422275D01*
X107950Y-433705D01*
X104775Y-433705D02*
X111125Y-433705D01*
X116205Y-427990D02*
X116208Y-427765D01*
X116216Y-427540D01*
X116229Y-427316D01*
X116248Y-427092D01*
X116272Y-426868D01*
X116301Y-426645D01*
X116336Y-426423D01*
X116376Y-426202D01*
X116422Y-425982D01*
X116472Y-425763D01*
X116528Y-425545D01*
X116589Y-425328D01*
X116655Y-425113D01*
X116726Y-424900D01*
X116803Y-424689D01*
X116884Y-424479D01*
X116970Y-424271D01*
X117061Y-424066D01*
X117157Y-423863D01*
X117189Y-423775D01*
X117225Y-423688D01*
X117264Y-423602D01*
X117307Y-423518D01*
X117353Y-423436D01*
X117402Y-423356D01*
X117454Y-423278D01*
X117510Y-423202D01*
X117568Y-423128D01*
X117630Y-423057D01*
X117694Y-422988D01*
X117761Y-422922D01*
X117830Y-422859D01*
X117902Y-422798D01*
X117976Y-422740D01*
X118053Y-422686D01*
X118131Y-422634D01*
X118212Y-422586D01*
X118294Y-422541D01*
X118379Y-422499D01*
X118465Y-422461D01*
X118552Y-422426D01*
X118640Y-422394D01*
X118730Y-422367D01*
X118821Y-422342D01*
X118913Y-422322D01*
X119005Y-422305D01*
X119099Y-422292D01*
X119192Y-422283D01*
X119286Y-422277D01*
X119380Y-422275D01*
X119474Y-422277D01*
X119568Y-422283D01*
X119661Y-422292D01*
X119755Y-422305D01*
X119847Y-422322D01*
X119939Y-422342D01*
X120030Y-422367D01*
X120120Y-422394D01*
X120208Y-422426D01*
X120295Y-422461D01*
X120381Y-422499D01*
X120466Y-422541D01*
X120548Y-422586D01*
X120629Y-422634D01*
X120707Y-422686D01*
X120784Y-422740D01*
X120858Y-422798D01*
X120930Y-422859D01*
X120999Y-422922D01*
X121066Y-422988D01*
X121130Y-423057D01*
X121192Y-423128D01*
X121250Y-423202D01*
X121306Y-423278D01*
X121358Y-423356D01*
X121407Y-423436D01*
X121453Y-423518D01*
X121496Y-423602D01*
X121535Y-423688D01*
X121571Y-423775D01*
X121603Y-423863D01*
X121699Y-424066D01*
X121790Y-424271D01*
X121876Y-424479D01*
X121957Y-424689D01*
X122034Y-424900D01*
X122105Y-425113D01*
X122171Y-425328D01*
X122232Y-425545D01*
X122288Y-425763D01*
X122338Y-425982D01*
X122384Y-426202D01*
X122424Y-426423D01*
X122459Y-426645D01*
X122488Y-426868D01*
X122512Y-427092D01*
X122531Y-427316D01*
X122544Y-427540D01*
X122552Y-427765D01*
X122555Y-427990D01*
X116205Y-427990D02*
X116208Y-428215D01*
X116216Y-428440D01*
X116229Y-428664D01*
X116248Y-428888D01*
X116272Y-429112D01*
X116301Y-429335D01*
X116336Y-429557D01*
X116376Y-429778D01*
X116422Y-429998D01*
X116472Y-430217D01*
X116528Y-430435D01*
X116589Y-430652D01*
X116655Y-430867D01*
X116726Y-431080D01*
X116803Y-431291D01*
X116884Y-431501D01*
X116970Y-431709D01*
X117061Y-431914D01*
X117157Y-432117D01*
X117157Y-432118D02*
X117189Y-432206D01*
X117225Y-432293D01*
X117264Y-432379D01*
X117307Y-432463D01*
X117353Y-432545D01*
X117402Y-432625D01*
X117454Y-432703D01*
X117510Y-432779D01*
X117568Y-432853D01*
X117630Y-432924D01*
X117694Y-432993D01*
X117761Y-433059D01*
X117830Y-433122D01*
X117902Y-433183D01*
X117976Y-433241D01*
X118053Y-433295D01*
X118131Y-433347D01*
X118212Y-433395D01*
X118294Y-433440D01*
X118379Y-433482D01*
X118465Y-433520D01*
X118552Y-433555D01*
X118640Y-433587D01*
X118730Y-433614D01*
X118821Y-433639D01*
X118913Y-433659D01*
X119005Y-433676D01*
X119099Y-433689D01*
X119192Y-433698D01*
X119286Y-433704D01*
X119380Y-433706D01*
X121603Y-432117D02*
X121699Y-431914D01*
X121790Y-431709D01*
X121876Y-431501D01*
X121957Y-431291D01*
X122034Y-431080D01*
X122105Y-430867D01*
X122171Y-430652D01*
X122232Y-430435D01*
X122288Y-430217D01*
X122338Y-429998D01*
X122384Y-429778D01*
X122424Y-429557D01*
X122459Y-429335D01*
X122488Y-429112D01*
X122512Y-428888D01*
X122531Y-428664D01*
X122544Y-428440D01*
X122552Y-428215D01*
X122555Y-427990D01*
X121603Y-432118D02*
X121571Y-432206D01*
X121535Y-432293D01*
X121496Y-432379D01*
X121453Y-432463D01*
X121407Y-432545D01*
X121358Y-432625D01*
X121306Y-432703D01*
X121250Y-432779D01*
X121192Y-432853D01*
X121130Y-432924D01*
X121066Y-432993D01*
X120999Y-433059D01*
X120930Y-433122D01*
X120858Y-433183D01*
X120784Y-433241D01*
X120707Y-433295D01*
X120629Y-433347D01*
X120548Y-433395D01*
X120466Y-433440D01*
X120381Y-433482D01*
X120295Y-433520D01*
X120208Y-433555D01*
X120120Y-433587D01*
X120030Y-433614D01*
X119939Y-433639D01*
X119847Y-433659D01*
X119755Y-433676D01*
X119661Y-433689D01*
X119568Y-433698D01*
X119474Y-433704D01*
X119380Y-433706D01*
X116840Y-431165D02*
X121920Y-424815D01*
X41910Y-400685D02*
X38735Y-403225D01*
X41910Y-400685D02*
X41910Y-412115D01*
X38735Y-412115D02*
X45085Y-412115D01*
X45086Y-378143D02*
X45084Y-378039D01*
X45078Y-377934D01*
X45069Y-377830D01*
X45056Y-377727D01*
X45038Y-377624D01*
X45018Y-377522D01*
X44993Y-377420D01*
X44965Y-377320D01*
X44933Y-377220D01*
X44897Y-377122D01*
X44858Y-377025D01*
X44816Y-376930D01*
X44770Y-376836D01*
X44720Y-376744D01*
X44668Y-376654D01*
X44612Y-376566D01*
X44552Y-376480D01*
X44490Y-376396D01*
X44425Y-376315D01*
X44357Y-376236D01*
X44285Y-376159D01*
X44212Y-376086D01*
X44135Y-376014D01*
X44056Y-375946D01*
X43975Y-375881D01*
X43891Y-375819D01*
X43805Y-375759D01*
X43717Y-375703D01*
X43627Y-375651D01*
X43535Y-375601D01*
X43441Y-375555D01*
X43346Y-375513D01*
X43249Y-375474D01*
X43151Y-375438D01*
X43051Y-375406D01*
X42951Y-375378D01*
X42849Y-375353D01*
X42747Y-375333D01*
X42644Y-375315D01*
X42541Y-375302D01*
X42437Y-375293D01*
X42332Y-375287D01*
X42228Y-375285D01*
X42110Y-375287D01*
X41991Y-375293D01*
X41873Y-375302D01*
X41756Y-375315D01*
X41639Y-375333D01*
X41522Y-375353D01*
X41406Y-375378D01*
X41291Y-375406D01*
X41178Y-375439D01*
X41065Y-375474D01*
X40953Y-375514D01*
X40843Y-375556D01*
X40734Y-375603D01*
X40626Y-375653D01*
X40521Y-375706D01*
X40417Y-375763D01*
X40315Y-375823D01*
X40215Y-375886D01*
X40117Y-375953D01*
X40021Y-376022D01*
X39928Y-376095D01*
X39837Y-376171D01*
X39748Y-376249D01*
X39662Y-376331D01*
X39579Y-376415D01*
X39498Y-376501D01*
X39421Y-376591D01*
X39346Y-376682D01*
X39274Y-376776D01*
X39205Y-376873D01*
X39140Y-376971D01*
X39077Y-377072D01*
X39018Y-377175D01*
X38962Y-377279D01*
X38910Y-377385D01*
X38861Y-377493D01*
X38816Y-377602D01*
X38774Y-377713D01*
X38736Y-377825D01*
X44133Y-380365D02*
X44209Y-380290D01*
X44284Y-380211D01*
X44355Y-380130D01*
X44424Y-380046D01*
X44489Y-379960D01*
X44551Y-379872D01*
X44611Y-379782D01*
X44667Y-379690D01*
X44720Y-379595D01*
X44769Y-379499D01*
X44815Y-379401D01*
X44858Y-379302D01*
X44897Y-379201D01*
X44932Y-379099D01*
X44964Y-378996D01*
X44992Y-378892D01*
X45017Y-378787D01*
X45038Y-378680D01*
X45055Y-378574D01*
X45068Y-378467D01*
X45077Y-378359D01*
X45083Y-378251D01*
X45085Y-378143D01*
X44133Y-380365D02*
X38735Y-386715D01*
X45085Y-386715D01*
D16*
X13589Y-342011D02*
X13589Y-326009D01*
X18034Y-326009D01*
X18166Y-326011D01*
X18297Y-326017D01*
X18429Y-326027D01*
X18560Y-326040D01*
X18690Y-326058D01*
X18820Y-326079D01*
X18950Y-326104D01*
X19078Y-326133D01*
X19206Y-326166D01*
X19332Y-326203D01*
X19458Y-326243D01*
X19582Y-326287D01*
X19705Y-326335D01*
X19826Y-326386D01*
X19946Y-326441D01*
X20064Y-326499D01*
X20180Y-326561D01*
X20294Y-326627D01*
X20407Y-326695D01*
X20517Y-326767D01*
X20625Y-326842D01*
X20731Y-326921D01*
X20835Y-327002D01*
X20936Y-327087D01*
X21034Y-327174D01*
X21130Y-327265D01*
X21223Y-327358D01*
X21314Y-327454D01*
X21401Y-327552D01*
X21486Y-327653D01*
X21567Y-327757D01*
X21646Y-327863D01*
X21721Y-327971D01*
X21793Y-328081D01*
X21861Y-328194D01*
X21927Y-328308D01*
X21989Y-328424D01*
X22047Y-328542D01*
X22102Y-328662D01*
X22153Y-328783D01*
X22201Y-328906D01*
X22245Y-329030D01*
X22285Y-329156D01*
X22322Y-329282D01*
X22355Y-329410D01*
X22384Y-329538D01*
X22409Y-329668D01*
X22430Y-329798D01*
X22448Y-329928D01*
X22461Y-330059D01*
X22471Y-330191D01*
X22477Y-330322D01*
X22479Y-330454D01*
X22477Y-330586D01*
X22471Y-330717D01*
X22461Y-330849D01*
X22448Y-330980D01*
X22430Y-331110D01*
X22409Y-331240D01*
X22384Y-331370D01*
X22355Y-331498D01*
X22322Y-331626D01*
X22285Y-331752D01*
X22245Y-331878D01*
X22201Y-332002D01*
X22153Y-332125D01*
X22102Y-332246D01*
X22047Y-332366D01*
X21989Y-332484D01*
X21927Y-332600D01*
X21861Y-332714D01*
X21793Y-332827D01*
X21721Y-332937D01*
X21646Y-333045D01*
X21567Y-333151D01*
X21486Y-333255D01*
X21401Y-333356D01*
X21314Y-333454D01*
X21223Y-333550D01*
X21130Y-333643D01*
X21034Y-333734D01*
X20936Y-333821D01*
X20835Y-333906D01*
X20731Y-333987D01*
X20625Y-334066D01*
X20517Y-334141D01*
X20407Y-334213D01*
X20294Y-334281D01*
X20180Y-334347D01*
X20064Y-334409D01*
X19946Y-334467D01*
X19826Y-334522D01*
X19705Y-334573D01*
X19582Y-334621D01*
X19458Y-334665D01*
X19332Y-334705D01*
X19206Y-334742D01*
X19078Y-334775D01*
X18950Y-334804D01*
X18820Y-334829D01*
X18690Y-334850D01*
X18560Y-334868D01*
X18429Y-334881D01*
X18297Y-334891D01*
X18166Y-334897D01*
X18034Y-334899D01*
X13589Y-334899D01*
X27884Y-326009D02*
X31440Y-342011D01*
X34996Y-331343D01*
X38552Y-342011D01*
X42108Y-326009D01*
X48888Y-326009D02*
X48888Y-342011D01*
X48888Y-326009D02*
X53333Y-326009D01*
X53465Y-326011D01*
X53596Y-326017D01*
X53728Y-326027D01*
X53859Y-326040D01*
X53989Y-326058D01*
X54119Y-326079D01*
X54249Y-326104D01*
X54377Y-326133D01*
X54505Y-326166D01*
X54631Y-326203D01*
X54757Y-326243D01*
X54881Y-326287D01*
X55004Y-326335D01*
X55125Y-326386D01*
X55245Y-326441D01*
X55363Y-326499D01*
X55479Y-326561D01*
X55593Y-326627D01*
X55706Y-326695D01*
X55816Y-326767D01*
X55924Y-326842D01*
X56030Y-326921D01*
X56134Y-327002D01*
X56235Y-327087D01*
X56333Y-327174D01*
X56429Y-327265D01*
X56522Y-327358D01*
X56613Y-327454D01*
X56700Y-327552D01*
X56785Y-327653D01*
X56866Y-327757D01*
X56945Y-327863D01*
X57020Y-327971D01*
X57092Y-328081D01*
X57160Y-328194D01*
X57226Y-328308D01*
X57288Y-328424D01*
X57346Y-328542D01*
X57401Y-328662D01*
X57452Y-328783D01*
X57500Y-328906D01*
X57544Y-329030D01*
X57584Y-329156D01*
X57621Y-329282D01*
X57654Y-329410D01*
X57683Y-329538D01*
X57708Y-329668D01*
X57729Y-329798D01*
X57747Y-329928D01*
X57760Y-330059D01*
X57770Y-330191D01*
X57776Y-330322D01*
X57778Y-330454D01*
X57776Y-330586D01*
X57770Y-330717D01*
X57760Y-330849D01*
X57747Y-330980D01*
X57729Y-331110D01*
X57708Y-331240D01*
X57683Y-331370D01*
X57654Y-331498D01*
X57621Y-331626D01*
X57584Y-331752D01*
X57544Y-331878D01*
X57500Y-332002D01*
X57452Y-332125D01*
X57401Y-332246D01*
X57346Y-332366D01*
X57288Y-332484D01*
X57226Y-332600D01*
X57160Y-332714D01*
X57092Y-332827D01*
X57020Y-332937D01*
X56945Y-333045D01*
X56866Y-333151D01*
X56785Y-333255D01*
X56700Y-333356D01*
X56613Y-333454D01*
X56522Y-333550D01*
X56429Y-333643D01*
X56333Y-333734D01*
X56235Y-333821D01*
X56134Y-333906D01*
X56030Y-333987D01*
X55924Y-334066D01*
X55816Y-334141D01*
X55706Y-334213D01*
X55593Y-334281D01*
X55479Y-334347D01*
X55363Y-334409D01*
X55245Y-334467D01*
X55125Y-334522D01*
X55004Y-334573D01*
X54881Y-334621D01*
X54757Y-334665D01*
X54631Y-334705D01*
X54505Y-334742D01*
X54377Y-334775D01*
X54249Y-334804D01*
X54119Y-334829D01*
X53989Y-334850D01*
X53859Y-334868D01*
X53728Y-334881D01*
X53596Y-334891D01*
X53465Y-334897D01*
X53333Y-334899D01*
X48888Y-334899D01*
X54222Y-334899D02*
X57778Y-342011D01*
D10*
X24130Y-469900D02*
X21590Y-469900D01*
X24130Y-469900D02*
X24130Y-472440D01*
X24130Y-469900D02*
X26670Y-469900D01*
X24130Y-469900D02*
X24130Y-467360D01*
X12700Y-482600D02*
X12708Y-481977D01*
X12731Y-481354D01*
X12769Y-480731D01*
X12822Y-480110D01*
X12891Y-479491D01*
X12975Y-478873D01*
X13074Y-478258D01*
X13188Y-477645D01*
X13317Y-477035D01*
X13461Y-476428D01*
X13620Y-475825D01*
X13794Y-475227D01*
X13982Y-474632D01*
X14185Y-474043D01*
X14402Y-473459D01*
X14633Y-472880D01*
X14879Y-472307D01*
X15139Y-471740D01*
X15412Y-471180D01*
X15699Y-470627D01*
X16000Y-470080D01*
X16314Y-469542D01*
X16641Y-469011D01*
X16981Y-468489D01*
X17333Y-467974D01*
X17699Y-467469D01*
X18076Y-466973D01*
X18466Y-466486D01*
X18867Y-466009D01*
X19280Y-465542D01*
X19704Y-465086D01*
X20139Y-464639D01*
X20586Y-464204D01*
X21042Y-463780D01*
X21509Y-463367D01*
X21986Y-462966D01*
X22473Y-462576D01*
X22969Y-462199D01*
X23474Y-461833D01*
X23989Y-461481D01*
X24511Y-461141D01*
X25042Y-460814D01*
X25580Y-460500D01*
X26127Y-460199D01*
X26680Y-459912D01*
X27240Y-459639D01*
X27807Y-459379D01*
X28380Y-459133D01*
X28959Y-458902D01*
X29543Y-458685D01*
X30132Y-458482D01*
X30727Y-458294D01*
X31325Y-458120D01*
X31928Y-457961D01*
X32535Y-457817D01*
X33145Y-457688D01*
X33758Y-457574D01*
X34373Y-457475D01*
X34991Y-457391D01*
X35610Y-457322D01*
X36231Y-457269D01*
X36854Y-457231D01*
X37477Y-457208D01*
X38100Y-457200D01*
X38723Y-457208D01*
X39346Y-457231D01*
X39969Y-457269D01*
X40590Y-457322D01*
X41209Y-457391D01*
X41827Y-457475D01*
X42442Y-457574D01*
X43055Y-457688D01*
X43665Y-457817D01*
X44272Y-457961D01*
X44875Y-458120D01*
X45473Y-458294D01*
X46068Y-458482D01*
X46657Y-458685D01*
X47241Y-458902D01*
X47820Y-459133D01*
X48393Y-459379D01*
X48960Y-459639D01*
X49520Y-459912D01*
X50073Y-460199D01*
X50620Y-460500D01*
X51158Y-460814D01*
X51689Y-461141D01*
X52211Y-461481D01*
X52726Y-461833D01*
X53231Y-462199D01*
X53727Y-462576D01*
X54214Y-462966D01*
X54691Y-463367D01*
X55158Y-463780D01*
X55614Y-464204D01*
X56061Y-464639D01*
X56496Y-465086D01*
X56920Y-465542D01*
X57333Y-466009D01*
X57734Y-466486D01*
X58124Y-466973D01*
X58501Y-467469D01*
X58867Y-467974D01*
X59219Y-468489D01*
X59559Y-469011D01*
X59886Y-469542D01*
X60200Y-470080D01*
X60501Y-470627D01*
X60788Y-471180D01*
X61061Y-471740D01*
X61321Y-472307D01*
X61567Y-472880D01*
X61798Y-473459D01*
X62015Y-474043D01*
X62218Y-474632D01*
X62406Y-475227D01*
X62580Y-475825D01*
X62739Y-476428D01*
X62883Y-477035D01*
X63012Y-477645D01*
X63126Y-478258D01*
X63225Y-478873D01*
X63309Y-479491D01*
X63378Y-480110D01*
X63431Y-480731D01*
X63469Y-481354D01*
X63492Y-481977D01*
X63500Y-482600D01*
X63492Y-483223D01*
X63469Y-483846D01*
X63431Y-484469D01*
X63378Y-485090D01*
X63309Y-485709D01*
X63225Y-486327D01*
X63126Y-486942D01*
X63012Y-487555D01*
X62883Y-488165D01*
X62739Y-488772D01*
X62580Y-489375D01*
X62406Y-489973D01*
X62218Y-490568D01*
X62015Y-491157D01*
X61798Y-491741D01*
X61567Y-492320D01*
X61321Y-492893D01*
X61061Y-493460D01*
X60788Y-494020D01*
X60501Y-494573D01*
X60200Y-495120D01*
X59886Y-495658D01*
X59559Y-496189D01*
X59219Y-496711D01*
X58867Y-497226D01*
X58501Y-497731D01*
X58124Y-498227D01*
X57734Y-498714D01*
X57333Y-499191D01*
X56920Y-499658D01*
X56496Y-500114D01*
X56061Y-500561D01*
X55614Y-500996D01*
X55158Y-501420D01*
X54691Y-501833D01*
X54214Y-502234D01*
X53727Y-502624D01*
X53231Y-503001D01*
X52726Y-503367D01*
X52211Y-503719D01*
X51689Y-504059D01*
X51158Y-504386D01*
X50620Y-504700D01*
X50073Y-505001D01*
X49520Y-505288D01*
X48960Y-505561D01*
X48393Y-505821D01*
X47820Y-506067D01*
X47241Y-506298D01*
X46657Y-506515D01*
X46068Y-506718D01*
X45473Y-506906D01*
X44875Y-507080D01*
X44272Y-507239D01*
X43665Y-507383D01*
X43055Y-507512D01*
X42442Y-507626D01*
X41827Y-507725D01*
X41209Y-507809D01*
X40590Y-507878D01*
X39969Y-507931D01*
X39346Y-507969D01*
X38723Y-507992D01*
X38100Y-508000D01*
X37477Y-507992D01*
X36854Y-507969D01*
X36231Y-507931D01*
X35610Y-507878D01*
X34991Y-507809D01*
X34373Y-507725D01*
X33758Y-507626D01*
X33145Y-507512D01*
X32535Y-507383D01*
X31928Y-507239D01*
X31325Y-507080D01*
X30727Y-506906D01*
X30132Y-506718D01*
X29543Y-506515D01*
X28959Y-506298D01*
X28380Y-506067D01*
X27807Y-505821D01*
X27240Y-505561D01*
X26680Y-505288D01*
X26127Y-505001D01*
X25580Y-504700D01*
X25042Y-504386D01*
X24511Y-504059D01*
X23989Y-503719D01*
X23474Y-503367D01*
X22969Y-503001D01*
X22473Y-502624D01*
X21986Y-502234D01*
X21509Y-501833D01*
X21042Y-501420D01*
X20586Y-500996D01*
X20139Y-500561D01*
X19704Y-500114D01*
X19280Y-499658D01*
X18867Y-499191D01*
X18466Y-498714D01*
X18076Y-498227D01*
X17699Y-497731D01*
X17333Y-497226D01*
X16981Y-496711D01*
X16641Y-496189D01*
X16314Y-495658D01*
X16000Y-495120D01*
X15699Y-494573D01*
X15412Y-494020D01*
X15139Y-493460D01*
X14879Y-492893D01*
X14633Y-492320D01*
X14402Y-491741D01*
X14185Y-491157D01*
X13982Y-490568D01*
X13794Y-489973D01*
X13620Y-489375D01*
X13461Y-488772D01*
X13317Y-488165D01*
X13188Y-487555D01*
X13074Y-486942D01*
X12975Y-486327D01*
X12891Y-485709D01*
X12822Y-485090D01*
X12769Y-484469D01*
X12731Y-483846D01*
X12708Y-483223D01*
X12700Y-482600D01*
D11*
X65405Y-469265D02*
X67945Y-469265D01*
X65405Y-469265D02*
X65305Y-469263D01*
X65206Y-469257D01*
X65106Y-469247D01*
X65008Y-469234D01*
X64909Y-469216D01*
X64812Y-469195D01*
X64716Y-469170D01*
X64620Y-469141D01*
X64526Y-469108D01*
X64433Y-469072D01*
X64342Y-469032D01*
X64252Y-468988D01*
X64164Y-468941D01*
X64078Y-468891D01*
X63994Y-468837D01*
X63912Y-468780D01*
X63833Y-468720D01*
X63755Y-468656D01*
X63681Y-468590D01*
X63609Y-468521D01*
X63540Y-468449D01*
X63474Y-468375D01*
X63410Y-468297D01*
X63350Y-468218D01*
X63293Y-468136D01*
X63239Y-468052D01*
X63189Y-467966D01*
X63142Y-467878D01*
X63098Y-467788D01*
X63058Y-467697D01*
X63022Y-467604D01*
X62989Y-467510D01*
X62960Y-467414D01*
X62935Y-467318D01*
X62914Y-467221D01*
X62896Y-467122D01*
X62883Y-467024D01*
X62873Y-466924D01*
X62867Y-466825D01*
X62865Y-466725D01*
X62865Y-460375D01*
X62867Y-460275D01*
X62873Y-460176D01*
X62883Y-460076D01*
X62896Y-459978D01*
X62914Y-459879D01*
X62935Y-459782D01*
X62960Y-459686D01*
X62989Y-459590D01*
X63022Y-459496D01*
X63058Y-459403D01*
X63098Y-459312D01*
X63142Y-459222D01*
X63189Y-459134D01*
X63239Y-459048D01*
X63293Y-458964D01*
X63350Y-458882D01*
X63410Y-458803D01*
X63474Y-458725D01*
X63540Y-458651D01*
X63609Y-458579D01*
X63681Y-458510D01*
X63755Y-458444D01*
X63833Y-458380D01*
X63912Y-458320D01*
X63994Y-458263D01*
X64078Y-458209D01*
X64164Y-458159D01*
X64252Y-458112D01*
X64342Y-458068D01*
X64433Y-458028D01*
X64526Y-457992D01*
X64620Y-457959D01*
X64716Y-457930D01*
X64812Y-457905D01*
X64909Y-457884D01*
X65008Y-457866D01*
X65106Y-457853D01*
X65206Y-457843D01*
X65305Y-457837D01*
X65405Y-457835D01*
X67945Y-457835D01*
X72427Y-460375D02*
X75602Y-457835D01*
X75602Y-469265D01*
X72427Y-469265D02*
X78777Y-469265D01*
X83857Y-460375D02*
X87032Y-457835D01*
X87032Y-469265D01*
X83857Y-469265D02*
X90207Y-469265D01*
D10*
X123190Y-469900D02*
X125730Y-469900D01*
X125730Y-472440D01*
X125730Y-469900D02*
X128270Y-469900D01*
X125730Y-469900D02*
X125730Y-467360D01*
X114300Y-482600D02*
X114308Y-481977D01*
X114331Y-481354D01*
X114369Y-480731D01*
X114422Y-480110D01*
X114491Y-479491D01*
X114575Y-478873D01*
X114674Y-478258D01*
X114788Y-477645D01*
X114917Y-477035D01*
X115061Y-476428D01*
X115220Y-475825D01*
X115394Y-475227D01*
X115582Y-474632D01*
X115785Y-474043D01*
X116002Y-473459D01*
X116233Y-472880D01*
X116479Y-472307D01*
X116739Y-471740D01*
X117012Y-471180D01*
X117299Y-470627D01*
X117600Y-470080D01*
X117914Y-469542D01*
X118241Y-469011D01*
X118581Y-468489D01*
X118933Y-467974D01*
X119299Y-467469D01*
X119676Y-466973D01*
X120066Y-466486D01*
X120467Y-466009D01*
X120880Y-465542D01*
X121304Y-465086D01*
X121739Y-464639D01*
X122186Y-464204D01*
X122642Y-463780D01*
X123109Y-463367D01*
X123586Y-462966D01*
X124073Y-462576D01*
X124569Y-462199D01*
X125074Y-461833D01*
X125589Y-461481D01*
X126111Y-461141D01*
X126642Y-460814D01*
X127180Y-460500D01*
X127727Y-460199D01*
X128280Y-459912D01*
X128840Y-459639D01*
X129407Y-459379D01*
X129980Y-459133D01*
X130559Y-458902D01*
X131143Y-458685D01*
X131732Y-458482D01*
X132327Y-458294D01*
X132925Y-458120D01*
X133528Y-457961D01*
X134135Y-457817D01*
X134745Y-457688D01*
X135358Y-457574D01*
X135973Y-457475D01*
X136591Y-457391D01*
X137210Y-457322D01*
X137831Y-457269D01*
X138454Y-457231D01*
X139077Y-457208D01*
X139700Y-457200D01*
X140323Y-457208D01*
X140946Y-457231D01*
X141569Y-457269D01*
X142190Y-457322D01*
X142809Y-457391D01*
X143427Y-457475D01*
X144042Y-457574D01*
X144655Y-457688D01*
X145265Y-457817D01*
X145872Y-457961D01*
X146475Y-458120D01*
X147073Y-458294D01*
X147668Y-458482D01*
X148257Y-458685D01*
X148841Y-458902D01*
X149420Y-459133D01*
X149993Y-459379D01*
X150560Y-459639D01*
X151120Y-459912D01*
X151673Y-460199D01*
X152220Y-460500D01*
X152758Y-460814D01*
X153289Y-461141D01*
X153811Y-461481D01*
X154326Y-461833D01*
X154831Y-462199D01*
X155327Y-462576D01*
X155814Y-462966D01*
X156291Y-463367D01*
X156758Y-463780D01*
X157214Y-464204D01*
X157661Y-464639D01*
X158096Y-465086D01*
X158520Y-465542D01*
X158933Y-466009D01*
X159334Y-466486D01*
X159724Y-466973D01*
X160101Y-467469D01*
X160467Y-467974D01*
X160819Y-468489D01*
X161159Y-469011D01*
X161486Y-469542D01*
X161800Y-470080D01*
X162101Y-470627D01*
X162388Y-471180D01*
X162661Y-471740D01*
X162921Y-472307D01*
X163167Y-472880D01*
X163398Y-473459D01*
X163615Y-474043D01*
X163818Y-474632D01*
X164006Y-475227D01*
X164180Y-475825D01*
X164339Y-476428D01*
X164483Y-477035D01*
X164612Y-477645D01*
X164726Y-478258D01*
X164825Y-478873D01*
X164909Y-479491D01*
X164978Y-480110D01*
X165031Y-480731D01*
X165069Y-481354D01*
X165092Y-481977D01*
X165100Y-482600D01*
X165092Y-483223D01*
X165069Y-483846D01*
X165031Y-484469D01*
X164978Y-485090D01*
X164909Y-485709D01*
X164825Y-486327D01*
X164726Y-486942D01*
X164612Y-487555D01*
X164483Y-488165D01*
X164339Y-488772D01*
X164180Y-489375D01*
X164006Y-489973D01*
X163818Y-490568D01*
X163615Y-491157D01*
X163398Y-491741D01*
X163167Y-492320D01*
X162921Y-492893D01*
X162661Y-493460D01*
X162388Y-494020D01*
X162101Y-494573D01*
X161800Y-495120D01*
X161486Y-495658D01*
X161159Y-496189D01*
X160819Y-496711D01*
X160467Y-497226D01*
X160101Y-497731D01*
X159724Y-498227D01*
X159334Y-498714D01*
X158933Y-499191D01*
X158520Y-499658D01*
X158096Y-500114D01*
X157661Y-500561D01*
X157214Y-500996D01*
X156758Y-501420D01*
X156291Y-501833D01*
X155814Y-502234D01*
X155327Y-502624D01*
X154831Y-503001D01*
X154326Y-503367D01*
X153811Y-503719D01*
X153289Y-504059D01*
X152758Y-504386D01*
X152220Y-504700D01*
X151673Y-505001D01*
X151120Y-505288D01*
X150560Y-505561D01*
X149993Y-505821D01*
X149420Y-506067D01*
X148841Y-506298D01*
X148257Y-506515D01*
X147668Y-506718D01*
X147073Y-506906D01*
X146475Y-507080D01*
X145872Y-507239D01*
X145265Y-507383D01*
X144655Y-507512D01*
X144042Y-507626D01*
X143427Y-507725D01*
X142809Y-507809D01*
X142190Y-507878D01*
X141569Y-507931D01*
X140946Y-507969D01*
X140323Y-507992D01*
X139700Y-508000D01*
X139077Y-507992D01*
X138454Y-507969D01*
X137831Y-507931D01*
X137210Y-507878D01*
X136591Y-507809D01*
X135973Y-507725D01*
X135358Y-507626D01*
X134745Y-507512D01*
X134135Y-507383D01*
X133528Y-507239D01*
X132925Y-507080D01*
X132327Y-506906D01*
X131732Y-506718D01*
X131143Y-506515D01*
X130559Y-506298D01*
X129980Y-506067D01*
X129407Y-505821D01*
X128840Y-505561D01*
X128280Y-505288D01*
X127727Y-505001D01*
X127180Y-504700D01*
X126642Y-504386D01*
X126111Y-504059D01*
X125589Y-503719D01*
X125074Y-503367D01*
X124569Y-503001D01*
X124073Y-502624D01*
X123586Y-502234D01*
X123109Y-501833D01*
X122642Y-501420D01*
X122186Y-500996D01*
X121739Y-500561D01*
X121304Y-500114D01*
X120880Y-499658D01*
X120467Y-499191D01*
X120066Y-498714D01*
X119676Y-498227D01*
X119299Y-497731D01*
X118933Y-497226D01*
X118581Y-496711D01*
X118241Y-496189D01*
X117914Y-495658D01*
X117600Y-495120D01*
X117299Y-494573D01*
X117012Y-494020D01*
X116739Y-493460D01*
X116479Y-492893D01*
X116233Y-492320D01*
X116002Y-491741D01*
X115785Y-491157D01*
X115582Y-490568D01*
X115394Y-489973D01*
X115220Y-489375D01*
X115061Y-488772D01*
X114917Y-488165D01*
X114788Y-487555D01*
X114674Y-486942D01*
X114575Y-486327D01*
X114491Y-485709D01*
X114422Y-485090D01*
X114369Y-484469D01*
X114331Y-483846D01*
X114308Y-483223D01*
X114300Y-482600D01*
D11*
X167005Y-469265D02*
X169545Y-469265D01*
X167005Y-469265D02*
X166905Y-469263D01*
X166806Y-469257D01*
X166706Y-469247D01*
X166608Y-469234D01*
X166509Y-469216D01*
X166412Y-469195D01*
X166316Y-469170D01*
X166220Y-469141D01*
X166126Y-469108D01*
X166033Y-469072D01*
X165942Y-469032D01*
X165852Y-468988D01*
X165764Y-468941D01*
X165678Y-468891D01*
X165594Y-468837D01*
X165512Y-468780D01*
X165433Y-468720D01*
X165355Y-468656D01*
X165281Y-468590D01*
X165209Y-468521D01*
X165140Y-468449D01*
X165074Y-468375D01*
X165010Y-468297D01*
X164950Y-468218D01*
X164893Y-468136D01*
X164839Y-468052D01*
X164789Y-467966D01*
X164742Y-467878D01*
X164698Y-467788D01*
X164658Y-467697D01*
X164622Y-467604D01*
X164589Y-467510D01*
X164560Y-467414D01*
X164535Y-467318D01*
X164514Y-467221D01*
X164496Y-467122D01*
X164483Y-467024D01*
X164473Y-466924D01*
X164467Y-466825D01*
X164465Y-466725D01*
X164465Y-460375D01*
X164467Y-460275D01*
X164473Y-460176D01*
X164483Y-460076D01*
X164496Y-459978D01*
X164514Y-459879D01*
X164535Y-459782D01*
X164560Y-459686D01*
X164589Y-459590D01*
X164622Y-459496D01*
X164658Y-459403D01*
X164698Y-459312D01*
X164742Y-459222D01*
X164789Y-459134D01*
X164839Y-459048D01*
X164893Y-458964D01*
X164950Y-458882D01*
X165010Y-458803D01*
X165074Y-458725D01*
X165140Y-458651D01*
X165209Y-458579D01*
X165281Y-458510D01*
X165355Y-458444D01*
X165433Y-458380D01*
X165512Y-458320D01*
X165594Y-458263D01*
X165678Y-458209D01*
X165764Y-458159D01*
X165852Y-458112D01*
X165942Y-458068D01*
X166033Y-458028D01*
X166126Y-457992D01*
X166220Y-457959D01*
X166316Y-457930D01*
X166412Y-457905D01*
X166509Y-457884D01*
X166608Y-457866D01*
X166706Y-457853D01*
X166806Y-457843D01*
X166905Y-457837D01*
X167005Y-457835D01*
X169545Y-457835D01*
X174027Y-460375D02*
X177202Y-457835D01*
X177202Y-469265D01*
X174027Y-469265D02*
X180377Y-469265D01*
X187997Y-464185D02*
X191807Y-464185D01*
X187997Y-464185D02*
X187897Y-464183D01*
X187798Y-464177D01*
X187698Y-464167D01*
X187600Y-464154D01*
X187501Y-464136D01*
X187404Y-464115D01*
X187308Y-464090D01*
X187212Y-464061D01*
X187118Y-464028D01*
X187025Y-463992D01*
X186934Y-463952D01*
X186844Y-463908D01*
X186756Y-463861D01*
X186670Y-463811D01*
X186586Y-463757D01*
X186504Y-463700D01*
X186425Y-463640D01*
X186347Y-463576D01*
X186273Y-463510D01*
X186201Y-463441D01*
X186132Y-463369D01*
X186066Y-463295D01*
X186002Y-463217D01*
X185942Y-463138D01*
X185885Y-463056D01*
X185831Y-462972D01*
X185781Y-462886D01*
X185734Y-462798D01*
X185690Y-462708D01*
X185650Y-462617D01*
X185614Y-462524D01*
X185581Y-462430D01*
X185552Y-462334D01*
X185527Y-462238D01*
X185506Y-462141D01*
X185488Y-462042D01*
X185475Y-461944D01*
X185465Y-461844D01*
X185459Y-461745D01*
X185457Y-461645D01*
X185457Y-461010D01*
X185459Y-460899D01*
X185465Y-460789D01*
X185474Y-460678D01*
X185488Y-460568D01*
X185505Y-460459D01*
X185526Y-460350D01*
X185551Y-460242D01*
X185580Y-460135D01*
X185612Y-460029D01*
X185648Y-459924D01*
X185688Y-459821D01*
X185731Y-459719D01*
X185778Y-459618D01*
X185829Y-459519D01*
X185882Y-459423D01*
X185939Y-459328D01*
X186000Y-459235D01*
X186063Y-459144D01*
X186130Y-459055D01*
X186200Y-458969D01*
X186273Y-458886D01*
X186348Y-458804D01*
X186426Y-458726D01*
X186508Y-458651D01*
X186591Y-458578D01*
X186677Y-458508D01*
X186766Y-458441D01*
X186857Y-458378D01*
X186950Y-458317D01*
X187045Y-458260D01*
X187141Y-458207D01*
X187240Y-458156D01*
X187341Y-458109D01*
X187443Y-458066D01*
X187546Y-458026D01*
X187651Y-457990D01*
X187757Y-457958D01*
X187864Y-457929D01*
X187972Y-457904D01*
X188081Y-457883D01*
X188190Y-457866D01*
X188300Y-457852D01*
X188411Y-457843D01*
X188521Y-457837D01*
X188632Y-457835D01*
X188743Y-457837D01*
X188853Y-457843D01*
X188964Y-457852D01*
X189074Y-457866D01*
X189183Y-457883D01*
X189292Y-457904D01*
X189400Y-457929D01*
X189507Y-457958D01*
X189613Y-457990D01*
X189718Y-458026D01*
X189821Y-458066D01*
X189923Y-458109D01*
X190024Y-458156D01*
X190123Y-458207D01*
X190220Y-458260D01*
X190314Y-458317D01*
X190407Y-458378D01*
X190498Y-458441D01*
X190587Y-458508D01*
X190673Y-458578D01*
X190756Y-458651D01*
X190838Y-458726D01*
X190916Y-458804D01*
X190991Y-458886D01*
X191064Y-458969D01*
X191134Y-459055D01*
X191201Y-459144D01*
X191264Y-459235D01*
X191325Y-459328D01*
X191382Y-459423D01*
X191435Y-459519D01*
X191486Y-459618D01*
X191533Y-459719D01*
X191576Y-459821D01*
X191616Y-459924D01*
X191652Y-460029D01*
X191684Y-460135D01*
X191713Y-460242D01*
X191738Y-460350D01*
X191759Y-460459D01*
X191776Y-460568D01*
X191790Y-460678D01*
X191799Y-460789D01*
X191805Y-460899D01*
X191807Y-461010D01*
X191807Y-464185D01*
X191805Y-464325D01*
X191799Y-464465D01*
X191790Y-464605D01*
X191776Y-464744D01*
X191759Y-464883D01*
X191738Y-465021D01*
X191713Y-465159D01*
X191684Y-465296D01*
X191652Y-465432D01*
X191615Y-465567D01*
X191575Y-465701D01*
X191532Y-465834D01*
X191484Y-465966D01*
X191434Y-466097D01*
X191379Y-466226D01*
X191321Y-466353D01*
X191260Y-466479D01*
X191195Y-466603D01*
X191126Y-466725D01*
X191055Y-466845D01*
X190980Y-466963D01*
X190902Y-467080D01*
X190820Y-467194D01*
X190736Y-467305D01*
X190648Y-467414D01*
X190558Y-467521D01*
X190464Y-467626D01*
X190368Y-467727D01*
X190269Y-467826D01*
X190168Y-467922D01*
X190063Y-468016D01*
X189956Y-468106D01*
X189847Y-468194D01*
X189736Y-468278D01*
X189622Y-468360D01*
X189505Y-468438D01*
X189387Y-468513D01*
X189267Y-468584D01*
X189145Y-468653D01*
X189021Y-468718D01*
X188895Y-468779D01*
X188768Y-468837D01*
X188639Y-468892D01*
X188508Y-468942D01*
X188376Y-468990D01*
X188243Y-469033D01*
X188109Y-469073D01*
X187974Y-469110D01*
X187838Y-469142D01*
X187701Y-469171D01*
X187563Y-469196D01*
X187425Y-469217D01*
X187286Y-469234D01*
X187147Y-469248D01*
X187007Y-469257D01*
X186867Y-469263D01*
X186727Y-469265D01*
X-65800Y-371800D02*
X-95800Y-371800D01*
X-65800Y-371800D02*
X-35800Y-371800D01*
X-5800Y-371800D01*
X-95800Y-371800D02*
X-95800Y-476800D01*
X-48800Y-476800D01*
X-5800Y-476800D01*
X-5800Y-371800D01*
X-82423Y-431800D02*
X-82413Y-431024D01*
X-82385Y-430248D01*
X-82337Y-429474D01*
X-82271Y-428700D01*
X-82185Y-427929D01*
X-82081Y-427160D01*
X-81957Y-426394D01*
X-81815Y-425631D01*
X-81655Y-424871D01*
X-81475Y-424116D01*
X-81277Y-423366D01*
X-81061Y-422620D01*
X-80827Y-421880D01*
X-80574Y-421147D01*
X-80304Y-420419D01*
X-80016Y-419698D01*
X-79710Y-418985D01*
X-79387Y-418279D01*
X-79046Y-417582D01*
X-78689Y-416893D01*
X-78315Y-416213D01*
X-77924Y-415543D01*
X-77517Y-414882D01*
X-77094Y-414231D01*
X-76654Y-413591D01*
X-76200Y-412962D01*
X-75730Y-412345D01*
X-75245Y-411739D01*
X-74745Y-411145D01*
X-74231Y-410563D01*
X-73703Y-409995D01*
X-73161Y-409439D01*
X-72605Y-408897D01*
X-72037Y-408369D01*
X-71455Y-407855D01*
X-70861Y-407355D01*
X-70255Y-406870D01*
X-69638Y-406400D01*
X-69009Y-405946D01*
X-68369Y-405506D01*
X-67718Y-405083D01*
X-67057Y-404676D01*
X-66387Y-404285D01*
X-65707Y-403911D01*
X-65018Y-403554D01*
X-64321Y-403213D01*
X-63615Y-402890D01*
X-62902Y-402584D01*
X-62181Y-402296D01*
X-61453Y-402026D01*
X-60720Y-401773D01*
X-59980Y-401539D01*
X-59234Y-401323D01*
X-58484Y-401125D01*
X-57729Y-400945D01*
X-56969Y-400785D01*
X-56206Y-400643D01*
X-55440Y-400519D01*
X-54671Y-400415D01*
X-53900Y-400329D01*
X-53126Y-400263D01*
X-52352Y-400215D01*
X-51576Y-400187D01*
X-50800Y-400177D01*
X-50024Y-400187D01*
X-49248Y-400215D01*
X-48474Y-400263D01*
X-47700Y-400329D01*
X-46929Y-400415D01*
X-46160Y-400519D01*
X-45394Y-400643D01*
X-44631Y-400785D01*
X-43871Y-400945D01*
X-43116Y-401125D01*
X-42366Y-401323D01*
X-41620Y-401539D01*
X-40880Y-401773D01*
X-40147Y-402026D01*
X-39419Y-402296D01*
X-38698Y-402584D01*
X-37985Y-402890D01*
X-37279Y-403213D01*
X-36582Y-403554D01*
X-35893Y-403911D01*
X-35213Y-404285D01*
X-34543Y-404676D01*
X-33882Y-405083D01*
X-33231Y-405506D01*
X-32591Y-405946D01*
X-31962Y-406400D01*
X-31345Y-406870D01*
X-30739Y-407355D01*
X-30145Y-407855D01*
X-29563Y-408369D01*
X-28995Y-408897D01*
X-28439Y-409439D01*
X-27897Y-409995D01*
X-27369Y-410563D01*
X-26855Y-411145D01*
X-26355Y-411739D01*
X-25870Y-412345D01*
X-25400Y-412962D01*
X-24946Y-413591D01*
X-24506Y-414231D01*
X-24083Y-414882D01*
X-23676Y-415543D01*
X-23285Y-416213D01*
X-22911Y-416893D01*
X-22554Y-417582D01*
X-22213Y-418279D01*
X-21890Y-418985D01*
X-21584Y-419698D01*
X-21296Y-420419D01*
X-21026Y-421147D01*
X-20773Y-421880D01*
X-20539Y-422620D01*
X-20323Y-423366D01*
X-20125Y-424116D01*
X-19945Y-424871D01*
X-19785Y-425631D01*
X-19643Y-426394D01*
X-19519Y-427160D01*
X-19415Y-427929D01*
X-19329Y-428700D01*
X-19263Y-429474D01*
X-19215Y-430248D01*
X-19187Y-431024D01*
X-19177Y-431800D01*
X-19187Y-432576D01*
X-19215Y-433352D01*
X-19263Y-434126D01*
X-19329Y-434900D01*
X-19415Y-435671D01*
X-19519Y-436440D01*
X-19643Y-437206D01*
X-19785Y-437969D01*
X-19945Y-438729D01*
X-20125Y-439484D01*
X-20323Y-440234D01*
X-20539Y-440980D01*
X-20773Y-441720D01*
X-21026Y-442453D01*
X-21296Y-443181D01*
X-21584Y-443902D01*
X-21890Y-444615D01*
X-22213Y-445321D01*
X-22554Y-446018D01*
X-22911Y-446707D01*
X-23285Y-447387D01*
X-23676Y-448057D01*
X-24083Y-448718D01*
X-24506Y-449369D01*
X-24946Y-450009D01*
X-25400Y-450638D01*
X-25870Y-451255D01*
X-26355Y-451861D01*
X-26855Y-452455D01*
X-27369Y-453037D01*
X-27897Y-453605D01*
X-28439Y-454161D01*
X-28995Y-454703D01*
X-29563Y-455231D01*
X-30145Y-455745D01*
X-30739Y-456245D01*
X-31345Y-456730D01*
X-31962Y-457200D01*
X-32591Y-457654D01*
X-33231Y-458094D01*
X-33882Y-458517D01*
X-34543Y-458924D01*
X-35213Y-459315D01*
X-35893Y-459689D01*
X-36582Y-460046D01*
X-37279Y-460387D01*
X-37985Y-460710D01*
X-38698Y-461016D01*
X-39419Y-461304D01*
X-40147Y-461574D01*
X-40880Y-461827D01*
X-41620Y-462061D01*
X-42366Y-462277D01*
X-43116Y-462475D01*
X-43871Y-462655D01*
X-44631Y-462815D01*
X-45394Y-462957D01*
X-46160Y-463081D01*
X-46929Y-463185D01*
X-47700Y-463271D01*
X-48474Y-463337D01*
X-49248Y-463385D01*
X-50024Y-463413D01*
X-50800Y-463423D01*
X-51576Y-463413D01*
X-52352Y-463385D01*
X-53126Y-463337D01*
X-53900Y-463271D01*
X-54671Y-463185D01*
X-55440Y-463081D01*
X-56206Y-462957D01*
X-56969Y-462815D01*
X-57729Y-462655D01*
X-58484Y-462475D01*
X-59234Y-462277D01*
X-59980Y-462061D01*
X-60720Y-461827D01*
X-61453Y-461574D01*
X-62181Y-461304D01*
X-62902Y-461016D01*
X-63615Y-460710D01*
X-64321Y-460387D01*
X-65018Y-460046D01*
X-65707Y-459689D01*
X-66387Y-459315D01*
X-67057Y-458924D01*
X-67718Y-458517D01*
X-68369Y-458094D01*
X-69009Y-457654D01*
X-69638Y-457200D01*
X-70255Y-456730D01*
X-70861Y-456245D01*
X-71455Y-455745D01*
X-72037Y-455231D01*
X-72605Y-454703D01*
X-73161Y-454161D01*
X-73703Y-453605D01*
X-74231Y-453037D01*
X-74745Y-452455D01*
X-75245Y-451861D01*
X-75730Y-451255D01*
X-76200Y-450638D01*
X-76654Y-450009D01*
X-77094Y-449369D01*
X-77517Y-448718D01*
X-77924Y-448057D01*
X-78315Y-447387D01*
X-78689Y-446707D01*
X-79046Y-446018D01*
X-79387Y-445321D01*
X-79710Y-444615D01*
X-80016Y-443902D01*
X-80304Y-443181D01*
X-80574Y-442453D01*
X-80827Y-441720D01*
X-81061Y-440980D01*
X-81277Y-440234D01*
X-81475Y-439484D01*
X-81655Y-438729D01*
X-81815Y-437969D01*
X-81957Y-437206D01*
X-82081Y-436440D01*
X-82185Y-435671D01*
X-82271Y-434900D01*
X-82337Y-434126D01*
X-82385Y-433352D01*
X-82413Y-432576D01*
X-82423Y-431800D01*
X-65800Y-391800D02*
X-65800Y-371800D01*
X-65800Y-391800D02*
X-35800Y-391800D01*
X-35800Y-371800D01*
X-77707Y-431800D02*
X-77699Y-431140D01*
X-77675Y-430480D01*
X-77634Y-429821D01*
X-77577Y-429163D01*
X-77505Y-428506D01*
X-77416Y-427852D01*
X-77311Y-427200D01*
X-77190Y-426551D01*
X-77053Y-425905D01*
X-76901Y-425262D01*
X-76732Y-424624D01*
X-76548Y-423989D01*
X-76349Y-423360D01*
X-76134Y-422735D01*
X-75904Y-422116D01*
X-75659Y-421503D01*
X-75399Y-420896D01*
X-75124Y-420296D01*
X-74834Y-419702D01*
X-74530Y-419116D01*
X-74211Y-418538D01*
X-73879Y-417967D01*
X-73532Y-417405D01*
X-73172Y-416851D01*
X-72799Y-416307D01*
X-72412Y-415772D01*
X-72012Y-415246D01*
X-71599Y-414730D01*
X-71174Y-414225D01*
X-70737Y-413730D01*
X-70287Y-413247D01*
X-69826Y-412774D01*
X-69353Y-412313D01*
X-68870Y-411863D01*
X-68375Y-411426D01*
X-67870Y-411001D01*
X-67354Y-410588D01*
X-66828Y-410188D01*
X-66293Y-409801D01*
X-65749Y-409428D01*
X-65195Y-409068D01*
X-64633Y-408721D01*
X-64062Y-408389D01*
X-63484Y-408070D01*
X-62898Y-407766D01*
X-62304Y-407476D01*
X-61704Y-407201D01*
X-61097Y-406941D01*
X-60484Y-406696D01*
X-59865Y-406466D01*
X-59240Y-406251D01*
X-58611Y-406052D01*
X-57976Y-405868D01*
X-57338Y-405699D01*
X-56695Y-405547D01*
X-56049Y-405410D01*
X-55400Y-405289D01*
X-54748Y-405184D01*
X-54094Y-405095D01*
X-53437Y-405023D01*
X-52779Y-404966D01*
X-52120Y-404925D01*
X-51460Y-404901D01*
X-50800Y-404893D01*
X-50140Y-404901D01*
X-49480Y-404925D01*
X-48821Y-404966D01*
X-48163Y-405023D01*
X-47506Y-405095D01*
X-46852Y-405184D01*
X-46200Y-405289D01*
X-45551Y-405410D01*
X-44905Y-405547D01*
X-44262Y-405699D01*
X-43624Y-405868D01*
X-42989Y-406052D01*
X-42360Y-406251D01*
X-41735Y-406466D01*
X-41116Y-406696D01*
X-40503Y-406941D01*
X-39896Y-407201D01*
X-39296Y-407476D01*
X-38702Y-407766D01*
X-38116Y-408070D01*
X-37538Y-408389D01*
X-36967Y-408721D01*
X-36405Y-409068D01*
X-35851Y-409428D01*
X-35307Y-409801D01*
X-34772Y-410188D01*
X-34246Y-410588D01*
X-33730Y-411001D01*
X-33225Y-411426D01*
X-32730Y-411863D01*
X-32247Y-412313D01*
X-31774Y-412774D01*
X-31313Y-413247D01*
X-30863Y-413730D01*
X-30426Y-414225D01*
X-30001Y-414730D01*
X-29588Y-415246D01*
X-29188Y-415772D01*
X-28801Y-416307D01*
X-28428Y-416851D01*
X-28068Y-417405D01*
X-27721Y-417967D01*
X-27389Y-418538D01*
X-27070Y-419116D01*
X-26766Y-419702D01*
X-26476Y-420296D01*
X-26201Y-420896D01*
X-25941Y-421503D01*
X-25696Y-422116D01*
X-25466Y-422735D01*
X-25251Y-423360D01*
X-25052Y-423989D01*
X-24868Y-424624D01*
X-24699Y-425262D01*
X-24547Y-425905D01*
X-24410Y-426551D01*
X-24289Y-427200D01*
X-24184Y-427852D01*
X-24095Y-428506D01*
X-24023Y-429163D01*
X-23966Y-429821D01*
X-23925Y-430480D01*
X-23901Y-431140D01*
X-23893Y-431800D01*
X-23901Y-432460D01*
X-23925Y-433120D01*
X-23966Y-433779D01*
X-24023Y-434437D01*
X-24095Y-435094D01*
X-24184Y-435748D01*
X-24289Y-436400D01*
X-24410Y-437049D01*
X-24547Y-437695D01*
X-24699Y-438338D01*
X-24868Y-438976D01*
X-25052Y-439611D01*
X-25251Y-440240D01*
X-25466Y-440865D01*
X-25696Y-441484D01*
X-25941Y-442097D01*
X-26201Y-442704D01*
X-26476Y-443304D01*
X-26766Y-443898D01*
X-27070Y-444484D01*
X-27389Y-445062D01*
X-27721Y-445633D01*
X-28068Y-446195D01*
X-28428Y-446749D01*
X-28801Y-447293D01*
X-29188Y-447828D01*
X-29588Y-448354D01*
X-30001Y-448870D01*
X-30426Y-449375D01*
X-30863Y-449870D01*
X-31313Y-450353D01*
X-31774Y-450826D01*
X-32247Y-451287D01*
X-32730Y-451737D01*
X-33225Y-452174D01*
X-33730Y-452599D01*
X-34246Y-453012D01*
X-34772Y-453412D01*
X-35307Y-453799D01*
X-35851Y-454172D01*
X-36405Y-454532D01*
X-36967Y-454879D01*
X-37538Y-455211D01*
X-38116Y-455530D01*
X-38702Y-455834D01*
X-39296Y-456124D01*
X-39896Y-456399D01*
X-40503Y-456659D01*
X-41116Y-456904D01*
X-41735Y-457134D01*
X-42360Y-457349D01*
X-42989Y-457548D01*
X-43624Y-457732D01*
X-44262Y-457901D01*
X-44905Y-458053D01*
X-45551Y-458190D01*
X-46200Y-458311D01*
X-46852Y-458416D01*
X-47506Y-458505D01*
X-48163Y-458577D01*
X-48821Y-458634D01*
X-49480Y-458675D01*
X-50140Y-458699D01*
X-50800Y-458707D01*
X-51460Y-458699D01*
X-52120Y-458675D01*
X-52779Y-458634D01*
X-53437Y-458577D01*
X-54094Y-458505D01*
X-54748Y-458416D01*
X-55400Y-458311D01*
X-56049Y-458190D01*
X-56695Y-458053D01*
X-57338Y-457901D01*
X-57976Y-457732D01*
X-58611Y-457548D01*
X-59240Y-457349D01*
X-59865Y-457134D01*
X-60484Y-456904D01*
X-61097Y-456659D01*
X-61704Y-456399D01*
X-62304Y-456124D01*
X-62898Y-455834D01*
X-63484Y-455530D01*
X-64062Y-455211D01*
X-64633Y-454879D01*
X-65195Y-454532D01*
X-65749Y-454172D01*
X-66293Y-453799D01*
X-66828Y-453412D01*
X-67354Y-453012D01*
X-67870Y-452599D01*
X-68375Y-452174D01*
X-68870Y-451737D01*
X-69353Y-451287D01*
X-69826Y-450826D01*
X-70287Y-450353D01*
X-70737Y-449870D01*
X-71174Y-449375D01*
X-71599Y-448870D01*
X-72012Y-448354D01*
X-72412Y-447828D01*
X-72799Y-447293D01*
X-73172Y-446749D01*
X-73532Y-446195D01*
X-73879Y-445633D01*
X-74211Y-445062D01*
X-74530Y-444484D01*
X-74834Y-443898D01*
X-75124Y-443304D01*
X-75399Y-442704D01*
X-75659Y-442097D01*
X-75904Y-441484D01*
X-76134Y-440865D01*
X-76349Y-440240D01*
X-76548Y-439611D01*
X-76732Y-438976D01*
X-76901Y-438338D01*
X-77053Y-437695D01*
X-77190Y-437049D01*
X-77311Y-436400D01*
X-77416Y-435748D01*
X-77505Y-435094D01*
X-77577Y-434437D01*
X-77634Y-433779D01*
X-77675Y-433120D01*
X-77699Y-432460D01*
X-77707Y-431800D01*
X-52800Y-477800D02*
X-52800Y-498800D01*
X-48800Y-498800D01*
X-48800Y-476800D01*
D14*
X-102052Y-475996D02*
X-110490Y-475996D01*
X-102052Y-475996D02*
X-101939Y-475994D01*
X-101826Y-475988D01*
X-101713Y-475978D01*
X-101600Y-475964D01*
X-101488Y-475947D01*
X-101377Y-475925D01*
X-101267Y-475900D01*
X-101157Y-475870D01*
X-101049Y-475837D01*
X-100942Y-475800D01*
X-100836Y-475760D01*
X-100732Y-475715D01*
X-100629Y-475667D01*
X-100528Y-475616D01*
X-100429Y-475561D01*
X-100332Y-475503D01*
X-100237Y-475441D01*
X-100144Y-475376D01*
X-100054Y-475308D01*
X-99966Y-475237D01*
X-99880Y-475162D01*
X-99797Y-475085D01*
X-99717Y-475005D01*
X-99640Y-474922D01*
X-99565Y-474836D01*
X-99494Y-474748D01*
X-99426Y-474658D01*
X-99361Y-474565D01*
X-99299Y-474470D01*
X-99241Y-474373D01*
X-99186Y-474274D01*
X-99135Y-474173D01*
X-99087Y-474070D01*
X-99042Y-473966D01*
X-99002Y-473860D01*
X-98965Y-473753D01*
X-98932Y-473645D01*
X-98902Y-473535D01*
X-98877Y-473425D01*
X-98855Y-473314D01*
X-98838Y-473202D01*
X-98824Y-473089D01*
X-98814Y-472976D01*
X-98808Y-472863D01*
X-98806Y-472750D01*
X-98808Y-472637D01*
X-98814Y-472524D01*
X-98824Y-472411D01*
X-98838Y-472298D01*
X-98855Y-472186D01*
X-98877Y-472075D01*
X-98902Y-471965D01*
X-98932Y-471855D01*
X-98965Y-471747D01*
X-99002Y-471640D01*
X-99042Y-471534D01*
X-99087Y-471430D01*
X-99135Y-471327D01*
X-99186Y-471226D01*
X-99241Y-471127D01*
X-99299Y-471030D01*
X-99361Y-470935D01*
X-99426Y-470842D01*
X-99494Y-470752D01*
X-99565Y-470664D01*
X-99640Y-470578D01*
X-99717Y-470495D01*
X-99797Y-470415D01*
X-99880Y-470338D01*
X-99966Y-470263D01*
X-100054Y-470192D01*
X-100144Y-470124D01*
X-100237Y-470059D01*
X-100332Y-469997D01*
X-100429Y-469939D01*
X-100528Y-469884D01*
X-100629Y-469833D01*
X-100732Y-469785D01*
X-100836Y-469740D01*
X-100942Y-469700D01*
X-101049Y-469663D01*
X-101157Y-469630D01*
X-101267Y-469600D01*
X-101377Y-469575D01*
X-101488Y-469553D01*
X-101600Y-469536D01*
X-101713Y-469522D01*
X-101826Y-469512D01*
X-101939Y-469506D01*
X-102052Y-469504D01*
X-102052Y-469505D02*
X-110490Y-469505D01*
X-110490Y-461701D02*
X-98806Y-461701D01*
X-104648Y-461701D02*
X-105622Y-463324D01*
X-105621Y-463325D02*
X-105668Y-463398D01*
X-105717Y-463469D01*
X-105770Y-463539D01*
X-105826Y-463605D01*
X-105885Y-463669D01*
X-105946Y-463731D01*
X-106010Y-463789D01*
X-106077Y-463845D01*
X-106146Y-463897D01*
X-106218Y-463947D01*
X-106292Y-463993D01*
X-106367Y-464036D01*
X-106445Y-464075D01*
X-106524Y-464111D01*
X-106605Y-464143D01*
X-106687Y-464172D01*
X-106770Y-464197D01*
X-106854Y-464218D01*
X-106939Y-464235D01*
X-107025Y-464249D01*
X-107111Y-464258D01*
X-107198Y-464264D01*
X-107285Y-464266D01*
X-107372Y-464264D01*
X-107459Y-464258D01*
X-107545Y-464248D01*
X-107631Y-464235D01*
X-107716Y-464217D01*
X-107800Y-464196D01*
X-107883Y-464171D01*
X-107966Y-464142D01*
X-108046Y-464110D01*
X-108125Y-464074D01*
X-108203Y-464035D01*
X-108278Y-463992D01*
X-108352Y-463945D01*
X-108423Y-463896D01*
X-108493Y-463843D01*
X-108559Y-463788D01*
X-108623Y-463729D01*
X-108685Y-463668D01*
X-108744Y-463603D01*
X-108799Y-463537D01*
X-108852Y-463468D01*
X-108902Y-463396D01*
X-108948Y-463323D01*
X-108991Y-463247D01*
X-109030Y-463170D01*
X-109066Y-463091D01*
X-109099Y-463010D01*
X-109127Y-462928D01*
X-109153Y-462845D01*
X-109174Y-462761D01*
X-109191Y-462675D01*
X-109192Y-462675D02*
X-109216Y-462535D01*
X-109236Y-462393D01*
X-109252Y-462252D01*
X-109263Y-462110D01*
X-109271Y-461967D01*
X-109275Y-461825D01*
X-109276Y-461682D01*
X-109272Y-461539D01*
X-109264Y-461397D01*
X-109252Y-461255D01*
X-109236Y-461113D01*
X-109217Y-460972D01*
X-109193Y-460831D01*
X-109166Y-460691D01*
X-109134Y-460552D01*
X-109099Y-460414D01*
X-109060Y-460276D01*
X-109017Y-460140D01*
X-108971Y-460006D01*
X-108920Y-459872D01*
X-108867Y-459740D01*
X-108809Y-459610D01*
X-108748Y-459481D01*
X-108683Y-459354D01*
X-108615Y-459228D01*
X-108543Y-459105D01*
X-104648Y-461701D02*
X-103674Y-460079D01*
X-103675Y-460078D02*
X-103628Y-460005D01*
X-103579Y-459934D01*
X-103526Y-459864D01*
X-103470Y-459798D01*
X-103411Y-459734D01*
X-103350Y-459672D01*
X-103286Y-459614D01*
X-103219Y-459558D01*
X-103150Y-459506D01*
X-103078Y-459456D01*
X-103004Y-459410D01*
X-102929Y-459367D01*
X-102851Y-459328D01*
X-102772Y-459292D01*
X-102691Y-459260D01*
X-102609Y-459231D01*
X-102526Y-459206D01*
X-102442Y-459185D01*
X-102357Y-459168D01*
X-102271Y-459154D01*
X-102185Y-459145D01*
X-102098Y-459139D01*
X-102011Y-459137D01*
X-101924Y-459139D01*
X-101837Y-459145D01*
X-101751Y-459155D01*
X-101665Y-459168D01*
X-101580Y-459186D01*
X-101496Y-459207D01*
X-101413Y-459232D01*
X-101330Y-459261D01*
X-101250Y-459293D01*
X-101171Y-459329D01*
X-101093Y-459368D01*
X-101018Y-459411D01*
X-100944Y-459458D01*
X-100873Y-459507D01*
X-100803Y-459560D01*
X-100737Y-459615D01*
X-100673Y-459674D01*
X-100611Y-459735D01*
X-100552Y-459800D01*
X-100497Y-459866D01*
X-100444Y-459935D01*
X-100394Y-460007D01*
X-100348Y-460080D01*
X-100305Y-460156D01*
X-100266Y-460233D01*
X-100230Y-460312D01*
X-100197Y-460393D01*
X-100169Y-460475D01*
X-100143Y-460558D01*
X-100122Y-460642D01*
X-100105Y-460727D01*
X-100104Y-460728D02*
X-100080Y-460868D01*
X-100060Y-461010D01*
X-100044Y-461151D01*
X-100033Y-461293D01*
X-100025Y-461436D01*
X-100021Y-461578D01*
X-100020Y-461721D01*
X-100024Y-461864D01*
X-100032Y-462006D01*
X-100044Y-462148D01*
X-100060Y-462290D01*
X-100079Y-462431D01*
X-100103Y-462572D01*
X-100130Y-462712D01*
X-100162Y-462851D01*
X-100197Y-462989D01*
X-100236Y-463127D01*
X-100279Y-463263D01*
X-100325Y-463397D01*
X-100376Y-463531D01*
X-100429Y-463663D01*
X-100487Y-463794D01*
X-100548Y-463922D01*
X-100613Y-464049D01*
X-100681Y-464175D01*
X-100753Y-464298D01*
X-107894Y-454279D02*
X-110490Y-451034D01*
X-98806Y-451034D01*
X-98806Y-454279D02*
X-98806Y-447788D01*
D11*
X-180100Y-371800D02*
X-210100Y-371800D01*
X-180100Y-371800D02*
X-150100Y-371800D01*
X-120100Y-371800D01*
X-210100Y-371800D02*
X-210100Y-476800D01*
X-163100Y-476800D01*
X-120100Y-476800D01*
X-120100Y-371800D01*
X-196723Y-431800D02*
X-196713Y-431024D01*
X-196685Y-430248D01*
X-196637Y-429474D01*
X-196571Y-428700D01*
X-196485Y-427929D01*
X-196381Y-427160D01*
X-196257Y-426394D01*
X-196115Y-425631D01*
X-195955Y-424871D01*
X-195775Y-424116D01*
X-195577Y-423366D01*
X-195361Y-422620D01*
X-195127Y-421880D01*
X-194874Y-421147D01*
X-194604Y-420419D01*
X-194316Y-419698D01*
X-194010Y-418985D01*
X-193687Y-418279D01*
X-193346Y-417582D01*
X-192989Y-416893D01*
X-192615Y-416213D01*
X-192224Y-415543D01*
X-191817Y-414882D01*
X-191394Y-414231D01*
X-190954Y-413591D01*
X-190500Y-412962D01*
X-190030Y-412345D01*
X-189545Y-411739D01*
X-189045Y-411145D01*
X-188531Y-410563D01*
X-188003Y-409995D01*
X-187461Y-409439D01*
X-186905Y-408897D01*
X-186337Y-408369D01*
X-185755Y-407855D01*
X-185161Y-407355D01*
X-184555Y-406870D01*
X-183938Y-406400D01*
X-183309Y-405946D01*
X-182669Y-405506D01*
X-182018Y-405083D01*
X-181357Y-404676D01*
X-180687Y-404285D01*
X-180007Y-403911D01*
X-179318Y-403554D01*
X-178621Y-403213D01*
X-177915Y-402890D01*
X-177202Y-402584D01*
X-176481Y-402296D01*
X-175753Y-402026D01*
X-175020Y-401773D01*
X-174280Y-401539D01*
X-173534Y-401323D01*
X-172784Y-401125D01*
X-172029Y-400945D01*
X-171269Y-400785D01*
X-170506Y-400643D01*
X-169740Y-400519D01*
X-168971Y-400415D01*
X-168200Y-400329D01*
X-167426Y-400263D01*
X-166652Y-400215D01*
X-165876Y-400187D01*
X-165100Y-400177D01*
X-164324Y-400187D01*
X-163548Y-400215D01*
X-162774Y-400263D01*
X-162000Y-400329D01*
X-161229Y-400415D01*
X-160460Y-400519D01*
X-159694Y-400643D01*
X-158931Y-400785D01*
X-158171Y-400945D01*
X-157416Y-401125D01*
X-156666Y-401323D01*
X-155920Y-401539D01*
X-155180Y-401773D01*
X-154447Y-402026D01*
X-153719Y-402296D01*
X-152998Y-402584D01*
X-152285Y-402890D01*
X-151579Y-403213D01*
X-150882Y-403554D01*
X-150193Y-403911D01*
X-149513Y-404285D01*
X-148843Y-404676D01*
X-148182Y-405083D01*
X-147531Y-405506D01*
X-146891Y-405946D01*
X-146262Y-406400D01*
X-145645Y-406870D01*
X-145039Y-407355D01*
X-144445Y-407855D01*
X-143863Y-408369D01*
X-143295Y-408897D01*
X-142739Y-409439D01*
X-142197Y-409995D01*
X-141669Y-410563D01*
X-141155Y-411145D01*
X-140655Y-411739D01*
X-140170Y-412345D01*
X-139700Y-412962D01*
X-139246Y-413591D01*
X-138806Y-414231D01*
X-138383Y-414882D01*
X-137976Y-415543D01*
X-137585Y-416213D01*
X-137211Y-416893D01*
X-136854Y-417582D01*
X-136513Y-418279D01*
X-136190Y-418985D01*
X-135884Y-419698D01*
X-135596Y-420419D01*
X-135326Y-421147D01*
X-135073Y-421880D01*
X-134839Y-422620D01*
X-134623Y-423366D01*
X-134425Y-424116D01*
X-134245Y-424871D01*
X-134085Y-425631D01*
X-133943Y-426394D01*
X-133819Y-427160D01*
X-133715Y-427929D01*
X-133629Y-428700D01*
X-133563Y-429474D01*
X-133515Y-430248D01*
X-133487Y-431024D01*
X-133477Y-431800D01*
X-133487Y-432576D01*
X-133515Y-433352D01*
X-133563Y-434126D01*
X-133629Y-434900D01*
X-133715Y-435671D01*
X-133819Y-436440D01*
X-133943Y-437206D01*
X-134085Y-437969D01*
X-134245Y-438729D01*
X-134425Y-439484D01*
X-134623Y-440234D01*
X-134839Y-440980D01*
X-135073Y-441720D01*
X-135326Y-442453D01*
X-135596Y-443181D01*
X-135884Y-443902D01*
X-136190Y-444615D01*
X-136513Y-445321D01*
X-136854Y-446018D01*
X-137211Y-446707D01*
X-137585Y-447387D01*
X-137976Y-448057D01*
X-138383Y-448718D01*
X-138806Y-449369D01*
X-139246Y-450009D01*
X-139700Y-450638D01*
X-140170Y-451255D01*
X-140655Y-451861D01*
X-141155Y-452455D01*
X-141669Y-453037D01*
X-142197Y-453605D01*
X-142739Y-454161D01*
X-143295Y-454703D01*
X-143863Y-455231D01*
X-144445Y-455745D01*
X-145039Y-456245D01*
X-145645Y-456730D01*
X-146262Y-457200D01*
X-146891Y-457654D01*
X-147531Y-458094D01*
X-148182Y-458517D01*
X-148843Y-458924D01*
X-149513Y-459315D01*
X-150193Y-459689D01*
X-150882Y-460046D01*
X-151579Y-460387D01*
X-152285Y-460710D01*
X-152998Y-461016D01*
X-153719Y-461304D01*
X-154447Y-461574D01*
X-155180Y-461827D01*
X-155920Y-462061D01*
X-156666Y-462277D01*
X-157416Y-462475D01*
X-158171Y-462655D01*
X-158931Y-462815D01*
X-159694Y-462957D01*
X-160460Y-463081D01*
X-161229Y-463185D01*
X-162000Y-463271D01*
X-162774Y-463337D01*
X-163548Y-463385D01*
X-164324Y-463413D01*
X-165100Y-463423D01*
X-165876Y-463413D01*
X-166652Y-463385D01*
X-167426Y-463337D01*
X-168200Y-463271D01*
X-168971Y-463185D01*
X-169740Y-463081D01*
X-170506Y-462957D01*
X-171269Y-462815D01*
X-172029Y-462655D01*
X-172784Y-462475D01*
X-173534Y-462277D01*
X-174280Y-462061D01*
X-175020Y-461827D01*
X-175753Y-461574D01*
X-176481Y-461304D01*
X-177202Y-461016D01*
X-177915Y-460710D01*
X-178621Y-460387D01*
X-179318Y-460046D01*
X-180007Y-459689D01*
X-180687Y-459315D01*
X-181357Y-458924D01*
X-182018Y-458517D01*
X-182669Y-458094D01*
X-183309Y-457654D01*
X-183938Y-457200D01*
X-184555Y-456730D01*
X-185161Y-456245D01*
X-185755Y-455745D01*
X-186337Y-455231D01*
X-186905Y-454703D01*
X-187461Y-454161D01*
X-188003Y-453605D01*
X-188531Y-453037D01*
X-189045Y-452455D01*
X-189545Y-451861D01*
X-190030Y-451255D01*
X-190500Y-450638D01*
X-190954Y-450009D01*
X-191394Y-449369D01*
X-191817Y-448718D01*
X-192224Y-448057D01*
X-192615Y-447387D01*
X-192989Y-446707D01*
X-193346Y-446018D01*
X-193687Y-445321D01*
X-194010Y-444615D01*
X-194316Y-443902D01*
X-194604Y-443181D01*
X-194874Y-442453D01*
X-195127Y-441720D01*
X-195361Y-440980D01*
X-195577Y-440234D01*
X-195775Y-439484D01*
X-195955Y-438729D01*
X-196115Y-437969D01*
X-196257Y-437206D01*
X-196381Y-436440D01*
X-196485Y-435671D01*
X-196571Y-434900D01*
X-196637Y-434126D01*
X-196685Y-433352D01*
X-196713Y-432576D01*
X-196723Y-431800D01*
X-180100Y-391800D02*
X-180100Y-371800D01*
X-180100Y-391800D02*
X-150100Y-391800D01*
X-150100Y-371800D01*
X-192007Y-431800D02*
X-191999Y-431140D01*
X-191975Y-430480D01*
X-191934Y-429821D01*
X-191877Y-429163D01*
X-191805Y-428506D01*
X-191716Y-427852D01*
X-191611Y-427200D01*
X-191490Y-426551D01*
X-191353Y-425905D01*
X-191201Y-425262D01*
X-191032Y-424624D01*
X-190848Y-423989D01*
X-190649Y-423360D01*
X-190434Y-422735D01*
X-190204Y-422116D01*
X-189959Y-421503D01*
X-189699Y-420896D01*
X-189424Y-420296D01*
X-189134Y-419702D01*
X-188830Y-419116D01*
X-188511Y-418538D01*
X-188179Y-417967D01*
X-187832Y-417405D01*
X-187472Y-416851D01*
X-187099Y-416307D01*
X-186712Y-415772D01*
X-186312Y-415246D01*
X-185899Y-414730D01*
X-185474Y-414225D01*
X-185037Y-413730D01*
X-184587Y-413247D01*
X-184126Y-412774D01*
X-183653Y-412313D01*
X-183170Y-411863D01*
X-182675Y-411426D01*
X-182170Y-411001D01*
X-181654Y-410588D01*
X-181128Y-410188D01*
X-180593Y-409801D01*
X-180049Y-409428D01*
X-179495Y-409068D01*
X-178933Y-408721D01*
X-178362Y-408389D01*
X-177784Y-408070D01*
X-177198Y-407766D01*
X-176604Y-407476D01*
X-176004Y-407201D01*
X-175397Y-406941D01*
X-174784Y-406696D01*
X-174165Y-406466D01*
X-173540Y-406251D01*
X-172911Y-406052D01*
X-172276Y-405868D01*
X-171638Y-405699D01*
X-170995Y-405547D01*
X-170349Y-405410D01*
X-169700Y-405289D01*
X-169048Y-405184D01*
X-168394Y-405095D01*
X-167737Y-405023D01*
X-167079Y-404966D01*
X-166420Y-404925D01*
X-165760Y-404901D01*
X-165100Y-404893D01*
X-164440Y-404901D01*
X-163780Y-404925D01*
X-163121Y-404966D01*
X-162463Y-405023D01*
X-161806Y-405095D01*
X-161152Y-405184D01*
X-160500Y-405289D01*
X-159851Y-405410D01*
X-159205Y-405547D01*
X-158562Y-405699D01*
X-157924Y-405868D01*
X-157289Y-406052D01*
X-156660Y-406251D01*
X-156035Y-406466D01*
X-155416Y-406696D01*
X-154803Y-406941D01*
X-154196Y-407201D01*
X-153596Y-407476D01*
X-153002Y-407766D01*
X-152416Y-408070D01*
X-151838Y-408389D01*
X-151267Y-408721D01*
X-150705Y-409068D01*
X-150151Y-409428D01*
X-149607Y-409801D01*
X-149072Y-410188D01*
X-148546Y-410588D01*
X-148030Y-411001D01*
X-147525Y-411426D01*
X-147030Y-411863D01*
X-146547Y-412313D01*
X-146074Y-412774D01*
X-145613Y-413247D01*
X-145163Y-413730D01*
X-144726Y-414225D01*
X-144301Y-414730D01*
X-143888Y-415246D01*
X-143488Y-415772D01*
X-143101Y-416307D01*
X-142728Y-416851D01*
X-142368Y-417405D01*
X-142021Y-417967D01*
X-141689Y-418538D01*
X-141370Y-419116D01*
X-141066Y-419702D01*
X-140776Y-420296D01*
X-140501Y-420896D01*
X-140241Y-421503D01*
X-139996Y-422116D01*
X-139766Y-422735D01*
X-139551Y-423360D01*
X-139352Y-423989D01*
X-139168Y-424624D01*
X-138999Y-425262D01*
X-138847Y-425905D01*
X-138710Y-426551D01*
X-138589Y-427200D01*
X-138484Y-427852D01*
X-138395Y-428506D01*
X-138323Y-429163D01*
X-138266Y-429821D01*
X-138225Y-430480D01*
X-138201Y-431140D01*
X-138193Y-431800D01*
X-138201Y-432460D01*
X-138225Y-433120D01*
X-138266Y-433779D01*
X-138323Y-434437D01*
X-138395Y-435094D01*
X-138484Y-435748D01*
X-138589Y-436400D01*
X-138710Y-437049D01*
X-138847Y-437695D01*
X-138999Y-438338D01*
X-139168Y-438976D01*
X-139352Y-439611D01*
X-139551Y-440240D01*
X-139766Y-440865D01*
X-139996Y-441484D01*
X-140241Y-442097D01*
X-140501Y-442704D01*
X-140776Y-443304D01*
X-141066Y-443898D01*
X-141370Y-444484D01*
X-141689Y-445062D01*
X-142021Y-445633D01*
X-142368Y-446195D01*
X-142728Y-446749D01*
X-143101Y-447293D01*
X-143488Y-447828D01*
X-143888Y-448354D01*
X-144301Y-448870D01*
X-144726Y-449375D01*
X-145163Y-449870D01*
X-145613Y-450353D01*
X-146074Y-450826D01*
X-146547Y-451287D01*
X-147030Y-451737D01*
X-147525Y-452174D01*
X-148030Y-452599D01*
X-148546Y-453012D01*
X-149072Y-453412D01*
X-149607Y-453799D01*
X-150151Y-454172D01*
X-150705Y-454532D01*
X-151267Y-454879D01*
X-151838Y-455211D01*
X-152416Y-455530D01*
X-153002Y-455834D01*
X-153596Y-456124D01*
X-154196Y-456399D01*
X-154803Y-456659D01*
X-155416Y-456904D01*
X-156035Y-457134D01*
X-156660Y-457349D01*
X-157289Y-457548D01*
X-157924Y-457732D01*
X-158562Y-457901D01*
X-159205Y-458053D01*
X-159851Y-458190D01*
X-160500Y-458311D01*
X-161152Y-458416D01*
X-161806Y-458505D01*
X-162463Y-458577D01*
X-163121Y-458634D01*
X-163780Y-458675D01*
X-164440Y-458699D01*
X-165100Y-458707D01*
X-165760Y-458699D01*
X-166420Y-458675D01*
X-167079Y-458634D01*
X-167737Y-458577D01*
X-168394Y-458505D01*
X-169048Y-458416D01*
X-169700Y-458311D01*
X-170349Y-458190D01*
X-170995Y-458053D01*
X-171638Y-457901D01*
X-172276Y-457732D01*
X-172911Y-457548D01*
X-173540Y-457349D01*
X-174165Y-457134D01*
X-174784Y-456904D01*
X-175397Y-456659D01*
X-176004Y-456399D01*
X-176604Y-456124D01*
X-177198Y-455834D01*
X-177784Y-455530D01*
X-178362Y-455211D01*
X-178933Y-454879D01*
X-179495Y-454532D01*
X-180049Y-454172D01*
X-180593Y-453799D01*
X-181128Y-453412D01*
X-181654Y-453012D01*
X-182170Y-452599D01*
X-182675Y-452174D01*
X-183170Y-451737D01*
X-183653Y-451287D01*
X-184126Y-450826D01*
X-184587Y-450353D01*
X-185037Y-449870D01*
X-185474Y-449375D01*
X-185899Y-448870D01*
X-186312Y-448354D01*
X-186712Y-447828D01*
X-187099Y-447293D01*
X-187472Y-446749D01*
X-187832Y-446195D01*
X-188179Y-445633D01*
X-188511Y-445062D01*
X-188830Y-444484D01*
X-189134Y-443898D01*
X-189424Y-443304D01*
X-189699Y-442704D01*
X-189959Y-442097D01*
X-190204Y-441484D01*
X-190434Y-440865D01*
X-190649Y-440240D01*
X-190848Y-439611D01*
X-191032Y-438976D01*
X-191201Y-438338D01*
X-191353Y-437695D01*
X-191490Y-437049D01*
X-191611Y-436400D01*
X-191716Y-435748D01*
X-191805Y-435094D01*
X-191877Y-434437D01*
X-191934Y-433779D01*
X-191975Y-433120D01*
X-191999Y-432460D01*
X-192007Y-431800D01*
X-167100Y-477800D02*
X-167100Y-498800D01*
X-163100Y-498800D01*
X-163100Y-476800D01*
D14*
X-216352Y-475996D02*
X-224790Y-475996D01*
X-216352Y-475996D02*
X-216239Y-475994D01*
X-216126Y-475988D01*
X-216013Y-475978D01*
X-215900Y-475964D01*
X-215788Y-475947D01*
X-215677Y-475925D01*
X-215567Y-475900D01*
X-215457Y-475870D01*
X-215349Y-475837D01*
X-215242Y-475800D01*
X-215136Y-475760D01*
X-215032Y-475715D01*
X-214929Y-475667D01*
X-214828Y-475616D01*
X-214729Y-475561D01*
X-214632Y-475503D01*
X-214537Y-475441D01*
X-214444Y-475376D01*
X-214354Y-475308D01*
X-214266Y-475237D01*
X-214180Y-475162D01*
X-214097Y-475085D01*
X-214017Y-475005D01*
X-213940Y-474922D01*
X-213865Y-474836D01*
X-213794Y-474748D01*
X-213726Y-474658D01*
X-213661Y-474565D01*
X-213599Y-474470D01*
X-213541Y-474373D01*
X-213486Y-474274D01*
X-213435Y-474173D01*
X-213387Y-474070D01*
X-213342Y-473966D01*
X-213302Y-473860D01*
X-213265Y-473753D01*
X-213232Y-473645D01*
X-213202Y-473535D01*
X-213177Y-473425D01*
X-213155Y-473314D01*
X-213138Y-473202D01*
X-213124Y-473089D01*
X-213114Y-472976D01*
X-213108Y-472863D01*
X-213106Y-472750D01*
X-213108Y-472637D01*
X-213114Y-472524D01*
X-213124Y-472411D01*
X-213138Y-472298D01*
X-213155Y-472186D01*
X-213177Y-472075D01*
X-213202Y-471965D01*
X-213232Y-471855D01*
X-213265Y-471747D01*
X-213302Y-471640D01*
X-213342Y-471534D01*
X-213387Y-471430D01*
X-213435Y-471327D01*
X-213486Y-471226D01*
X-213541Y-471127D01*
X-213599Y-471030D01*
X-213661Y-470935D01*
X-213726Y-470842D01*
X-213794Y-470752D01*
X-213865Y-470664D01*
X-213940Y-470578D01*
X-214017Y-470495D01*
X-214097Y-470415D01*
X-214180Y-470338D01*
X-214266Y-470263D01*
X-214354Y-470192D01*
X-214444Y-470124D01*
X-214537Y-470059D01*
X-214632Y-469997D01*
X-214729Y-469939D01*
X-214828Y-469884D01*
X-214929Y-469833D01*
X-215032Y-469785D01*
X-215136Y-469740D01*
X-215242Y-469700D01*
X-215349Y-469663D01*
X-215457Y-469630D01*
X-215567Y-469600D01*
X-215677Y-469575D01*
X-215788Y-469553D01*
X-215900Y-469536D01*
X-216013Y-469522D01*
X-216126Y-469512D01*
X-216239Y-469506D01*
X-216352Y-469504D01*
X-216352Y-469505D02*
X-224790Y-469505D01*
X-224790Y-461701D02*
X-213106Y-461701D01*
X-218948Y-461701D02*
X-219922Y-463324D01*
X-219921Y-463325D02*
X-219968Y-463398D01*
X-220017Y-463469D01*
X-220070Y-463539D01*
X-220126Y-463605D01*
X-220185Y-463669D01*
X-220246Y-463731D01*
X-220310Y-463789D01*
X-220377Y-463845D01*
X-220446Y-463897D01*
X-220518Y-463947D01*
X-220592Y-463993D01*
X-220667Y-464036D01*
X-220745Y-464075D01*
X-220824Y-464111D01*
X-220905Y-464143D01*
X-220987Y-464172D01*
X-221070Y-464197D01*
X-221154Y-464218D01*
X-221239Y-464235D01*
X-221325Y-464249D01*
X-221411Y-464258D01*
X-221498Y-464264D01*
X-221585Y-464266D01*
X-221672Y-464264D01*
X-221759Y-464258D01*
X-221845Y-464248D01*
X-221931Y-464235D01*
X-222016Y-464217D01*
X-222100Y-464196D01*
X-222183Y-464171D01*
X-222266Y-464142D01*
X-222346Y-464110D01*
X-222425Y-464074D01*
X-222503Y-464035D01*
X-222578Y-463992D01*
X-222652Y-463945D01*
X-222723Y-463896D01*
X-222793Y-463843D01*
X-222859Y-463788D01*
X-222923Y-463729D01*
X-222985Y-463668D01*
X-223044Y-463603D01*
X-223099Y-463537D01*
X-223152Y-463468D01*
X-223202Y-463396D01*
X-223248Y-463323D01*
X-223291Y-463247D01*
X-223330Y-463170D01*
X-223366Y-463091D01*
X-223399Y-463010D01*
X-223427Y-462928D01*
X-223453Y-462845D01*
X-223474Y-462761D01*
X-223491Y-462675D01*
X-223492Y-462675D02*
X-223516Y-462535D01*
X-223536Y-462393D01*
X-223552Y-462252D01*
X-223563Y-462110D01*
X-223571Y-461967D01*
X-223575Y-461825D01*
X-223576Y-461682D01*
X-223572Y-461539D01*
X-223564Y-461397D01*
X-223552Y-461255D01*
X-223536Y-461113D01*
X-223517Y-460972D01*
X-223493Y-460831D01*
X-223466Y-460691D01*
X-223434Y-460552D01*
X-223399Y-460414D01*
X-223360Y-460276D01*
X-223317Y-460140D01*
X-223271Y-460006D01*
X-223220Y-459872D01*
X-223167Y-459740D01*
X-223109Y-459610D01*
X-223048Y-459481D01*
X-222983Y-459354D01*
X-222915Y-459228D01*
X-222843Y-459105D01*
X-218948Y-461701D02*
X-217974Y-460079D01*
X-217975Y-460078D02*
X-217928Y-460005D01*
X-217879Y-459934D01*
X-217826Y-459864D01*
X-217770Y-459798D01*
X-217711Y-459734D01*
X-217650Y-459672D01*
X-217586Y-459614D01*
X-217519Y-459558D01*
X-217450Y-459506D01*
X-217378Y-459456D01*
X-217304Y-459410D01*
X-217229Y-459367D01*
X-217151Y-459328D01*
X-217072Y-459292D01*
X-216991Y-459260D01*
X-216909Y-459231D01*
X-216826Y-459206D01*
X-216742Y-459185D01*
X-216657Y-459168D01*
X-216571Y-459154D01*
X-216485Y-459145D01*
X-216398Y-459139D01*
X-216311Y-459137D01*
X-216224Y-459139D01*
X-216137Y-459145D01*
X-216051Y-459155D01*
X-215965Y-459168D01*
X-215880Y-459186D01*
X-215796Y-459207D01*
X-215713Y-459232D01*
X-215630Y-459261D01*
X-215550Y-459293D01*
X-215471Y-459329D01*
X-215393Y-459368D01*
X-215318Y-459411D01*
X-215244Y-459458D01*
X-215173Y-459507D01*
X-215103Y-459560D01*
X-215037Y-459615D01*
X-214973Y-459674D01*
X-214911Y-459735D01*
X-214852Y-459800D01*
X-214797Y-459866D01*
X-214744Y-459935D01*
X-214694Y-460007D01*
X-214648Y-460080D01*
X-214605Y-460156D01*
X-214566Y-460233D01*
X-214530Y-460312D01*
X-214497Y-460393D01*
X-214469Y-460475D01*
X-214443Y-460558D01*
X-214422Y-460642D01*
X-214405Y-460727D01*
X-214404Y-460728D02*
X-214380Y-460868D01*
X-214360Y-461010D01*
X-214344Y-461151D01*
X-214333Y-461293D01*
X-214325Y-461436D01*
X-214321Y-461578D01*
X-214320Y-461721D01*
X-214324Y-461864D01*
X-214332Y-462006D01*
X-214344Y-462148D01*
X-214360Y-462290D01*
X-214379Y-462431D01*
X-214403Y-462572D01*
X-214430Y-462712D01*
X-214462Y-462851D01*
X-214497Y-462989D01*
X-214536Y-463127D01*
X-214579Y-463263D01*
X-214625Y-463397D01*
X-214676Y-463531D01*
X-214729Y-463663D01*
X-214787Y-463794D01*
X-214848Y-463922D01*
X-214913Y-464049D01*
X-214981Y-464175D01*
X-215053Y-464298D01*
X-224790Y-450709D02*
X-224788Y-450602D01*
X-224782Y-450496D01*
X-224772Y-450390D01*
X-224759Y-450284D01*
X-224741Y-450178D01*
X-224720Y-450074D01*
X-224695Y-449970D01*
X-224666Y-449867D01*
X-224634Y-449766D01*
X-224597Y-449666D01*
X-224557Y-449567D01*
X-224514Y-449469D01*
X-224467Y-449373D01*
X-224416Y-449279D01*
X-224362Y-449187D01*
X-224305Y-449097D01*
X-224245Y-449009D01*
X-224181Y-448924D01*
X-224114Y-448841D01*
X-224044Y-448760D01*
X-223972Y-448682D01*
X-223896Y-448606D01*
X-223818Y-448534D01*
X-223737Y-448464D01*
X-223654Y-448397D01*
X-223569Y-448333D01*
X-223481Y-448273D01*
X-223391Y-448216D01*
X-223299Y-448162D01*
X-223205Y-448111D01*
X-223109Y-448064D01*
X-223011Y-448021D01*
X-222912Y-447981D01*
X-222812Y-447944D01*
X-222711Y-447912D01*
X-222608Y-447883D01*
X-222504Y-447858D01*
X-222400Y-447837D01*
X-222294Y-447819D01*
X-222188Y-447806D01*
X-222082Y-447796D01*
X-221976Y-447790D01*
X-221869Y-447788D01*
X-224790Y-450709D02*
X-224788Y-450830D01*
X-224782Y-450951D01*
X-224772Y-451071D01*
X-224759Y-451192D01*
X-224741Y-451311D01*
X-224720Y-451431D01*
X-224695Y-451549D01*
X-224666Y-451666D01*
X-224633Y-451783D01*
X-224597Y-451898D01*
X-224556Y-452012D01*
X-224513Y-452125D01*
X-224465Y-452237D01*
X-224414Y-452346D01*
X-224359Y-452454D01*
X-224301Y-452561D01*
X-224240Y-452665D01*
X-224175Y-452767D01*
X-224107Y-452867D01*
X-224036Y-452965D01*
X-223962Y-453061D01*
X-223885Y-453154D01*
X-223804Y-453244D01*
X-223721Y-453332D01*
X-223635Y-453417D01*
X-223546Y-453500D01*
X-223455Y-453579D01*
X-223361Y-453656D01*
X-223265Y-453729D01*
X-223167Y-453799D01*
X-223066Y-453866D01*
X-222963Y-453930D01*
X-222858Y-453991D01*
X-222751Y-454048D01*
X-222643Y-454101D01*
X-222533Y-454151D01*
X-222421Y-454197D01*
X-222308Y-454240D01*
X-222193Y-454279D01*
X-219597Y-448762D02*
X-219675Y-448683D01*
X-219755Y-448607D01*
X-219838Y-448534D01*
X-219924Y-448464D01*
X-220011Y-448397D01*
X-220102Y-448333D01*
X-220194Y-448273D01*
X-220288Y-448215D01*
X-220385Y-448161D01*
X-220483Y-448111D01*
X-220583Y-448064D01*
X-220684Y-448020D01*
X-220787Y-447980D01*
X-220892Y-447944D01*
X-220997Y-447912D01*
X-221104Y-447883D01*
X-221211Y-447858D01*
X-221320Y-447836D01*
X-221429Y-447819D01*
X-221538Y-447805D01*
X-221648Y-447796D01*
X-221759Y-447790D01*
X-221869Y-447788D01*
X-219597Y-448762D02*
X-213106Y-454279D01*
X-213106Y-447788D01*
D11*
X-294400Y-371800D02*
X-324400Y-371800D01*
X-294400Y-371800D02*
X-264400Y-371800D01*
X-234400Y-371800D01*
X-324400Y-371800D02*
X-324400Y-476800D01*
X-277400Y-476800D01*
X-234400Y-476800D01*
X-234400Y-371800D01*
X-311023Y-431800D02*
X-311013Y-431024D01*
X-310985Y-430248D01*
X-310937Y-429474D01*
X-310871Y-428700D01*
X-310785Y-427929D01*
X-310681Y-427160D01*
X-310557Y-426394D01*
X-310415Y-425631D01*
X-310255Y-424871D01*
X-310075Y-424116D01*
X-309877Y-423366D01*
X-309661Y-422620D01*
X-309427Y-421880D01*
X-309174Y-421147D01*
X-308904Y-420419D01*
X-308616Y-419698D01*
X-308310Y-418985D01*
X-307987Y-418279D01*
X-307646Y-417582D01*
X-307289Y-416893D01*
X-306915Y-416213D01*
X-306524Y-415543D01*
X-306117Y-414882D01*
X-305694Y-414231D01*
X-305254Y-413591D01*
X-304800Y-412962D01*
X-304330Y-412345D01*
X-303845Y-411739D01*
X-303345Y-411145D01*
X-302831Y-410563D01*
X-302303Y-409995D01*
X-301761Y-409439D01*
X-301205Y-408897D01*
X-300637Y-408369D01*
X-300055Y-407855D01*
X-299461Y-407355D01*
X-298855Y-406870D01*
X-298238Y-406400D01*
X-297609Y-405946D01*
X-296969Y-405506D01*
X-296318Y-405083D01*
X-295657Y-404676D01*
X-294987Y-404285D01*
X-294307Y-403911D01*
X-293618Y-403554D01*
X-292921Y-403213D01*
X-292215Y-402890D01*
X-291502Y-402584D01*
X-290781Y-402296D01*
X-290053Y-402026D01*
X-289320Y-401773D01*
X-288580Y-401539D01*
X-287834Y-401323D01*
X-287084Y-401125D01*
X-286329Y-400945D01*
X-285569Y-400785D01*
X-284806Y-400643D01*
X-284040Y-400519D01*
X-283271Y-400415D01*
X-282500Y-400329D01*
X-281726Y-400263D01*
X-280952Y-400215D01*
X-280176Y-400187D01*
X-279400Y-400177D01*
X-278624Y-400187D01*
X-277848Y-400215D01*
X-277074Y-400263D01*
X-276300Y-400329D01*
X-275529Y-400415D01*
X-274760Y-400519D01*
X-273994Y-400643D01*
X-273231Y-400785D01*
X-272471Y-400945D01*
X-271716Y-401125D01*
X-270966Y-401323D01*
X-270220Y-401539D01*
X-269480Y-401773D01*
X-268747Y-402026D01*
X-268019Y-402296D01*
X-267298Y-402584D01*
X-266585Y-402890D01*
X-265879Y-403213D01*
X-265182Y-403554D01*
X-264493Y-403911D01*
X-263813Y-404285D01*
X-263143Y-404676D01*
X-262482Y-405083D01*
X-261831Y-405506D01*
X-261191Y-405946D01*
X-260562Y-406400D01*
X-259945Y-406870D01*
X-259339Y-407355D01*
X-258745Y-407855D01*
X-258163Y-408369D01*
X-257595Y-408897D01*
X-257039Y-409439D01*
X-256497Y-409995D01*
X-255969Y-410563D01*
X-255455Y-411145D01*
X-254955Y-411739D01*
X-254470Y-412345D01*
X-254000Y-412962D01*
X-253546Y-413591D01*
X-253106Y-414231D01*
X-252683Y-414882D01*
X-252276Y-415543D01*
X-251885Y-416213D01*
X-251511Y-416893D01*
X-251154Y-417582D01*
X-250813Y-418279D01*
X-250490Y-418985D01*
X-250184Y-419698D01*
X-249896Y-420419D01*
X-249626Y-421147D01*
X-249373Y-421880D01*
X-249139Y-422620D01*
X-248923Y-423366D01*
X-248725Y-424116D01*
X-248545Y-424871D01*
X-248385Y-425631D01*
X-248243Y-426394D01*
X-248119Y-427160D01*
X-248015Y-427929D01*
X-247929Y-428700D01*
X-247863Y-429474D01*
X-247815Y-430248D01*
X-247787Y-431024D01*
X-247777Y-431800D01*
X-247787Y-432576D01*
X-247815Y-433352D01*
X-247863Y-434126D01*
X-247929Y-434900D01*
X-248015Y-435671D01*
X-248119Y-436440D01*
X-248243Y-437206D01*
X-248385Y-437969D01*
X-248545Y-438729D01*
X-248725Y-439484D01*
X-248923Y-440234D01*
X-249139Y-440980D01*
X-249373Y-441720D01*
X-249626Y-442453D01*
X-249896Y-443181D01*
X-250184Y-443902D01*
X-250490Y-444615D01*
X-250813Y-445321D01*
X-251154Y-446018D01*
X-251511Y-446707D01*
X-251885Y-447387D01*
X-252276Y-448057D01*
X-252683Y-448718D01*
X-253106Y-449369D01*
X-253546Y-450009D01*
X-254000Y-450638D01*
X-254470Y-451255D01*
X-254955Y-451861D01*
X-255455Y-452455D01*
X-255969Y-453037D01*
X-256497Y-453605D01*
X-257039Y-454161D01*
X-257595Y-454703D01*
X-258163Y-455231D01*
X-258745Y-455745D01*
X-259339Y-456245D01*
X-259945Y-456730D01*
X-260562Y-457200D01*
X-261191Y-457654D01*
X-261831Y-458094D01*
X-262482Y-458517D01*
X-263143Y-458924D01*
X-263813Y-459315D01*
X-264493Y-459689D01*
X-265182Y-460046D01*
X-265879Y-460387D01*
X-266585Y-460710D01*
X-267298Y-461016D01*
X-268019Y-461304D01*
X-268747Y-461574D01*
X-269480Y-461827D01*
X-270220Y-462061D01*
X-270966Y-462277D01*
X-271716Y-462475D01*
X-272471Y-462655D01*
X-273231Y-462815D01*
X-273994Y-462957D01*
X-274760Y-463081D01*
X-275529Y-463185D01*
X-276300Y-463271D01*
X-277074Y-463337D01*
X-277848Y-463385D01*
X-278624Y-463413D01*
X-279400Y-463423D01*
X-280176Y-463413D01*
X-280952Y-463385D01*
X-281726Y-463337D01*
X-282500Y-463271D01*
X-283271Y-463185D01*
X-284040Y-463081D01*
X-284806Y-462957D01*
X-285569Y-462815D01*
X-286329Y-462655D01*
X-287084Y-462475D01*
X-287834Y-462277D01*
X-288580Y-462061D01*
X-289320Y-461827D01*
X-290053Y-461574D01*
X-290781Y-461304D01*
X-291502Y-461016D01*
X-292215Y-460710D01*
X-292921Y-460387D01*
X-293618Y-460046D01*
X-294307Y-459689D01*
X-294987Y-459315D01*
X-295657Y-458924D01*
X-296318Y-458517D01*
X-296969Y-458094D01*
X-297609Y-457654D01*
X-298238Y-457200D01*
X-298855Y-456730D01*
X-299461Y-456245D01*
X-300055Y-455745D01*
X-300637Y-455231D01*
X-301205Y-454703D01*
X-301761Y-454161D01*
X-302303Y-453605D01*
X-302831Y-453037D01*
X-303345Y-452455D01*
X-303845Y-451861D01*
X-304330Y-451255D01*
X-304800Y-450638D01*
X-305254Y-450009D01*
X-305694Y-449369D01*
X-306117Y-448718D01*
X-306524Y-448057D01*
X-306915Y-447387D01*
X-307289Y-446707D01*
X-307646Y-446018D01*
X-307987Y-445321D01*
X-308310Y-444615D01*
X-308616Y-443902D01*
X-308904Y-443181D01*
X-309174Y-442453D01*
X-309427Y-441720D01*
X-309661Y-440980D01*
X-309877Y-440234D01*
X-310075Y-439484D01*
X-310255Y-438729D01*
X-310415Y-437969D01*
X-310557Y-437206D01*
X-310681Y-436440D01*
X-310785Y-435671D01*
X-310871Y-434900D01*
X-310937Y-434126D01*
X-310985Y-433352D01*
X-311013Y-432576D01*
X-311023Y-431800D01*
X-294400Y-391800D02*
X-294400Y-371800D01*
X-294400Y-391800D02*
X-264400Y-391800D01*
X-264400Y-371800D01*
X-306307Y-431800D02*
X-306299Y-431140D01*
X-306275Y-430480D01*
X-306234Y-429821D01*
X-306177Y-429163D01*
X-306105Y-428506D01*
X-306016Y-427852D01*
X-305911Y-427200D01*
X-305790Y-426551D01*
X-305653Y-425905D01*
X-305501Y-425262D01*
X-305332Y-424624D01*
X-305148Y-423989D01*
X-304949Y-423360D01*
X-304734Y-422735D01*
X-304504Y-422116D01*
X-304259Y-421503D01*
X-303999Y-420896D01*
X-303724Y-420296D01*
X-303434Y-419702D01*
X-303130Y-419116D01*
X-302811Y-418538D01*
X-302479Y-417967D01*
X-302132Y-417405D01*
X-301772Y-416851D01*
X-301399Y-416307D01*
X-301012Y-415772D01*
X-300612Y-415246D01*
X-300199Y-414730D01*
X-299774Y-414225D01*
X-299337Y-413730D01*
X-298887Y-413247D01*
X-298426Y-412774D01*
X-297953Y-412313D01*
X-297470Y-411863D01*
X-296975Y-411426D01*
X-296470Y-411001D01*
X-295954Y-410588D01*
X-295428Y-410188D01*
X-294893Y-409801D01*
X-294349Y-409428D01*
X-293795Y-409068D01*
X-293233Y-408721D01*
X-292662Y-408389D01*
X-292084Y-408070D01*
X-291498Y-407766D01*
X-290904Y-407476D01*
X-290304Y-407201D01*
X-289697Y-406941D01*
X-289084Y-406696D01*
X-288465Y-406466D01*
X-287840Y-406251D01*
X-287211Y-406052D01*
X-286576Y-405868D01*
X-285938Y-405699D01*
X-285295Y-405547D01*
X-284649Y-405410D01*
X-284000Y-405289D01*
X-283348Y-405184D01*
X-282694Y-405095D01*
X-282037Y-405023D01*
X-281379Y-404966D01*
X-280720Y-404925D01*
X-280060Y-404901D01*
X-279400Y-404893D01*
X-278740Y-404901D01*
X-278080Y-404925D01*
X-277421Y-404966D01*
X-276763Y-405023D01*
X-276106Y-405095D01*
X-275452Y-405184D01*
X-274800Y-405289D01*
X-274151Y-405410D01*
X-273505Y-405547D01*
X-272862Y-405699D01*
X-272224Y-405868D01*
X-271589Y-406052D01*
X-270960Y-406251D01*
X-270335Y-406466D01*
X-269716Y-406696D01*
X-269103Y-406941D01*
X-268496Y-407201D01*
X-267896Y-407476D01*
X-267302Y-407766D01*
X-266716Y-408070D01*
X-266138Y-408389D01*
X-265567Y-408721D01*
X-265005Y-409068D01*
X-264451Y-409428D01*
X-263907Y-409801D01*
X-263372Y-410188D01*
X-262846Y-410588D01*
X-262330Y-411001D01*
X-261825Y-411426D01*
X-261330Y-411863D01*
X-260847Y-412313D01*
X-260374Y-412774D01*
X-259913Y-413247D01*
X-259463Y-413730D01*
X-259026Y-414225D01*
X-258601Y-414730D01*
X-258188Y-415246D01*
X-257788Y-415772D01*
X-257401Y-416307D01*
X-257028Y-416851D01*
X-256668Y-417405D01*
X-256321Y-417967D01*
X-255989Y-418538D01*
X-255670Y-419116D01*
X-255366Y-419702D01*
X-255076Y-420296D01*
X-254801Y-420896D01*
X-254541Y-421503D01*
X-254296Y-422116D01*
X-254066Y-422735D01*
X-253851Y-423360D01*
X-253652Y-423989D01*
X-253468Y-424624D01*
X-253299Y-425262D01*
X-253147Y-425905D01*
X-253010Y-426551D01*
X-252889Y-427200D01*
X-252784Y-427852D01*
X-252695Y-428506D01*
X-252623Y-429163D01*
X-252566Y-429821D01*
X-252525Y-430480D01*
X-252501Y-431140D01*
X-252493Y-431800D01*
X-252501Y-432460D01*
X-252525Y-433120D01*
X-252566Y-433779D01*
X-252623Y-434437D01*
X-252695Y-435094D01*
X-252784Y-435748D01*
X-252889Y-436400D01*
X-253010Y-437049D01*
X-253147Y-437695D01*
X-253299Y-438338D01*
X-253468Y-438976D01*
X-253652Y-439611D01*
X-253851Y-440240D01*
X-254066Y-440865D01*
X-254296Y-441484D01*
X-254541Y-442097D01*
X-254801Y-442704D01*
X-255076Y-443304D01*
X-255366Y-443898D01*
X-255670Y-444484D01*
X-255989Y-445062D01*
X-256321Y-445633D01*
X-256668Y-446195D01*
X-257028Y-446749D01*
X-257401Y-447293D01*
X-257788Y-447828D01*
X-258188Y-448354D01*
X-258601Y-448870D01*
X-259026Y-449375D01*
X-259463Y-449870D01*
X-259913Y-450353D01*
X-260374Y-450826D01*
X-260847Y-451287D01*
X-261330Y-451737D01*
X-261825Y-452174D01*
X-262330Y-452599D01*
X-262846Y-453012D01*
X-263372Y-453412D01*
X-263907Y-453799D01*
X-264451Y-454172D01*
X-265005Y-454532D01*
X-265567Y-454879D01*
X-266138Y-455211D01*
X-266716Y-455530D01*
X-267302Y-455834D01*
X-267896Y-456124D01*
X-268496Y-456399D01*
X-269103Y-456659D01*
X-269716Y-456904D01*
X-270335Y-457134D01*
X-270960Y-457349D01*
X-271589Y-457548D01*
X-272224Y-457732D01*
X-272862Y-457901D01*
X-273505Y-458053D01*
X-274151Y-458190D01*
X-274800Y-458311D01*
X-275452Y-458416D01*
X-276106Y-458505D01*
X-276763Y-458577D01*
X-277421Y-458634D01*
X-278080Y-458675D01*
X-278740Y-458699D01*
X-279400Y-458707D01*
X-280060Y-458699D01*
X-280720Y-458675D01*
X-281379Y-458634D01*
X-282037Y-458577D01*
X-282694Y-458505D01*
X-283348Y-458416D01*
X-284000Y-458311D01*
X-284649Y-458190D01*
X-285295Y-458053D01*
X-285938Y-457901D01*
X-286576Y-457732D01*
X-287211Y-457548D01*
X-287840Y-457349D01*
X-288465Y-457134D01*
X-289084Y-456904D01*
X-289697Y-456659D01*
X-290304Y-456399D01*
X-290904Y-456124D01*
X-291498Y-455834D01*
X-292084Y-455530D01*
X-292662Y-455211D01*
X-293233Y-454879D01*
X-293795Y-454532D01*
X-294349Y-454172D01*
X-294893Y-453799D01*
X-295428Y-453412D01*
X-295954Y-453012D01*
X-296470Y-452599D01*
X-296975Y-452174D01*
X-297470Y-451737D01*
X-297953Y-451287D01*
X-298426Y-450826D01*
X-298887Y-450353D01*
X-299337Y-449870D01*
X-299774Y-449375D01*
X-300199Y-448870D01*
X-300612Y-448354D01*
X-301012Y-447828D01*
X-301399Y-447293D01*
X-301772Y-446749D01*
X-302132Y-446195D01*
X-302479Y-445633D01*
X-302811Y-445062D01*
X-303130Y-444484D01*
X-303434Y-443898D01*
X-303724Y-443304D01*
X-303999Y-442704D01*
X-304259Y-442097D01*
X-304504Y-441484D01*
X-304734Y-440865D01*
X-304949Y-440240D01*
X-305148Y-439611D01*
X-305332Y-438976D01*
X-305501Y-438338D01*
X-305653Y-437695D01*
X-305790Y-437049D01*
X-305911Y-436400D01*
X-306016Y-435748D01*
X-306105Y-435094D01*
X-306177Y-434437D01*
X-306234Y-433779D01*
X-306275Y-433120D01*
X-306299Y-432460D01*
X-306307Y-431800D01*
X-281400Y-477800D02*
X-281400Y-498800D01*
X-277400Y-498800D01*
X-277400Y-476800D01*
D14*
X-330652Y-475996D02*
X-339090Y-475996D01*
X-330652Y-475996D02*
X-330539Y-475994D01*
X-330426Y-475988D01*
X-330313Y-475978D01*
X-330200Y-475964D01*
X-330088Y-475947D01*
X-329977Y-475925D01*
X-329867Y-475900D01*
X-329757Y-475870D01*
X-329649Y-475837D01*
X-329542Y-475800D01*
X-329436Y-475760D01*
X-329332Y-475715D01*
X-329229Y-475667D01*
X-329128Y-475616D01*
X-329029Y-475561D01*
X-328932Y-475503D01*
X-328837Y-475441D01*
X-328744Y-475376D01*
X-328654Y-475308D01*
X-328566Y-475237D01*
X-328480Y-475162D01*
X-328397Y-475085D01*
X-328317Y-475005D01*
X-328240Y-474922D01*
X-328165Y-474836D01*
X-328094Y-474748D01*
X-328026Y-474658D01*
X-327961Y-474565D01*
X-327899Y-474470D01*
X-327841Y-474373D01*
X-327786Y-474274D01*
X-327735Y-474173D01*
X-327687Y-474070D01*
X-327642Y-473966D01*
X-327602Y-473860D01*
X-327565Y-473753D01*
X-327532Y-473645D01*
X-327502Y-473535D01*
X-327477Y-473425D01*
X-327455Y-473314D01*
X-327438Y-473202D01*
X-327424Y-473089D01*
X-327414Y-472976D01*
X-327408Y-472863D01*
X-327406Y-472750D01*
X-327408Y-472637D01*
X-327414Y-472524D01*
X-327424Y-472411D01*
X-327438Y-472298D01*
X-327455Y-472186D01*
X-327477Y-472075D01*
X-327502Y-471965D01*
X-327532Y-471855D01*
X-327565Y-471747D01*
X-327602Y-471640D01*
X-327642Y-471534D01*
X-327687Y-471430D01*
X-327735Y-471327D01*
X-327786Y-471226D01*
X-327841Y-471127D01*
X-327899Y-471030D01*
X-327961Y-470935D01*
X-328026Y-470842D01*
X-328094Y-470752D01*
X-328165Y-470664D01*
X-328240Y-470578D01*
X-328317Y-470495D01*
X-328397Y-470415D01*
X-328480Y-470338D01*
X-328566Y-470263D01*
X-328654Y-470192D01*
X-328744Y-470124D01*
X-328837Y-470059D01*
X-328932Y-469997D01*
X-329029Y-469939D01*
X-329128Y-469884D01*
X-329229Y-469833D01*
X-329332Y-469785D01*
X-329436Y-469740D01*
X-329542Y-469700D01*
X-329649Y-469663D01*
X-329757Y-469630D01*
X-329867Y-469600D01*
X-329977Y-469575D01*
X-330088Y-469553D01*
X-330200Y-469536D01*
X-330313Y-469522D01*
X-330426Y-469512D01*
X-330539Y-469506D01*
X-330652Y-469504D01*
X-330652Y-469505D02*
X-339090Y-469505D01*
X-339090Y-461701D02*
X-327406Y-461701D01*
X-333248Y-461701D02*
X-334222Y-463324D01*
X-334221Y-463325D02*
X-334268Y-463398D01*
X-334317Y-463469D01*
X-334370Y-463539D01*
X-334426Y-463605D01*
X-334485Y-463669D01*
X-334546Y-463731D01*
X-334610Y-463789D01*
X-334677Y-463845D01*
X-334746Y-463897D01*
X-334818Y-463947D01*
X-334892Y-463993D01*
X-334967Y-464036D01*
X-335045Y-464075D01*
X-335124Y-464111D01*
X-335205Y-464143D01*
X-335287Y-464172D01*
X-335370Y-464197D01*
X-335454Y-464218D01*
X-335539Y-464235D01*
X-335625Y-464249D01*
X-335711Y-464258D01*
X-335798Y-464264D01*
X-335885Y-464266D01*
X-335972Y-464264D01*
X-336059Y-464258D01*
X-336145Y-464248D01*
X-336231Y-464235D01*
X-336316Y-464217D01*
X-336400Y-464196D01*
X-336483Y-464171D01*
X-336566Y-464142D01*
X-336646Y-464110D01*
X-336725Y-464074D01*
X-336803Y-464035D01*
X-336878Y-463992D01*
X-336952Y-463945D01*
X-337023Y-463896D01*
X-337093Y-463843D01*
X-337159Y-463788D01*
X-337223Y-463729D01*
X-337285Y-463668D01*
X-337344Y-463603D01*
X-337399Y-463537D01*
X-337452Y-463468D01*
X-337502Y-463396D01*
X-337548Y-463323D01*
X-337591Y-463247D01*
X-337630Y-463170D01*
X-337666Y-463091D01*
X-337699Y-463010D01*
X-337727Y-462928D01*
X-337753Y-462845D01*
X-337774Y-462761D01*
X-337791Y-462675D01*
X-337792Y-462675D02*
X-337816Y-462535D01*
X-337836Y-462393D01*
X-337852Y-462252D01*
X-337863Y-462110D01*
X-337871Y-461967D01*
X-337875Y-461825D01*
X-337876Y-461682D01*
X-337872Y-461539D01*
X-337864Y-461397D01*
X-337852Y-461255D01*
X-337836Y-461113D01*
X-337817Y-460972D01*
X-337793Y-460831D01*
X-337766Y-460691D01*
X-337734Y-460552D01*
X-337699Y-460414D01*
X-337660Y-460276D01*
X-337617Y-460140D01*
X-337571Y-460006D01*
X-337520Y-459872D01*
X-337467Y-459740D01*
X-337409Y-459610D01*
X-337348Y-459481D01*
X-337283Y-459354D01*
X-337215Y-459228D01*
X-337143Y-459105D01*
X-333248Y-461701D02*
X-332274Y-460079D01*
X-332275Y-460078D02*
X-332228Y-460005D01*
X-332179Y-459934D01*
X-332126Y-459864D01*
X-332070Y-459798D01*
X-332011Y-459734D01*
X-331950Y-459672D01*
X-331886Y-459614D01*
X-331819Y-459558D01*
X-331750Y-459506D01*
X-331678Y-459456D01*
X-331604Y-459410D01*
X-331529Y-459367D01*
X-331451Y-459328D01*
X-331372Y-459292D01*
X-331291Y-459260D01*
X-331209Y-459231D01*
X-331126Y-459206D01*
X-331042Y-459185D01*
X-330957Y-459168D01*
X-330871Y-459154D01*
X-330785Y-459145D01*
X-330698Y-459139D01*
X-330611Y-459137D01*
X-330524Y-459139D01*
X-330437Y-459145D01*
X-330351Y-459155D01*
X-330265Y-459168D01*
X-330180Y-459186D01*
X-330096Y-459207D01*
X-330013Y-459232D01*
X-329930Y-459261D01*
X-329850Y-459293D01*
X-329771Y-459329D01*
X-329693Y-459368D01*
X-329618Y-459411D01*
X-329544Y-459458D01*
X-329473Y-459507D01*
X-329403Y-459560D01*
X-329337Y-459615D01*
X-329273Y-459674D01*
X-329211Y-459735D01*
X-329152Y-459800D01*
X-329097Y-459866D01*
X-329044Y-459935D01*
X-328994Y-460007D01*
X-328948Y-460080D01*
X-328905Y-460156D01*
X-328866Y-460233D01*
X-328830Y-460312D01*
X-328797Y-460393D01*
X-328769Y-460475D01*
X-328743Y-460558D01*
X-328722Y-460642D01*
X-328705Y-460727D01*
X-328704Y-460728D02*
X-328680Y-460868D01*
X-328660Y-461010D01*
X-328644Y-461151D01*
X-328633Y-461293D01*
X-328625Y-461436D01*
X-328621Y-461578D01*
X-328620Y-461721D01*
X-328624Y-461864D01*
X-328632Y-462006D01*
X-328644Y-462148D01*
X-328660Y-462290D01*
X-328679Y-462431D01*
X-328703Y-462572D01*
X-328730Y-462712D01*
X-328762Y-462851D01*
X-328797Y-462989D01*
X-328836Y-463127D01*
X-328879Y-463263D01*
X-328925Y-463397D01*
X-328976Y-463531D01*
X-329029Y-463663D01*
X-329087Y-463794D01*
X-329148Y-463922D01*
X-329213Y-464049D01*
X-329281Y-464175D01*
X-329353Y-464298D01*
X-327406Y-454279D02*
X-327406Y-451034D01*
X-327408Y-450921D01*
X-327414Y-450808D01*
X-327424Y-450695D01*
X-327438Y-450582D01*
X-327455Y-450470D01*
X-327477Y-450359D01*
X-327502Y-450249D01*
X-327532Y-450139D01*
X-327565Y-450031D01*
X-327602Y-449924D01*
X-327642Y-449818D01*
X-327687Y-449714D01*
X-327735Y-449611D01*
X-327786Y-449510D01*
X-327841Y-449411D01*
X-327899Y-449314D01*
X-327961Y-449219D01*
X-328026Y-449126D01*
X-328094Y-449036D01*
X-328165Y-448948D01*
X-328240Y-448862D01*
X-328317Y-448779D01*
X-328397Y-448699D01*
X-328480Y-448622D01*
X-328566Y-448547D01*
X-328654Y-448476D01*
X-328744Y-448408D01*
X-328837Y-448343D01*
X-328932Y-448281D01*
X-329029Y-448223D01*
X-329128Y-448168D01*
X-329229Y-448117D01*
X-329332Y-448069D01*
X-329436Y-448024D01*
X-329542Y-447984D01*
X-329649Y-447947D01*
X-329757Y-447914D01*
X-329867Y-447884D01*
X-329977Y-447859D01*
X-330088Y-447837D01*
X-330200Y-447820D01*
X-330313Y-447806D01*
X-330426Y-447796D01*
X-330539Y-447790D01*
X-330652Y-447788D01*
X-330765Y-447790D01*
X-330878Y-447796D01*
X-330991Y-447806D01*
X-331104Y-447820D01*
X-331216Y-447837D01*
X-331327Y-447859D01*
X-331437Y-447884D01*
X-331547Y-447914D01*
X-331655Y-447947D01*
X-331762Y-447984D01*
X-331868Y-448024D01*
X-331972Y-448069D01*
X-332075Y-448117D01*
X-332176Y-448168D01*
X-332275Y-448223D01*
X-332372Y-448281D01*
X-332467Y-448343D01*
X-332560Y-448408D01*
X-332650Y-448476D01*
X-332738Y-448547D01*
X-332824Y-448622D01*
X-332907Y-448699D01*
X-332987Y-448779D01*
X-333064Y-448862D01*
X-333139Y-448948D01*
X-333210Y-449036D01*
X-333278Y-449126D01*
X-333343Y-449219D01*
X-333405Y-449314D01*
X-333463Y-449411D01*
X-333518Y-449510D01*
X-333569Y-449611D01*
X-333617Y-449714D01*
X-333662Y-449818D01*
X-333702Y-449924D01*
X-333739Y-450031D01*
X-333772Y-450139D01*
X-333802Y-450249D01*
X-333827Y-450359D01*
X-333849Y-450470D01*
X-333866Y-450582D01*
X-333880Y-450695D01*
X-333890Y-450808D01*
X-333896Y-450921D01*
X-333898Y-451034D01*
X-339090Y-450384D02*
X-339090Y-454279D01*
X-339090Y-450384D02*
X-339088Y-450283D01*
X-339082Y-450183D01*
X-339072Y-450083D01*
X-339059Y-449983D01*
X-339041Y-449884D01*
X-339020Y-449785D01*
X-338995Y-449688D01*
X-338966Y-449591D01*
X-338933Y-449496D01*
X-338897Y-449402D01*
X-338857Y-449310D01*
X-338814Y-449219D01*
X-338767Y-449130D01*
X-338717Y-449043D01*
X-338663Y-448957D01*
X-338606Y-448874D01*
X-338546Y-448794D01*
X-338483Y-448715D01*
X-338416Y-448639D01*
X-338347Y-448566D01*
X-338275Y-448496D01*
X-338201Y-448428D01*
X-338124Y-448363D01*
X-338044Y-448302D01*
X-337962Y-448243D01*
X-337878Y-448188D01*
X-337792Y-448136D01*
X-337704Y-448087D01*
X-337614Y-448042D01*
X-337522Y-448000D01*
X-337429Y-447962D01*
X-337334Y-447928D01*
X-337239Y-447897D01*
X-337142Y-447870D01*
X-337044Y-447847D01*
X-336945Y-447827D01*
X-336845Y-447812D01*
X-336745Y-447800D01*
X-336645Y-447792D01*
X-336544Y-447788D01*
X-336444Y-447788D01*
X-336343Y-447792D01*
X-336243Y-447800D01*
X-336143Y-447812D01*
X-336043Y-447827D01*
X-335944Y-447847D01*
X-335846Y-447870D01*
X-335749Y-447897D01*
X-335654Y-447928D01*
X-335559Y-447962D01*
X-335466Y-448000D01*
X-335374Y-448042D01*
X-335284Y-448087D01*
X-335196Y-448136D01*
X-335110Y-448188D01*
X-335026Y-448243D01*
X-334944Y-448302D01*
X-334864Y-448363D01*
X-334787Y-448428D01*
X-334713Y-448496D01*
X-334641Y-448566D01*
X-334572Y-448639D01*
X-334505Y-448715D01*
X-334442Y-448794D01*
X-334382Y-448874D01*
X-334325Y-448957D01*
X-334271Y-449043D01*
X-334221Y-449130D01*
X-334174Y-449219D01*
X-334131Y-449310D01*
X-334091Y-449402D01*
X-334055Y-449496D01*
X-334022Y-449591D01*
X-333993Y-449688D01*
X-333968Y-449785D01*
X-333947Y-449884D01*
X-333929Y-449983D01*
X-333916Y-450083D01*
X-333906Y-450183D01*
X-333900Y-450283D01*
X-333898Y-450384D01*
X-333897Y-450384D02*
X-333897Y-452981D01*
D11*
X-408700Y-371800D02*
X-438700Y-371800D01*
X-408700Y-371800D02*
X-378700Y-371800D01*
X-348700Y-371800D01*
X-438700Y-371800D02*
X-438700Y-476800D01*
X-391700Y-476800D01*
X-348700Y-476800D01*
X-348700Y-371800D01*
X-425323Y-431800D02*
X-425313Y-431024D01*
X-425285Y-430248D01*
X-425237Y-429474D01*
X-425171Y-428700D01*
X-425085Y-427929D01*
X-424981Y-427160D01*
X-424857Y-426394D01*
X-424715Y-425631D01*
X-424555Y-424871D01*
X-424375Y-424116D01*
X-424177Y-423366D01*
X-423961Y-422620D01*
X-423727Y-421880D01*
X-423474Y-421147D01*
X-423204Y-420419D01*
X-422916Y-419698D01*
X-422610Y-418985D01*
X-422287Y-418279D01*
X-421946Y-417582D01*
X-421589Y-416893D01*
X-421215Y-416213D01*
X-420824Y-415543D01*
X-420417Y-414882D01*
X-419994Y-414231D01*
X-419554Y-413591D01*
X-419100Y-412962D01*
X-418630Y-412345D01*
X-418145Y-411739D01*
X-417645Y-411145D01*
X-417131Y-410563D01*
X-416603Y-409995D01*
X-416061Y-409439D01*
X-415505Y-408897D01*
X-414937Y-408369D01*
X-414355Y-407855D01*
X-413761Y-407355D01*
X-413155Y-406870D01*
X-412538Y-406400D01*
X-411909Y-405946D01*
X-411269Y-405506D01*
X-410618Y-405083D01*
X-409957Y-404676D01*
X-409287Y-404285D01*
X-408607Y-403911D01*
X-407918Y-403554D01*
X-407221Y-403213D01*
X-406515Y-402890D01*
X-405802Y-402584D01*
X-405081Y-402296D01*
X-404353Y-402026D01*
X-403620Y-401773D01*
X-402880Y-401539D01*
X-402134Y-401323D01*
X-401384Y-401125D01*
X-400629Y-400945D01*
X-399869Y-400785D01*
X-399106Y-400643D01*
X-398340Y-400519D01*
X-397571Y-400415D01*
X-396800Y-400329D01*
X-396026Y-400263D01*
X-395252Y-400215D01*
X-394476Y-400187D01*
X-393700Y-400177D01*
X-392924Y-400187D01*
X-392148Y-400215D01*
X-391374Y-400263D01*
X-390600Y-400329D01*
X-389829Y-400415D01*
X-389060Y-400519D01*
X-388294Y-400643D01*
X-387531Y-400785D01*
X-386771Y-400945D01*
X-386016Y-401125D01*
X-385266Y-401323D01*
X-384520Y-401539D01*
X-383780Y-401773D01*
X-383047Y-402026D01*
X-382319Y-402296D01*
X-381598Y-402584D01*
X-380885Y-402890D01*
X-380179Y-403213D01*
X-379482Y-403554D01*
X-378793Y-403911D01*
X-378113Y-404285D01*
X-377443Y-404676D01*
X-376782Y-405083D01*
X-376131Y-405506D01*
X-375491Y-405946D01*
X-374862Y-406400D01*
X-374245Y-406870D01*
X-373639Y-407355D01*
X-373045Y-407855D01*
X-372463Y-408369D01*
X-371895Y-408897D01*
X-371339Y-409439D01*
X-370797Y-409995D01*
X-370269Y-410563D01*
X-369755Y-411145D01*
X-369255Y-411739D01*
X-368770Y-412345D01*
X-368300Y-412962D01*
X-367846Y-413591D01*
X-367406Y-414231D01*
X-366983Y-414882D01*
X-366576Y-415543D01*
X-366185Y-416213D01*
X-365811Y-416893D01*
X-365454Y-417582D01*
X-365113Y-418279D01*
X-364790Y-418985D01*
X-364484Y-419698D01*
X-364196Y-420419D01*
X-363926Y-421147D01*
X-363673Y-421880D01*
X-363439Y-422620D01*
X-363223Y-423366D01*
X-363025Y-424116D01*
X-362845Y-424871D01*
X-362685Y-425631D01*
X-362543Y-426394D01*
X-362419Y-427160D01*
X-362315Y-427929D01*
X-362229Y-428700D01*
X-362163Y-429474D01*
X-362115Y-430248D01*
X-362087Y-431024D01*
X-362077Y-431800D01*
X-362087Y-432576D01*
X-362115Y-433352D01*
X-362163Y-434126D01*
X-362229Y-434900D01*
X-362315Y-435671D01*
X-362419Y-436440D01*
X-362543Y-437206D01*
X-362685Y-437969D01*
X-362845Y-438729D01*
X-363025Y-439484D01*
X-363223Y-440234D01*
X-363439Y-440980D01*
X-363673Y-441720D01*
X-363926Y-442453D01*
X-364196Y-443181D01*
X-364484Y-443902D01*
X-364790Y-444615D01*
X-365113Y-445321D01*
X-365454Y-446018D01*
X-365811Y-446707D01*
X-366185Y-447387D01*
X-366576Y-448057D01*
X-366983Y-448718D01*
X-367406Y-449369D01*
X-367846Y-450009D01*
X-368300Y-450638D01*
X-368770Y-451255D01*
X-369255Y-451861D01*
X-369755Y-452455D01*
X-370269Y-453037D01*
X-370797Y-453605D01*
X-371339Y-454161D01*
X-371895Y-454703D01*
X-372463Y-455231D01*
X-373045Y-455745D01*
X-373639Y-456245D01*
X-374245Y-456730D01*
X-374862Y-457200D01*
X-375491Y-457654D01*
X-376131Y-458094D01*
X-376782Y-458517D01*
X-377443Y-458924D01*
X-378113Y-459315D01*
X-378793Y-459689D01*
X-379482Y-460046D01*
X-380179Y-460387D01*
X-380885Y-460710D01*
X-381598Y-461016D01*
X-382319Y-461304D01*
X-383047Y-461574D01*
X-383780Y-461827D01*
X-384520Y-462061D01*
X-385266Y-462277D01*
X-386016Y-462475D01*
X-386771Y-462655D01*
X-387531Y-462815D01*
X-388294Y-462957D01*
X-389060Y-463081D01*
X-389829Y-463185D01*
X-390600Y-463271D01*
X-391374Y-463337D01*
X-392148Y-463385D01*
X-392924Y-463413D01*
X-393700Y-463423D01*
X-394476Y-463413D01*
X-395252Y-463385D01*
X-396026Y-463337D01*
X-396800Y-463271D01*
X-397571Y-463185D01*
X-398340Y-463081D01*
X-399106Y-462957D01*
X-399869Y-462815D01*
X-400629Y-462655D01*
X-401384Y-462475D01*
X-402134Y-462277D01*
X-402880Y-462061D01*
X-403620Y-461827D01*
X-404353Y-461574D01*
X-405081Y-461304D01*
X-405802Y-461016D01*
X-406515Y-460710D01*
X-407221Y-460387D01*
X-407918Y-460046D01*
X-408607Y-459689D01*
X-409287Y-459315D01*
X-409957Y-458924D01*
X-410618Y-458517D01*
X-411269Y-458094D01*
X-411909Y-457654D01*
X-412538Y-457200D01*
X-413155Y-456730D01*
X-413761Y-456245D01*
X-414355Y-455745D01*
X-414937Y-455231D01*
X-415505Y-454703D01*
X-416061Y-454161D01*
X-416603Y-453605D01*
X-417131Y-453037D01*
X-417645Y-452455D01*
X-418145Y-451861D01*
X-418630Y-451255D01*
X-419100Y-450638D01*
X-419554Y-450009D01*
X-419994Y-449369D01*
X-420417Y-448718D01*
X-420824Y-448057D01*
X-421215Y-447387D01*
X-421589Y-446707D01*
X-421946Y-446018D01*
X-422287Y-445321D01*
X-422610Y-444615D01*
X-422916Y-443902D01*
X-423204Y-443181D01*
X-423474Y-442453D01*
X-423727Y-441720D01*
X-423961Y-440980D01*
X-424177Y-440234D01*
X-424375Y-439484D01*
X-424555Y-438729D01*
X-424715Y-437969D01*
X-424857Y-437206D01*
X-424981Y-436440D01*
X-425085Y-435671D01*
X-425171Y-434900D01*
X-425237Y-434126D01*
X-425285Y-433352D01*
X-425313Y-432576D01*
X-425323Y-431800D01*
X-408700Y-391800D02*
X-408700Y-371800D01*
X-408700Y-391800D02*
X-378700Y-391800D01*
X-378700Y-371800D01*
X-420607Y-431800D02*
X-420599Y-431140D01*
X-420575Y-430480D01*
X-420534Y-429821D01*
X-420477Y-429163D01*
X-420405Y-428506D01*
X-420316Y-427852D01*
X-420211Y-427200D01*
X-420090Y-426551D01*
X-419953Y-425905D01*
X-419801Y-425262D01*
X-419632Y-424624D01*
X-419448Y-423989D01*
X-419249Y-423360D01*
X-419034Y-422735D01*
X-418804Y-422116D01*
X-418559Y-421503D01*
X-418299Y-420896D01*
X-418024Y-420296D01*
X-417734Y-419702D01*
X-417430Y-419116D01*
X-417111Y-418538D01*
X-416779Y-417967D01*
X-416432Y-417405D01*
X-416072Y-416851D01*
X-415699Y-416307D01*
X-415312Y-415772D01*
X-414912Y-415246D01*
X-414499Y-414730D01*
X-414074Y-414225D01*
X-413637Y-413730D01*
X-413187Y-413247D01*
X-412726Y-412774D01*
X-412253Y-412313D01*
X-411770Y-411863D01*
X-411275Y-411426D01*
X-410770Y-411001D01*
X-410254Y-410588D01*
X-409728Y-410188D01*
X-409193Y-409801D01*
X-408649Y-409428D01*
X-408095Y-409068D01*
X-407533Y-408721D01*
X-406962Y-408389D01*
X-406384Y-408070D01*
X-405798Y-407766D01*
X-405204Y-407476D01*
X-404604Y-407201D01*
X-403997Y-406941D01*
X-403384Y-406696D01*
X-402765Y-406466D01*
X-402140Y-406251D01*
X-401511Y-406052D01*
X-400876Y-405868D01*
X-400238Y-405699D01*
X-399595Y-405547D01*
X-398949Y-405410D01*
X-398300Y-405289D01*
X-397648Y-405184D01*
X-396994Y-405095D01*
X-396337Y-405023D01*
X-395679Y-404966D01*
X-395020Y-404925D01*
X-394360Y-404901D01*
X-393700Y-404893D01*
X-393040Y-404901D01*
X-392380Y-404925D01*
X-391721Y-404966D01*
X-391063Y-405023D01*
X-390406Y-405095D01*
X-389752Y-405184D01*
X-389100Y-405289D01*
X-388451Y-405410D01*
X-387805Y-405547D01*
X-387162Y-405699D01*
X-386524Y-405868D01*
X-385889Y-406052D01*
X-385260Y-406251D01*
X-384635Y-406466D01*
X-384016Y-406696D01*
X-383403Y-406941D01*
X-382796Y-407201D01*
X-382196Y-407476D01*
X-381602Y-407766D01*
X-381016Y-408070D01*
X-380438Y-408389D01*
X-379867Y-408721D01*
X-379305Y-409068D01*
X-378751Y-409428D01*
X-378207Y-409801D01*
X-377672Y-410188D01*
X-377146Y-410588D01*
X-376630Y-411001D01*
X-376125Y-411426D01*
X-375630Y-411863D01*
X-375147Y-412313D01*
X-374674Y-412774D01*
X-374213Y-413247D01*
X-373763Y-413730D01*
X-373326Y-414225D01*
X-372901Y-414730D01*
X-372488Y-415246D01*
X-372088Y-415772D01*
X-371701Y-416307D01*
X-371328Y-416851D01*
X-370968Y-417405D01*
X-370621Y-417967D01*
X-370289Y-418538D01*
X-369970Y-419116D01*
X-369666Y-419702D01*
X-369376Y-420296D01*
X-369101Y-420896D01*
X-368841Y-421503D01*
X-368596Y-422116D01*
X-368366Y-422735D01*
X-368151Y-423360D01*
X-367952Y-423989D01*
X-367768Y-424624D01*
X-367599Y-425262D01*
X-367447Y-425905D01*
X-367310Y-426551D01*
X-367189Y-427200D01*
X-367084Y-427852D01*
X-366995Y-428506D01*
X-366923Y-429163D01*
X-366866Y-429821D01*
X-366825Y-430480D01*
X-366801Y-431140D01*
X-366793Y-431800D01*
X-366801Y-432460D01*
X-366825Y-433120D01*
X-366866Y-433779D01*
X-366923Y-434437D01*
X-366995Y-435094D01*
X-367084Y-435748D01*
X-367189Y-436400D01*
X-367310Y-437049D01*
X-367447Y-437695D01*
X-367599Y-438338D01*
X-367768Y-438976D01*
X-367952Y-439611D01*
X-368151Y-440240D01*
X-368366Y-440865D01*
X-368596Y-441484D01*
X-368841Y-442097D01*
X-369101Y-442704D01*
X-369376Y-443304D01*
X-369666Y-443898D01*
X-369970Y-444484D01*
X-370289Y-445062D01*
X-370621Y-445633D01*
X-370968Y-446195D01*
X-371328Y-446749D01*
X-371701Y-447293D01*
X-372088Y-447828D01*
X-372488Y-448354D01*
X-372901Y-448870D01*
X-373326Y-449375D01*
X-373763Y-449870D01*
X-374213Y-450353D01*
X-374674Y-450826D01*
X-375147Y-451287D01*
X-375630Y-451737D01*
X-376125Y-452174D01*
X-376630Y-452599D01*
X-377146Y-453012D01*
X-377672Y-453412D01*
X-378207Y-453799D01*
X-378751Y-454172D01*
X-379305Y-454532D01*
X-379867Y-454879D01*
X-380438Y-455211D01*
X-381016Y-455530D01*
X-381602Y-455834D01*
X-382196Y-456124D01*
X-382796Y-456399D01*
X-383403Y-456659D01*
X-384016Y-456904D01*
X-384635Y-457134D01*
X-385260Y-457349D01*
X-385889Y-457548D01*
X-386524Y-457732D01*
X-387162Y-457901D01*
X-387805Y-458053D01*
X-388451Y-458190D01*
X-389100Y-458311D01*
X-389752Y-458416D01*
X-390406Y-458505D01*
X-391063Y-458577D01*
X-391721Y-458634D01*
X-392380Y-458675D01*
X-393040Y-458699D01*
X-393700Y-458707D01*
X-394360Y-458699D01*
X-395020Y-458675D01*
X-395679Y-458634D01*
X-396337Y-458577D01*
X-396994Y-458505D01*
X-397648Y-458416D01*
X-398300Y-458311D01*
X-398949Y-458190D01*
X-399595Y-458053D01*
X-400238Y-457901D01*
X-400876Y-457732D01*
X-401511Y-457548D01*
X-402140Y-457349D01*
X-402765Y-457134D01*
X-403384Y-456904D01*
X-403997Y-456659D01*
X-404604Y-456399D01*
X-405204Y-456124D01*
X-405798Y-455834D01*
X-406384Y-455530D01*
X-406962Y-455211D01*
X-407533Y-454879D01*
X-408095Y-454532D01*
X-408649Y-454172D01*
X-409193Y-453799D01*
X-409728Y-453412D01*
X-410254Y-453012D01*
X-410770Y-452599D01*
X-411275Y-452174D01*
X-411770Y-451737D01*
X-412253Y-451287D01*
X-412726Y-450826D01*
X-413187Y-450353D01*
X-413637Y-449870D01*
X-414074Y-449375D01*
X-414499Y-448870D01*
X-414912Y-448354D01*
X-415312Y-447828D01*
X-415699Y-447293D01*
X-416072Y-446749D01*
X-416432Y-446195D01*
X-416779Y-445633D01*
X-417111Y-445062D01*
X-417430Y-444484D01*
X-417734Y-443898D01*
X-418024Y-443304D01*
X-418299Y-442704D01*
X-418559Y-442097D01*
X-418804Y-441484D01*
X-419034Y-440865D01*
X-419249Y-440240D01*
X-419448Y-439611D01*
X-419632Y-438976D01*
X-419801Y-438338D01*
X-419953Y-437695D01*
X-420090Y-437049D01*
X-420211Y-436400D01*
X-420316Y-435748D01*
X-420405Y-435094D01*
X-420477Y-434437D01*
X-420534Y-433779D01*
X-420575Y-433120D01*
X-420599Y-432460D01*
X-420607Y-431800D01*
X-395700Y-477800D02*
X-395700Y-498800D01*
X-391700Y-498800D01*
X-391700Y-476800D01*
D14*
X-444952Y-475996D02*
X-453390Y-475996D01*
X-444952Y-475996D02*
X-444839Y-475994D01*
X-444726Y-475988D01*
X-444613Y-475978D01*
X-444500Y-475964D01*
X-444388Y-475947D01*
X-444277Y-475925D01*
X-444167Y-475900D01*
X-444057Y-475870D01*
X-443949Y-475837D01*
X-443842Y-475800D01*
X-443736Y-475760D01*
X-443632Y-475715D01*
X-443529Y-475667D01*
X-443428Y-475616D01*
X-443329Y-475561D01*
X-443232Y-475503D01*
X-443137Y-475441D01*
X-443044Y-475376D01*
X-442954Y-475308D01*
X-442866Y-475237D01*
X-442780Y-475162D01*
X-442697Y-475085D01*
X-442617Y-475005D01*
X-442540Y-474922D01*
X-442465Y-474836D01*
X-442394Y-474748D01*
X-442326Y-474658D01*
X-442261Y-474565D01*
X-442199Y-474470D01*
X-442141Y-474373D01*
X-442086Y-474274D01*
X-442035Y-474173D01*
X-441987Y-474070D01*
X-441942Y-473966D01*
X-441902Y-473860D01*
X-441865Y-473753D01*
X-441832Y-473645D01*
X-441802Y-473535D01*
X-441777Y-473425D01*
X-441755Y-473314D01*
X-441738Y-473202D01*
X-441724Y-473089D01*
X-441714Y-472976D01*
X-441708Y-472863D01*
X-441706Y-472750D01*
X-441708Y-472637D01*
X-441714Y-472524D01*
X-441724Y-472411D01*
X-441738Y-472298D01*
X-441755Y-472186D01*
X-441777Y-472075D01*
X-441802Y-471965D01*
X-441832Y-471855D01*
X-441865Y-471747D01*
X-441902Y-471640D01*
X-441942Y-471534D01*
X-441987Y-471430D01*
X-442035Y-471327D01*
X-442086Y-471226D01*
X-442141Y-471127D01*
X-442199Y-471030D01*
X-442261Y-470935D01*
X-442326Y-470842D01*
X-442394Y-470752D01*
X-442465Y-470664D01*
X-442540Y-470578D01*
X-442617Y-470495D01*
X-442697Y-470415D01*
X-442780Y-470338D01*
X-442866Y-470263D01*
X-442954Y-470192D01*
X-443044Y-470124D01*
X-443137Y-470059D01*
X-443232Y-469997D01*
X-443329Y-469939D01*
X-443428Y-469884D01*
X-443529Y-469833D01*
X-443632Y-469785D01*
X-443736Y-469740D01*
X-443842Y-469700D01*
X-443949Y-469663D01*
X-444057Y-469630D01*
X-444167Y-469600D01*
X-444277Y-469575D01*
X-444388Y-469553D01*
X-444500Y-469536D01*
X-444613Y-469522D01*
X-444726Y-469512D01*
X-444839Y-469506D01*
X-444952Y-469504D01*
X-444952Y-469505D02*
X-453390Y-469505D01*
X-453390Y-461701D02*
X-441706Y-461701D01*
X-447548Y-461701D02*
X-448522Y-463324D01*
X-448521Y-463325D02*
X-448568Y-463398D01*
X-448617Y-463469D01*
X-448670Y-463539D01*
X-448726Y-463605D01*
X-448785Y-463669D01*
X-448846Y-463731D01*
X-448910Y-463789D01*
X-448977Y-463845D01*
X-449046Y-463897D01*
X-449118Y-463947D01*
X-449192Y-463993D01*
X-449267Y-464036D01*
X-449345Y-464075D01*
X-449424Y-464111D01*
X-449505Y-464143D01*
X-449587Y-464172D01*
X-449670Y-464197D01*
X-449754Y-464218D01*
X-449839Y-464235D01*
X-449925Y-464249D01*
X-450011Y-464258D01*
X-450098Y-464264D01*
X-450185Y-464266D01*
X-450272Y-464264D01*
X-450359Y-464258D01*
X-450445Y-464248D01*
X-450531Y-464235D01*
X-450616Y-464217D01*
X-450700Y-464196D01*
X-450783Y-464171D01*
X-450866Y-464142D01*
X-450946Y-464110D01*
X-451025Y-464074D01*
X-451103Y-464035D01*
X-451178Y-463992D01*
X-451252Y-463945D01*
X-451323Y-463896D01*
X-451393Y-463843D01*
X-451459Y-463788D01*
X-451523Y-463729D01*
X-451585Y-463668D01*
X-451644Y-463603D01*
X-451699Y-463537D01*
X-451752Y-463468D01*
X-451802Y-463396D01*
X-451848Y-463323D01*
X-451891Y-463247D01*
X-451930Y-463170D01*
X-451966Y-463091D01*
X-451999Y-463010D01*
X-452027Y-462928D01*
X-452053Y-462845D01*
X-452074Y-462761D01*
X-452091Y-462675D01*
X-452092Y-462675D02*
X-452116Y-462535D01*
X-452136Y-462393D01*
X-452152Y-462252D01*
X-452163Y-462110D01*
X-452171Y-461967D01*
X-452175Y-461825D01*
X-452176Y-461682D01*
X-452172Y-461539D01*
X-452164Y-461397D01*
X-452152Y-461255D01*
X-452136Y-461113D01*
X-452117Y-460972D01*
X-452093Y-460831D01*
X-452066Y-460691D01*
X-452034Y-460552D01*
X-451999Y-460414D01*
X-451960Y-460276D01*
X-451917Y-460140D01*
X-451871Y-460006D01*
X-451820Y-459872D01*
X-451767Y-459740D01*
X-451709Y-459610D01*
X-451648Y-459481D01*
X-451583Y-459354D01*
X-451515Y-459228D01*
X-451443Y-459105D01*
X-447548Y-461701D02*
X-446574Y-460079D01*
X-446575Y-460078D02*
X-446528Y-460005D01*
X-446479Y-459934D01*
X-446426Y-459864D01*
X-446370Y-459798D01*
X-446311Y-459734D01*
X-446250Y-459672D01*
X-446186Y-459614D01*
X-446119Y-459558D01*
X-446050Y-459506D01*
X-445978Y-459456D01*
X-445904Y-459410D01*
X-445829Y-459367D01*
X-445751Y-459328D01*
X-445672Y-459292D01*
X-445591Y-459260D01*
X-445509Y-459231D01*
X-445426Y-459206D01*
X-445342Y-459185D01*
X-445257Y-459168D01*
X-445171Y-459154D01*
X-445085Y-459145D01*
X-444998Y-459139D01*
X-444911Y-459137D01*
X-444824Y-459139D01*
X-444737Y-459145D01*
X-444651Y-459155D01*
X-444565Y-459168D01*
X-444480Y-459186D01*
X-444396Y-459207D01*
X-444313Y-459232D01*
X-444230Y-459261D01*
X-444150Y-459293D01*
X-444071Y-459329D01*
X-443993Y-459368D01*
X-443918Y-459411D01*
X-443844Y-459458D01*
X-443773Y-459507D01*
X-443703Y-459560D01*
X-443637Y-459615D01*
X-443573Y-459674D01*
X-443511Y-459735D01*
X-443452Y-459800D01*
X-443397Y-459866D01*
X-443344Y-459935D01*
X-443294Y-460007D01*
X-443248Y-460080D01*
X-443205Y-460156D01*
X-443166Y-460233D01*
X-443130Y-460312D01*
X-443097Y-460393D01*
X-443069Y-460475D01*
X-443043Y-460558D01*
X-443022Y-460642D01*
X-443005Y-460727D01*
X-443004Y-460728D02*
X-442980Y-460868D01*
X-442960Y-461010D01*
X-442944Y-461151D01*
X-442933Y-461293D01*
X-442925Y-461436D01*
X-442921Y-461578D01*
X-442920Y-461721D01*
X-442924Y-461864D01*
X-442932Y-462006D01*
X-442944Y-462148D01*
X-442960Y-462290D01*
X-442979Y-462431D01*
X-443003Y-462572D01*
X-443030Y-462712D01*
X-443062Y-462851D01*
X-443097Y-462989D01*
X-443136Y-463127D01*
X-443179Y-463263D01*
X-443225Y-463397D01*
X-443276Y-463531D01*
X-443329Y-463663D01*
X-443387Y-463794D01*
X-443448Y-463922D01*
X-443513Y-464049D01*
X-443581Y-464175D01*
X-443653Y-464298D01*
X-444302Y-454279D02*
X-453390Y-451683D01*
X-444302Y-454279D02*
X-444302Y-447788D01*
X-446899Y-449735D02*
X-441706Y-449735D01*
D11*
X-523000Y-371800D02*
X-553000Y-371800D01*
X-523000Y-371800D02*
X-493000Y-371800D01*
X-463000Y-371800D01*
X-553000Y-371800D02*
X-553000Y-476800D01*
X-506000Y-476800D01*
X-463000Y-476800D01*
X-463000Y-371800D01*
X-539623Y-431800D02*
X-539613Y-431024D01*
X-539585Y-430248D01*
X-539537Y-429474D01*
X-539471Y-428700D01*
X-539385Y-427929D01*
X-539281Y-427160D01*
X-539157Y-426394D01*
X-539015Y-425631D01*
X-538855Y-424871D01*
X-538675Y-424116D01*
X-538477Y-423366D01*
X-538261Y-422620D01*
X-538027Y-421880D01*
X-537774Y-421147D01*
X-537504Y-420419D01*
X-537216Y-419698D01*
X-536910Y-418985D01*
X-536587Y-418279D01*
X-536246Y-417582D01*
X-535889Y-416893D01*
X-535515Y-416213D01*
X-535124Y-415543D01*
X-534717Y-414882D01*
X-534294Y-414231D01*
X-533854Y-413591D01*
X-533400Y-412962D01*
X-532930Y-412345D01*
X-532445Y-411739D01*
X-531945Y-411145D01*
X-531431Y-410563D01*
X-530903Y-409995D01*
X-530361Y-409439D01*
X-529805Y-408897D01*
X-529237Y-408369D01*
X-528655Y-407855D01*
X-528061Y-407355D01*
X-527455Y-406870D01*
X-526838Y-406400D01*
X-526209Y-405946D01*
X-525569Y-405506D01*
X-524918Y-405083D01*
X-524257Y-404676D01*
X-523587Y-404285D01*
X-522907Y-403911D01*
X-522218Y-403554D01*
X-521521Y-403213D01*
X-520815Y-402890D01*
X-520102Y-402584D01*
X-519381Y-402296D01*
X-518653Y-402026D01*
X-517920Y-401773D01*
X-517180Y-401539D01*
X-516434Y-401323D01*
X-515684Y-401125D01*
X-514929Y-400945D01*
X-514169Y-400785D01*
X-513406Y-400643D01*
X-512640Y-400519D01*
X-511871Y-400415D01*
X-511100Y-400329D01*
X-510326Y-400263D01*
X-509552Y-400215D01*
X-508776Y-400187D01*
X-508000Y-400177D01*
X-507224Y-400187D01*
X-506448Y-400215D01*
X-505674Y-400263D01*
X-504900Y-400329D01*
X-504129Y-400415D01*
X-503360Y-400519D01*
X-502594Y-400643D01*
X-501831Y-400785D01*
X-501071Y-400945D01*
X-500316Y-401125D01*
X-499566Y-401323D01*
X-498820Y-401539D01*
X-498080Y-401773D01*
X-497347Y-402026D01*
X-496619Y-402296D01*
X-495898Y-402584D01*
X-495185Y-402890D01*
X-494479Y-403213D01*
X-493782Y-403554D01*
X-493093Y-403911D01*
X-492413Y-404285D01*
X-491743Y-404676D01*
X-491082Y-405083D01*
X-490431Y-405506D01*
X-489791Y-405946D01*
X-489162Y-406400D01*
X-488545Y-406870D01*
X-487939Y-407355D01*
X-487345Y-407855D01*
X-486763Y-408369D01*
X-486195Y-408897D01*
X-485639Y-409439D01*
X-485097Y-409995D01*
X-484569Y-410563D01*
X-484055Y-411145D01*
X-483555Y-411739D01*
X-483070Y-412345D01*
X-482600Y-412962D01*
X-482146Y-413591D01*
X-481706Y-414231D01*
X-481283Y-414882D01*
X-480876Y-415543D01*
X-480485Y-416213D01*
X-480111Y-416893D01*
X-479754Y-417582D01*
X-479413Y-418279D01*
X-479090Y-418985D01*
X-478784Y-419698D01*
X-478496Y-420419D01*
X-478226Y-421147D01*
X-477973Y-421880D01*
X-477739Y-422620D01*
X-477523Y-423366D01*
X-477325Y-424116D01*
X-477145Y-424871D01*
X-476985Y-425631D01*
X-476843Y-426394D01*
X-476719Y-427160D01*
X-476615Y-427929D01*
X-476529Y-428700D01*
X-476463Y-429474D01*
X-476415Y-430248D01*
X-476387Y-431024D01*
X-476377Y-431800D01*
X-476387Y-432576D01*
X-476415Y-433352D01*
X-476463Y-434126D01*
X-476529Y-434900D01*
X-476615Y-435671D01*
X-476719Y-436440D01*
X-476843Y-437206D01*
X-476985Y-437969D01*
X-477145Y-438729D01*
X-477325Y-439484D01*
X-477523Y-440234D01*
X-477739Y-440980D01*
X-477973Y-441720D01*
X-478226Y-442453D01*
X-478496Y-443181D01*
X-478784Y-443902D01*
X-479090Y-444615D01*
X-479413Y-445321D01*
X-479754Y-446018D01*
X-480111Y-446707D01*
X-480485Y-447387D01*
X-480876Y-448057D01*
X-481283Y-448718D01*
X-481706Y-449369D01*
X-482146Y-450009D01*
X-482600Y-450638D01*
X-483070Y-451255D01*
X-483555Y-451861D01*
X-484055Y-452455D01*
X-484569Y-453037D01*
X-485097Y-453605D01*
X-485639Y-454161D01*
X-486195Y-454703D01*
X-486763Y-455231D01*
X-487345Y-455745D01*
X-487939Y-456245D01*
X-488545Y-456730D01*
X-489162Y-457200D01*
X-489791Y-457654D01*
X-490431Y-458094D01*
X-491082Y-458517D01*
X-491743Y-458924D01*
X-492413Y-459315D01*
X-493093Y-459689D01*
X-493782Y-460046D01*
X-494479Y-460387D01*
X-495185Y-460710D01*
X-495898Y-461016D01*
X-496619Y-461304D01*
X-497347Y-461574D01*
X-498080Y-461827D01*
X-498820Y-462061D01*
X-499566Y-462277D01*
X-500316Y-462475D01*
X-501071Y-462655D01*
X-501831Y-462815D01*
X-502594Y-462957D01*
X-503360Y-463081D01*
X-504129Y-463185D01*
X-504900Y-463271D01*
X-505674Y-463337D01*
X-506448Y-463385D01*
X-507224Y-463413D01*
X-508000Y-463423D01*
X-508776Y-463413D01*
X-509552Y-463385D01*
X-510326Y-463337D01*
X-511100Y-463271D01*
X-511871Y-463185D01*
X-512640Y-463081D01*
X-513406Y-462957D01*
X-514169Y-462815D01*
X-514929Y-462655D01*
X-515684Y-462475D01*
X-516434Y-462277D01*
X-517180Y-462061D01*
X-517920Y-461827D01*
X-518653Y-461574D01*
X-519381Y-461304D01*
X-520102Y-461016D01*
X-520815Y-460710D01*
X-521521Y-460387D01*
X-522218Y-460046D01*
X-522907Y-459689D01*
X-523587Y-459315D01*
X-524257Y-458924D01*
X-524918Y-458517D01*
X-525569Y-458094D01*
X-526209Y-457654D01*
X-526838Y-457200D01*
X-527455Y-456730D01*
X-528061Y-456245D01*
X-528655Y-455745D01*
X-529237Y-455231D01*
X-529805Y-454703D01*
X-530361Y-454161D01*
X-530903Y-453605D01*
X-531431Y-453037D01*
X-531945Y-452455D01*
X-532445Y-451861D01*
X-532930Y-451255D01*
X-533400Y-450638D01*
X-533854Y-450009D01*
X-534294Y-449369D01*
X-534717Y-448718D01*
X-535124Y-448057D01*
X-535515Y-447387D01*
X-535889Y-446707D01*
X-536246Y-446018D01*
X-536587Y-445321D01*
X-536910Y-444615D01*
X-537216Y-443902D01*
X-537504Y-443181D01*
X-537774Y-442453D01*
X-538027Y-441720D01*
X-538261Y-440980D01*
X-538477Y-440234D01*
X-538675Y-439484D01*
X-538855Y-438729D01*
X-539015Y-437969D01*
X-539157Y-437206D01*
X-539281Y-436440D01*
X-539385Y-435671D01*
X-539471Y-434900D01*
X-539537Y-434126D01*
X-539585Y-433352D01*
X-539613Y-432576D01*
X-539623Y-431800D01*
X-523000Y-391800D02*
X-523000Y-371800D01*
X-523000Y-391800D02*
X-493000Y-391800D01*
X-493000Y-371800D01*
X-534907Y-431800D02*
X-534899Y-431140D01*
X-534875Y-430480D01*
X-534834Y-429821D01*
X-534777Y-429163D01*
X-534705Y-428506D01*
X-534616Y-427852D01*
X-534511Y-427200D01*
X-534390Y-426551D01*
X-534253Y-425905D01*
X-534101Y-425262D01*
X-533932Y-424624D01*
X-533748Y-423989D01*
X-533549Y-423360D01*
X-533334Y-422735D01*
X-533104Y-422116D01*
X-532859Y-421503D01*
X-532599Y-420896D01*
X-532324Y-420296D01*
X-532034Y-419702D01*
X-531730Y-419116D01*
X-531411Y-418538D01*
X-531079Y-417967D01*
X-530732Y-417405D01*
X-530372Y-416851D01*
X-529999Y-416307D01*
X-529612Y-415772D01*
X-529212Y-415246D01*
X-528799Y-414730D01*
X-528374Y-414225D01*
X-527937Y-413730D01*
X-527487Y-413247D01*
X-527026Y-412774D01*
X-526553Y-412313D01*
X-526070Y-411863D01*
X-525575Y-411426D01*
X-525070Y-411001D01*
X-524554Y-410588D01*
X-524028Y-410188D01*
X-523493Y-409801D01*
X-522949Y-409428D01*
X-522395Y-409068D01*
X-521833Y-408721D01*
X-521262Y-408389D01*
X-520684Y-408070D01*
X-520098Y-407766D01*
X-519504Y-407476D01*
X-518904Y-407201D01*
X-518297Y-406941D01*
X-517684Y-406696D01*
X-517065Y-406466D01*
X-516440Y-406251D01*
X-515811Y-406052D01*
X-515176Y-405868D01*
X-514538Y-405699D01*
X-513895Y-405547D01*
X-513249Y-405410D01*
X-512600Y-405289D01*
X-511948Y-405184D01*
X-511294Y-405095D01*
X-510637Y-405023D01*
X-509979Y-404966D01*
X-509320Y-404925D01*
X-508660Y-404901D01*
X-508000Y-404893D01*
X-507340Y-404901D01*
X-506680Y-404925D01*
X-506021Y-404966D01*
X-505363Y-405023D01*
X-504706Y-405095D01*
X-504052Y-405184D01*
X-503400Y-405289D01*
X-502751Y-405410D01*
X-502105Y-405547D01*
X-501462Y-405699D01*
X-500824Y-405868D01*
X-500189Y-406052D01*
X-499560Y-406251D01*
X-498935Y-406466D01*
X-498316Y-406696D01*
X-497703Y-406941D01*
X-497096Y-407201D01*
X-496496Y-407476D01*
X-495902Y-407766D01*
X-495316Y-408070D01*
X-494738Y-408389D01*
X-494167Y-408721D01*
X-493605Y-409068D01*
X-493051Y-409428D01*
X-492507Y-409801D01*
X-491972Y-410188D01*
X-491446Y-410588D01*
X-490930Y-411001D01*
X-490425Y-411426D01*
X-489930Y-411863D01*
X-489447Y-412313D01*
X-488974Y-412774D01*
X-488513Y-413247D01*
X-488063Y-413730D01*
X-487626Y-414225D01*
X-487201Y-414730D01*
X-486788Y-415246D01*
X-486388Y-415772D01*
X-486001Y-416307D01*
X-485628Y-416851D01*
X-485268Y-417405D01*
X-484921Y-417967D01*
X-484589Y-418538D01*
X-484270Y-419116D01*
X-483966Y-419702D01*
X-483676Y-420296D01*
X-483401Y-420896D01*
X-483141Y-421503D01*
X-482896Y-422116D01*
X-482666Y-422735D01*
X-482451Y-423360D01*
X-482252Y-423989D01*
X-482068Y-424624D01*
X-481899Y-425262D01*
X-481747Y-425905D01*
X-481610Y-426551D01*
X-481489Y-427200D01*
X-481384Y-427852D01*
X-481295Y-428506D01*
X-481223Y-429163D01*
X-481166Y-429821D01*
X-481125Y-430480D01*
X-481101Y-431140D01*
X-481093Y-431800D01*
X-481101Y-432460D01*
X-481125Y-433120D01*
X-481166Y-433779D01*
X-481223Y-434437D01*
X-481295Y-435094D01*
X-481384Y-435748D01*
X-481489Y-436400D01*
X-481610Y-437049D01*
X-481747Y-437695D01*
X-481899Y-438338D01*
X-482068Y-438976D01*
X-482252Y-439611D01*
X-482451Y-440240D01*
X-482666Y-440865D01*
X-482896Y-441484D01*
X-483141Y-442097D01*
X-483401Y-442704D01*
X-483676Y-443304D01*
X-483966Y-443898D01*
X-484270Y-444484D01*
X-484589Y-445062D01*
X-484921Y-445633D01*
X-485268Y-446195D01*
X-485628Y-446749D01*
X-486001Y-447293D01*
X-486388Y-447828D01*
X-486788Y-448354D01*
X-487201Y-448870D01*
X-487626Y-449375D01*
X-488063Y-449870D01*
X-488513Y-450353D01*
X-488974Y-450826D01*
X-489447Y-451287D01*
X-489930Y-451737D01*
X-490425Y-452174D01*
X-490930Y-452599D01*
X-491446Y-453012D01*
X-491972Y-453412D01*
X-492507Y-453799D01*
X-493051Y-454172D01*
X-493605Y-454532D01*
X-494167Y-454879D01*
X-494738Y-455211D01*
X-495316Y-455530D01*
X-495902Y-455834D01*
X-496496Y-456124D01*
X-497096Y-456399D01*
X-497703Y-456659D01*
X-498316Y-456904D01*
X-498935Y-457134D01*
X-499560Y-457349D01*
X-500189Y-457548D01*
X-500824Y-457732D01*
X-501462Y-457901D01*
X-502105Y-458053D01*
X-502751Y-458190D01*
X-503400Y-458311D01*
X-504052Y-458416D01*
X-504706Y-458505D01*
X-505363Y-458577D01*
X-506021Y-458634D01*
X-506680Y-458675D01*
X-507340Y-458699D01*
X-508000Y-458707D01*
X-508660Y-458699D01*
X-509320Y-458675D01*
X-509979Y-458634D01*
X-510637Y-458577D01*
X-511294Y-458505D01*
X-511948Y-458416D01*
X-512600Y-458311D01*
X-513249Y-458190D01*
X-513895Y-458053D01*
X-514538Y-457901D01*
X-515176Y-457732D01*
X-515811Y-457548D01*
X-516440Y-457349D01*
X-517065Y-457134D01*
X-517684Y-456904D01*
X-518297Y-456659D01*
X-518904Y-456399D01*
X-519504Y-456124D01*
X-520098Y-455834D01*
X-520684Y-455530D01*
X-521262Y-455211D01*
X-521833Y-454879D01*
X-522395Y-454532D01*
X-522949Y-454172D01*
X-523493Y-453799D01*
X-524028Y-453412D01*
X-524554Y-453012D01*
X-525070Y-452599D01*
X-525575Y-452174D01*
X-526070Y-451737D01*
X-526553Y-451287D01*
X-527026Y-450826D01*
X-527487Y-450353D01*
X-527937Y-449870D01*
X-528374Y-449375D01*
X-528799Y-448870D01*
X-529212Y-448354D01*
X-529612Y-447828D01*
X-529999Y-447293D01*
X-530372Y-446749D01*
X-530732Y-446195D01*
X-531079Y-445633D01*
X-531411Y-445062D01*
X-531730Y-444484D01*
X-532034Y-443898D01*
X-532324Y-443304D01*
X-532599Y-442704D01*
X-532859Y-442097D01*
X-533104Y-441484D01*
X-533334Y-440865D01*
X-533549Y-440240D01*
X-533748Y-439611D01*
X-533932Y-438976D01*
X-534101Y-438338D01*
X-534253Y-437695D01*
X-534390Y-437049D01*
X-534511Y-436400D01*
X-534616Y-435748D01*
X-534705Y-435094D01*
X-534777Y-434437D01*
X-534834Y-433779D01*
X-534875Y-433120D01*
X-534899Y-432460D01*
X-534907Y-431800D01*
X-510000Y-477800D02*
X-510000Y-498800D01*
X-506000Y-498800D01*
X-506000Y-476800D01*
D14*
X-559252Y-475996D02*
X-567690Y-475996D01*
X-559252Y-475996D02*
X-559139Y-475994D01*
X-559026Y-475988D01*
X-558913Y-475978D01*
X-558800Y-475964D01*
X-558688Y-475947D01*
X-558577Y-475925D01*
X-558467Y-475900D01*
X-558357Y-475870D01*
X-558249Y-475837D01*
X-558142Y-475800D01*
X-558036Y-475760D01*
X-557932Y-475715D01*
X-557829Y-475667D01*
X-557728Y-475616D01*
X-557629Y-475561D01*
X-557532Y-475503D01*
X-557437Y-475441D01*
X-557344Y-475376D01*
X-557254Y-475308D01*
X-557166Y-475237D01*
X-557080Y-475162D01*
X-556997Y-475085D01*
X-556917Y-475005D01*
X-556840Y-474922D01*
X-556765Y-474836D01*
X-556694Y-474748D01*
X-556626Y-474658D01*
X-556561Y-474565D01*
X-556499Y-474470D01*
X-556441Y-474373D01*
X-556386Y-474274D01*
X-556335Y-474173D01*
X-556287Y-474070D01*
X-556242Y-473966D01*
X-556202Y-473860D01*
X-556165Y-473753D01*
X-556132Y-473645D01*
X-556102Y-473535D01*
X-556077Y-473425D01*
X-556055Y-473314D01*
X-556038Y-473202D01*
X-556024Y-473089D01*
X-556014Y-472976D01*
X-556008Y-472863D01*
X-556006Y-472750D01*
X-556008Y-472637D01*
X-556014Y-472524D01*
X-556024Y-472411D01*
X-556038Y-472298D01*
X-556055Y-472186D01*
X-556077Y-472075D01*
X-556102Y-471965D01*
X-556132Y-471855D01*
X-556165Y-471747D01*
X-556202Y-471640D01*
X-556242Y-471534D01*
X-556287Y-471430D01*
X-556335Y-471327D01*
X-556386Y-471226D01*
X-556441Y-471127D01*
X-556499Y-471030D01*
X-556561Y-470935D01*
X-556626Y-470842D01*
X-556694Y-470752D01*
X-556765Y-470664D01*
X-556840Y-470578D01*
X-556917Y-470495D01*
X-556997Y-470415D01*
X-557080Y-470338D01*
X-557166Y-470263D01*
X-557254Y-470192D01*
X-557344Y-470124D01*
X-557437Y-470059D01*
X-557532Y-469997D01*
X-557629Y-469939D01*
X-557728Y-469884D01*
X-557829Y-469833D01*
X-557932Y-469785D01*
X-558036Y-469740D01*
X-558142Y-469700D01*
X-558249Y-469663D01*
X-558357Y-469630D01*
X-558467Y-469600D01*
X-558577Y-469575D01*
X-558688Y-469553D01*
X-558800Y-469536D01*
X-558913Y-469522D01*
X-559026Y-469512D01*
X-559139Y-469506D01*
X-559252Y-469504D01*
X-559252Y-469505D02*
X-567690Y-469505D01*
X-567690Y-461701D02*
X-556006Y-461701D01*
X-561848Y-461701D02*
X-562822Y-463324D01*
X-562821Y-463325D02*
X-562868Y-463398D01*
X-562917Y-463469D01*
X-562970Y-463539D01*
X-563026Y-463605D01*
X-563085Y-463669D01*
X-563146Y-463731D01*
X-563210Y-463789D01*
X-563277Y-463845D01*
X-563346Y-463897D01*
X-563418Y-463947D01*
X-563492Y-463993D01*
X-563567Y-464036D01*
X-563645Y-464075D01*
X-563724Y-464111D01*
X-563805Y-464143D01*
X-563887Y-464172D01*
X-563970Y-464197D01*
X-564054Y-464218D01*
X-564139Y-464235D01*
X-564225Y-464249D01*
X-564311Y-464258D01*
X-564398Y-464264D01*
X-564485Y-464266D01*
X-564572Y-464264D01*
X-564659Y-464258D01*
X-564745Y-464248D01*
X-564831Y-464235D01*
X-564916Y-464217D01*
X-565000Y-464196D01*
X-565083Y-464171D01*
X-565166Y-464142D01*
X-565246Y-464110D01*
X-565325Y-464074D01*
X-565403Y-464035D01*
X-565478Y-463992D01*
X-565552Y-463945D01*
X-565623Y-463896D01*
X-565693Y-463843D01*
X-565759Y-463788D01*
X-565823Y-463729D01*
X-565885Y-463668D01*
X-565944Y-463603D01*
X-565999Y-463537D01*
X-566052Y-463468D01*
X-566102Y-463396D01*
X-566148Y-463323D01*
X-566191Y-463247D01*
X-566230Y-463170D01*
X-566266Y-463091D01*
X-566299Y-463010D01*
X-566327Y-462928D01*
X-566353Y-462845D01*
X-566374Y-462761D01*
X-566391Y-462675D01*
X-566392Y-462675D02*
X-566416Y-462535D01*
X-566436Y-462393D01*
X-566452Y-462252D01*
X-566463Y-462110D01*
X-566471Y-461967D01*
X-566475Y-461825D01*
X-566476Y-461682D01*
X-566472Y-461539D01*
X-566464Y-461397D01*
X-566452Y-461255D01*
X-566436Y-461113D01*
X-566417Y-460972D01*
X-566393Y-460831D01*
X-566366Y-460691D01*
X-566334Y-460552D01*
X-566299Y-460414D01*
X-566260Y-460276D01*
X-566217Y-460140D01*
X-566171Y-460006D01*
X-566120Y-459872D01*
X-566067Y-459740D01*
X-566009Y-459610D01*
X-565948Y-459481D01*
X-565883Y-459354D01*
X-565815Y-459228D01*
X-565743Y-459105D01*
X-561848Y-461701D02*
X-560874Y-460079D01*
X-560875Y-460078D02*
X-560828Y-460005D01*
X-560779Y-459934D01*
X-560726Y-459864D01*
X-560670Y-459798D01*
X-560611Y-459734D01*
X-560550Y-459672D01*
X-560486Y-459614D01*
X-560419Y-459558D01*
X-560350Y-459506D01*
X-560278Y-459456D01*
X-560204Y-459410D01*
X-560129Y-459367D01*
X-560051Y-459328D01*
X-559972Y-459292D01*
X-559891Y-459260D01*
X-559809Y-459231D01*
X-559726Y-459206D01*
X-559642Y-459185D01*
X-559557Y-459168D01*
X-559471Y-459154D01*
X-559385Y-459145D01*
X-559298Y-459139D01*
X-559211Y-459137D01*
X-559124Y-459139D01*
X-559037Y-459145D01*
X-558951Y-459155D01*
X-558865Y-459168D01*
X-558780Y-459186D01*
X-558696Y-459207D01*
X-558613Y-459232D01*
X-558530Y-459261D01*
X-558450Y-459293D01*
X-558371Y-459329D01*
X-558293Y-459368D01*
X-558218Y-459411D01*
X-558144Y-459458D01*
X-558073Y-459507D01*
X-558003Y-459560D01*
X-557937Y-459615D01*
X-557873Y-459674D01*
X-557811Y-459735D01*
X-557752Y-459800D01*
X-557697Y-459866D01*
X-557644Y-459935D01*
X-557594Y-460007D01*
X-557548Y-460080D01*
X-557505Y-460156D01*
X-557466Y-460233D01*
X-557430Y-460312D01*
X-557397Y-460393D01*
X-557369Y-460475D01*
X-557343Y-460558D01*
X-557322Y-460642D01*
X-557305Y-460727D01*
X-557304Y-460728D02*
X-557280Y-460868D01*
X-557260Y-461010D01*
X-557244Y-461151D01*
X-557233Y-461293D01*
X-557225Y-461436D01*
X-557221Y-461578D01*
X-557220Y-461721D01*
X-557224Y-461864D01*
X-557232Y-462006D01*
X-557244Y-462148D01*
X-557260Y-462290D01*
X-557279Y-462431D01*
X-557303Y-462572D01*
X-557330Y-462712D01*
X-557362Y-462851D01*
X-557397Y-462989D01*
X-557436Y-463127D01*
X-557479Y-463263D01*
X-557525Y-463397D01*
X-557576Y-463531D01*
X-557629Y-463663D01*
X-557687Y-463794D01*
X-557748Y-463922D01*
X-557813Y-464049D01*
X-557881Y-464175D01*
X-557953Y-464298D01*
X-556006Y-454279D02*
X-556006Y-450384D01*
X-556008Y-450285D01*
X-556014Y-450185D01*
X-556023Y-450086D01*
X-556036Y-449988D01*
X-556053Y-449890D01*
X-556074Y-449792D01*
X-556099Y-449696D01*
X-556127Y-449601D01*
X-556159Y-449507D01*
X-556194Y-449414D01*
X-556233Y-449322D01*
X-556276Y-449232D01*
X-556321Y-449144D01*
X-556371Y-449057D01*
X-556423Y-448973D01*
X-556479Y-448890D01*
X-556537Y-448810D01*
X-556599Y-448732D01*
X-556664Y-448657D01*
X-556732Y-448584D01*
X-556802Y-448514D01*
X-556875Y-448446D01*
X-556950Y-448381D01*
X-557028Y-448319D01*
X-557108Y-448261D01*
X-557191Y-448205D01*
X-557275Y-448153D01*
X-557362Y-448103D01*
X-557450Y-448058D01*
X-557540Y-448015D01*
X-557632Y-447976D01*
X-557725Y-447941D01*
X-557819Y-447909D01*
X-557914Y-447881D01*
X-558010Y-447856D01*
X-558108Y-447835D01*
X-558206Y-447818D01*
X-558304Y-447805D01*
X-558403Y-447796D01*
X-558503Y-447790D01*
X-558602Y-447788D01*
X-559901Y-447788D01*
X-560000Y-447790D01*
X-560100Y-447796D01*
X-560199Y-447805D01*
X-560297Y-447818D01*
X-560395Y-447835D01*
X-560493Y-447856D01*
X-560589Y-447881D01*
X-560684Y-447909D01*
X-560778Y-447941D01*
X-560871Y-447976D01*
X-560963Y-448015D01*
X-561053Y-448058D01*
X-561141Y-448103D01*
X-561228Y-448153D01*
X-561312Y-448205D01*
X-561395Y-448261D01*
X-561475Y-448319D01*
X-561553Y-448381D01*
X-561628Y-448446D01*
X-561701Y-448514D01*
X-561771Y-448584D01*
X-561839Y-448657D01*
X-561904Y-448732D01*
X-561966Y-448810D01*
X-562024Y-448890D01*
X-562080Y-448973D01*
X-562132Y-449057D01*
X-562182Y-449144D01*
X-562227Y-449232D01*
X-562270Y-449322D01*
X-562309Y-449414D01*
X-562344Y-449507D01*
X-562376Y-449601D01*
X-562404Y-449696D01*
X-562429Y-449792D01*
X-562450Y-449890D01*
X-562467Y-449988D01*
X-562480Y-450086D01*
X-562489Y-450185D01*
X-562495Y-450285D01*
X-562497Y-450384D01*
X-562497Y-454279D01*
X-567690Y-454279D01*
X-567690Y-447788D01*
M02*
