M48
;GenerationSoftware,Autodesk,EAGLE,9.6.2*%
;CreationDate,2022-05-18T20:10:03Z*%
FMAT,2
ICI,OFF
METRIC,TZ,000.000
T4C0.813
T3C0.914
T2C1.016
T1C1.100
%
G90
M71
T1
X-50800Y-49680
X-50800Y-46680
X-50800Y-38180
X-39370Y-49680
X-39370Y-46680
X-39370Y-38180
X-27940Y-49680
X-27940Y-46680
X-27940Y-38180
X-16510Y-49680
X-16510Y-46680
X-16510Y-38180
X-5080Y-49680
X-5080Y-46680
X-5080Y-38180
T2
X10160Y-16510
X13970Y-19050
X13970Y-16510
X16510Y-19050
X16510Y-16510
X19050Y-19050
X19050Y-16510
X12700Y-24130
X10160Y-24130
X2540Y-19050
X2540Y-16510
X5080Y-19050
X5080Y-16510
X7620Y-19050
X7620Y-16510
X10160Y-19050
T3
X11430Y-38100
X16510Y-38100
X16510Y-40640
X6350Y-40640
X6350Y-38100
X8890Y-40640
X8890Y-38100
X11430Y-40640
X13970Y-38100
X13970Y-40640
T4
X6350Y-24130
X1270Y-30480
X8890Y-30480
X5080Y-48260
X2540Y-48260
X15240Y-48260
X12700Y-48260
X1270Y-24130
X3810Y-2540
X6350Y-2540
X8890Y-2540
X11430Y-2540
X13970Y-2540
X16510Y-2540
X13970Y-10160
X16510Y-10160
X11430Y-10160
X8890Y-10160
X19050Y-2540
X19050Y-10160
X6350Y-10160
X3810Y-10160
M30