G04 EAGLE Gerber RS-274X export*
G75*
%MOMM*%
%FSLAX34Y34*%
%LPD*%
%INSoldermask Top*%
%IPPOS*%
%AMOC8*
5,1,8,0,0,1.08239X$1,22.5*%
G01*
%ADD10C,1.524000*%
%ADD11P,1.649562X8X22.500000*%
%ADD12P,1.869504X8X22.500000*%
%ADD13C,1.727200*%
%ADD14P,1.759533X8X22.500000*%
%ADD15P,1.951982X8X22.500000*%
%ADD16C,1.803400*%
%ADD17C,1.853200*%


D10*
X38100Y-108204D02*
X38100Y-94996D01*
X63500Y-94996D02*
X63500Y-108204D01*
X190500Y-108204D02*
X190500Y-94996D01*
X190500Y-32004D02*
X190500Y-18796D01*
X88900Y-94996D02*
X88900Y-108204D01*
X114300Y-108204D02*
X114300Y-94996D01*
X165100Y-94996D02*
X165100Y-108204D01*
X139700Y-108204D02*
X139700Y-94996D01*
X165100Y-32004D02*
X165100Y-18796D01*
X139700Y-18796D02*
X139700Y-32004D01*
X114300Y-32004D02*
X114300Y-18796D01*
X88900Y-18796D02*
X88900Y-32004D01*
X63500Y-32004D02*
X63500Y-18796D01*
X38100Y-18796D02*
X38100Y-32004D01*
D11*
X12700Y-241300D03*
X63500Y-241300D03*
D12*
X139700Y-190500D03*
X139700Y-165100D03*
X165100Y-190500D03*
X165100Y-165100D03*
X190500Y-190500D03*
X190500Y-165100D03*
D11*
X12700Y-304800D03*
X88900Y-304800D03*
D12*
X25400Y-190500D03*
X25400Y-165100D03*
X50800Y-190500D03*
X50800Y-165100D03*
X76200Y-190500D03*
X76200Y-165100D03*
X101600Y-190500D03*
X101600Y-165100D03*
D13*
X101600Y-233680D02*
X101600Y-248920D01*
X127000Y-248920D02*
X127000Y-233680D01*
D14*
X63500Y-406400D03*
X63500Y-381000D03*
X88900Y-406400D03*
X88900Y-381000D03*
X114300Y-406400D03*
X114300Y-381000D03*
X139700Y-406400D03*
X139700Y-381000D03*
X165100Y-406400D03*
X165100Y-381000D03*
D15*
X50800Y-482600D03*
D16*
X25400Y-482600D03*
D15*
X152400Y-482600D03*
D16*
X127000Y-482600D03*
D17*
X-50800Y-381800D03*
X-50800Y-466800D03*
X-50800Y-496800D03*
X-165100Y-381800D03*
X-165100Y-466800D03*
X-165100Y-496800D03*
X-279400Y-381800D03*
X-279400Y-466800D03*
X-279400Y-496800D03*
X-393700Y-381800D03*
X-393700Y-466800D03*
X-393700Y-496800D03*
X-508000Y-381800D03*
X-508000Y-466800D03*
X-508000Y-496800D03*
M02*
