M48
;GenerationSoftware,Autodesk,EAGLE,9.6.2*%
;CreationDate,2022-05-18T20:21:00Z*%
FMAT,2
ICI,OFF
METRIC,TZ,000.000
T5C0.813
T4C1.016
T3C1.100
T2C1.803
T1C2.100
%
G90
M71
T1
X42600Y82550
X33600Y82550
X12120Y82550
X3120Y82550
X42600Y96520
X33600Y96520
X12120Y96520
X3120Y96520
X33600Y44450
X42600Y44450
X12120Y30480
X33600Y30480
X42600Y30480
X3120Y30480
X12120Y44450
X3120Y44450
T2
X7620Y19939
X38100Y62611
X7620Y62611
X7620Y67310
X7620Y72009
X38100Y19939
X38100Y15240
X38100Y10541
X38100Y67310
X38100Y72009
X7620Y10541
X7620Y15240
T3
X5120Y75550
X35600Y23480
X38100Y23480
X10120Y37450
X7620Y37450
X5120Y37450
X40600Y23480
X35600Y37450
X10120Y23480
X7620Y23480
X5120Y23480
X38100Y37450
X40600Y37450
X10120Y89520
X7620Y89520
X5120Y89520
X40600Y89520
X38100Y89520
X35600Y89520
X10120Y75550
X7620Y75550
X40600Y75550
X38100Y75550
X35600Y75550
T4
X24130Y5080
X26670Y2540
X26670Y5080
X29210Y2540
X29210Y5080
X30480Y17780
X27940Y15240
X30480Y15240
X27940Y12700
X30480Y12700
X27940Y10160
X30480Y10160
X16510Y5080
X16510Y2540
X15240Y17780
X17780Y17780
X15240Y15240
X17780Y15240
X15240Y12700
X17780Y12700
X15240Y10160
X17780Y10160
X24130Y2540
X27940Y17780
T5
X22860Y50165
X21590Y48260
X30480Y52070
X30480Y44450
X24130Y48260
X2540Y21590
X25400Y22860
X20320Y22860
X15240Y53340
X15240Y58420
X19050Y53340
X13970Y62230
X13970Y69850
X20320Y74930
X25400Y74930
X19050Y26670
X19050Y29210
X19050Y31750
X19050Y34290
X19050Y36830
X19050Y39370
X26670Y36830
X26670Y39370
X36830Y55880
X39370Y55880
X43180Y59690
X43180Y52070
X15240Y40640
X15240Y48260
X26670Y34290
X26670Y31750
X19050Y41910
X26670Y41910
X26670Y29210
X26670Y26670
X19050Y78740
X19050Y81280
X19050Y83820
X19050Y86360
X19050Y88900
X19050Y91440
X19050Y93980
X8890Y3810
X6350Y3810
X2540Y10160
X2540Y2540
X15240Y31750
X15240Y24130
X19050Y96520
X26670Y88900
X26670Y91440
X26670Y86360
X26670Y83820
X26670Y96520
X26670Y93980
X26670Y81280
X26670Y78740
X2540Y52070
X2540Y59690
X6350Y55880
X8890Y55880
X36830Y3810
X39370Y3810
X43180Y10160
X43180Y2540
X43180Y21590
X43180Y13970
X19050Y55880
X19050Y58420
X19050Y60960
X19050Y63500
X19050Y66040
X19050Y68580
X19050Y71120
X26670Y63500
X26670Y66040
X26670Y60960
X26670Y58420
X26670Y71120
X26670Y68580
X26670Y55880
X26670Y53340
X26670Y44450
X19050Y44450
X2540Y13970
M30