G04 EAGLE Gerber RS-274X export*
G75*
%MOMM*%
%FSLAX34Y34*%
%LPD*%
%INSoldermask Bottom*%
%IPPOS*%
%AMOC8*
5,1,8,0,0,1.08239X$1,22.5*%
G01*
%ADD10R,1.879600X1.879600*%
%ADD11P,2.034460X8X292.500000*%
%ADD12R,3.319200X3.319200*%
%ADD13C,2.908300*%
%ADD14P,1.649562X8X202.500000*%
%ADD15P,1.649562X8X292.500000*%
%ADD16C,1.524000*%
%ADD17P,1.869504X8X22.500000*%
%ADD18P,1.649562X8X22.500000*%
%ADD19P,1.649562X8X112.500000*%
%ADD20P,1.869504X8X112.500000*%
%ADD21C,1.727200*%


D10*
X51200Y755500D03*
D11*
X76200Y755500D03*
X101200Y755500D03*
D12*
X121200Y825500D03*
X31200Y825500D03*
D10*
X51200Y895200D03*
D11*
X76200Y895200D03*
X101200Y895200D03*
D12*
X121200Y965200D03*
X31200Y965200D03*
D13*
X62675Y626110D02*
X89726Y626110D01*
X89726Y673100D02*
X62675Y673100D01*
X62675Y720090D02*
X89726Y720090D01*
D14*
X88900Y558800D03*
X63500Y558800D03*
D15*
X25400Y596900D03*
X25400Y520700D03*
D16*
X260096Y787400D02*
X273304Y787400D01*
X273304Y812800D02*
X260096Y812800D01*
X260096Y939800D02*
X273304Y939800D01*
X273304Y965200D02*
X260096Y965200D01*
X260096Y838200D02*
X273304Y838200D01*
X273304Y863600D02*
X260096Y863600D01*
X260096Y914400D02*
X273304Y914400D01*
X273304Y889000D02*
X260096Y889000D01*
X197104Y965200D02*
X183896Y965200D01*
X183896Y939800D02*
X197104Y939800D01*
X197104Y914400D02*
X183896Y914400D01*
X183896Y889000D02*
X197104Y889000D01*
X197104Y863600D02*
X183896Y863600D01*
X183896Y838200D02*
X197104Y838200D01*
X197104Y812800D02*
X183896Y812800D01*
X183896Y787400D02*
X197104Y787400D01*
X260096Y266700D02*
X273304Y266700D01*
X273304Y292100D02*
X260096Y292100D01*
X260096Y419100D02*
X273304Y419100D01*
X197104Y419100D02*
X183896Y419100D01*
X260096Y317500D02*
X273304Y317500D01*
X273304Y342900D02*
X260096Y342900D01*
X260096Y393700D02*
X273304Y393700D01*
X273304Y368300D02*
X260096Y368300D01*
X197104Y393700D02*
X183896Y393700D01*
X183896Y368300D02*
X197104Y368300D01*
X197104Y342900D02*
X183896Y342900D01*
X183896Y317500D02*
X197104Y317500D01*
X197104Y292100D02*
X183896Y292100D01*
X183896Y266700D02*
X197104Y266700D01*
D14*
X254000Y749300D03*
X203200Y749300D03*
D15*
X139700Y698500D03*
X139700Y622300D03*
D17*
X241300Y25400D03*
X241300Y50800D03*
X266700Y25400D03*
X266700Y50800D03*
X292100Y25400D03*
X292100Y50800D03*
D18*
X190500Y444500D03*
X266700Y444500D03*
D16*
X273304Y533400D02*
X260096Y533400D01*
X260096Y558800D02*
X273304Y558800D01*
X273304Y685800D02*
X260096Y685800D01*
X260096Y711200D02*
X273304Y711200D01*
X273304Y584200D02*
X260096Y584200D01*
X260096Y609600D02*
X273304Y609600D01*
X273304Y660400D02*
X260096Y660400D01*
X260096Y635000D02*
X273304Y635000D01*
X197104Y711200D02*
X183896Y711200D01*
X183896Y685800D02*
X197104Y685800D01*
X197104Y660400D02*
X183896Y660400D01*
X183896Y635000D02*
X197104Y635000D01*
X197104Y609600D02*
X183896Y609600D01*
X183896Y584200D02*
X197104Y584200D01*
X197104Y558800D02*
X183896Y558800D01*
X183896Y533400D02*
X197104Y533400D01*
D18*
X241300Y482600D03*
X228600Y501650D03*
X215900Y482600D03*
D15*
X304800Y520700D03*
X304800Y444500D03*
D19*
X25400Y139700D03*
X25400Y215900D03*
D14*
X254000Y228600D03*
X203200Y228600D03*
D19*
X152400Y533400D03*
X152400Y584200D03*
D10*
X356000Y755500D03*
D11*
X381000Y755500D03*
X406000Y755500D03*
D12*
X426000Y825500D03*
X336000Y825500D03*
D10*
X356000Y895200D03*
D11*
X381000Y895200D03*
X406000Y895200D03*
D12*
X426000Y965200D03*
X336000Y965200D03*
D13*
X367475Y626110D02*
X394526Y626110D01*
X394526Y673100D02*
X367475Y673100D01*
X367475Y720090D02*
X394526Y720090D01*
D18*
X368300Y558800D03*
X393700Y558800D03*
D15*
X431800Y596900D03*
X431800Y520700D03*
D19*
X152400Y406400D03*
X152400Y482600D03*
D10*
X51200Y234800D03*
D11*
X76200Y234800D03*
X101200Y234800D03*
D12*
X121200Y304800D03*
X31200Y304800D03*
D10*
X51200Y374500D03*
D11*
X76200Y374500D03*
X101200Y374500D03*
D12*
X121200Y444500D03*
X31200Y444500D03*
D13*
X62675Y105410D02*
X89726Y105410D01*
X89726Y152400D02*
X62675Y152400D01*
X62675Y199390D02*
X89726Y199390D01*
D14*
X88900Y38100D03*
X63500Y38100D03*
D15*
X25400Y101600D03*
X25400Y25400D03*
X152400Y317500D03*
X152400Y241300D03*
D10*
X356000Y234800D03*
D11*
X381000Y234800D03*
X406000Y234800D03*
D12*
X426000Y304800D03*
X336000Y304800D03*
D10*
X356000Y374500D03*
D11*
X381000Y374500D03*
X406000Y374500D03*
D12*
X426000Y444500D03*
X336000Y444500D03*
D13*
X367475Y105410D02*
X394526Y105410D01*
X394526Y152400D02*
X367475Y152400D01*
X367475Y199390D02*
X394526Y199390D01*
D18*
X368300Y38100D03*
X393700Y38100D03*
D15*
X431800Y101600D03*
X431800Y25400D03*
X431800Y215900D03*
X431800Y139700D03*
D20*
X177800Y101600D03*
X152400Y101600D03*
X177800Y127000D03*
X152400Y127000D03*
X177800Y152400D03*
X152400Y152400D03*
X177800Y177800D03*
X152400Y177800D03*
D21*
X157480Y25400D02*
X172720Y25400D01*
X172720Y50800D02*
X157480Y50800D01*
D20*
X304800Y101600D03*
X279400Y101600D03*
X304800Y127000D03*
X279400Y127000D03*
X304800Y152400D03*
X279400Y152400D03*
X304800Y177800D03*
X279400Y177800D03*
M02*
